<svg width="566" height="399" viewBox="0 0 566 399" fill="none" xmlns="http://www.w3.org/2000/svg">
<line x1="111" y1="191.638" x2="565.273" y2="191.638" stroke="#E0E0E0" stroke-opacity="0.5" stroke-width="0.5" stroke-dasharray="20 20"/>
<line x1="111" y1="119.218" x2="565.273" y2="119.218" stroke="#E0E0E0" stroke-opacity="0.5" stroke-width="0.5" stroke-dasharray="20 20"/>
<line x1="111" y1="46.8035" x2="565.273" y2="46.8035" stroke="#E0E0E0" stroke-opacity="0.5" stroke-width="0.5" stroke-dasharray="20 20"/>
<line x1="377.057" y1="222.002" x2="377.057" y2="0.671951" stroke="#E0E0E0" stroke-opacity="0.2" stroke-width="0.5" stroke-dasharray="20 20"/>
<line x1="449.477" y1="222.002" x2="449.477" y2="0.671951" stroke="#E0E0E0" stroke-opacity="0.2" stroke-width="0.5" stroke-dasharray="20 20"/>
<line x1="521.897" y1="222.002" x2="521.897" y2="0.671951" stroke="#E0E0E0" stroke-opacity="0.2" stroke-width="0.5" stroke-dasharray="20 20"/>
<line x1="304.636" y1="222.002" x2="304.636" y2="0.671951" stroke="#E0E0E0" stroke-opacity="0.2" stroke-width="0.5" stroke-dasharray="20 20"/>
<line x1="232.216" y1="222.002" x2="232.216" y2="0.671951" stroke="#E0E0E0" stroke-opacity="0.2" stroke-width="0.5" stroke-dasharray="20 20"/>
<line x1="159.795" y1="222.002" x2="159.795" y2="0.671951" stroke="#E0E0E0" stroke-opacity="0.2" stroke-width="0.5" stroke-dasharray="20 20"/>
<path d="M111 191.892L173.899 121.666L201.855 135.711L271.743 65.4851L292.709 79.5303L324.159 51.4399L387.058 100.598L404.531 83.0416L439.475 114.643L491.891 72.5077L523.34 97.0867L565.273 83.0416" stroke="#00FFE8" stroke-opacity="0.24"/>
<path d="M565.273 121.667L501.886 167.314L463.15 142.735L410.327 167.314L375.112 146.246L350.462 153.269L329.333 135.712L280.032 174.336L255.381 160.291L230.731 167.314L188.473 146.246L111 191.893" stroke="#00FFE8" stroke-width="1.75"/>
<path d="M111 191.892L170.865 180.758L227.209 121.376L255.381 139.933L301.161 87.9736L329.333 106.531L343.419 87.9736L392.72 139.933L456.107 65.7053L508.929 121.376L565.273 87.9736" stroke="#00FFE8" stroke-opacity="0.6"/>
<circle cx="173.54" cy="122.759" r="3.29184" fill="#00FFE8" fill-opacity="0.8"/>
<circle cx="227.308" cy="121.666" r="3.29184" fill="#00FFE8" fill-opacity="0.8"/>
<circle cx="170.254" cy="180.921" r="3.29184" fill="#00FFE8" fill-opacity="0.8"/>
<circle cx="255.84" cy="139.224" r="3.29184" fill="#00FFE8" fill-opacity="0.8"/>
<circle cx="300.829" cy="88.7486" r="3.29184" fill="#00FFE8" fill-opacity="0.8"/>
<circle cx="393.001" cy="139.224" r="3.29184" fill="#00FFE8" fill-opacity="0.8"/>
<circle cx="343.619" cy="88.7486" r="3.29184" fill="#00FFE8" fill-opacity="0.8"/>
<circle cx="456.642" cy="65.7042" r="3.29184" fill="#00FFE8" fill-opacity="0.8"/>
<circle cx="509.317" cy="121.666" r="3.29184" fill="#00FFE8" fill-opacity="0.8"/>
<circle cx="187.812" cy="146.904" r="3.29184" fill="#00FFE8" fill-opacity="0.8"/>
<circle cx="231.702" cy="167.749" r="3.29184" fill="#00FFE8" fill-opacity="0.8"/>
<circle cx="255.84" cy="161.169" r="3.29184" fill="#00FFE8" fill-opacity="0.8"/>
<circle cx="279.977" cy="174.335" r="3.29184" fill="#00FFE8" fill-opacity="0.8"/>
<circle cx="329.36" cy="134.832" r="3.29184" fill="#00FFE8" fill-opacity="0.8"/>
<circle cx="350.205" cy="153.49" r="3.29184" fill="#00FFE8" fill-opacity="0.8"/>
<circle cx="375.449" cy="145.81" r="3.29184" fill="#00FFE8" fill-opacity="0.8"/>
<circle cx="463.228" cy="142.511" r="3.29184" fill="#00FFE8" fill-opacity="0.8"/>
<circle cx="501.632" cy="167.749" r="3.29184" fill="#00FFE8" fill-opacity="0.8"/>
<circle cx="200.977" cy="134.832" r="3.29184" fill="#00FFE8" fill-opacity="0.8"/>
<circle cx="272.299" cy="65.7042" r="3.29184" fill="#00FFE8" fill-opacity="0.8"/>
<circle cx="292.05" cy="78.8697" r="3.29184" fill="#00FFE8" fill-opacity="0.8"/>
<circle cx="323.867" cy="51.4388" r="3.29184" fill="#00FFE8" fill-opacity="0.8"/>
<circle cx="386.415" cy="100.821" r="3.29184" fill="#00FFE8" fill-opacity="0.8"/>
<circle cx="405.067" cy="82.1627" r="3.29184" fill="#00FFE8" fill-opacity="0.8"/>
<circle cx="440.183" cy="115.08" r="3.29184" fill="#00FFE8" fill-opacity="0.8"/>
<circle cx="491.759" cy="72.2901" r="3.29184" fill="#00FFE8" fill-opacity="0.8"/>
<circle cx="522.476" cy="96.4281" r="3.29184" fill="#00FFE8" fill-opacity="0.8"/>
<g filter="url(#filter0_d_42_1586)">
<rect x="301" y="197" width="194" height="297" rx="18" transform="rotate(90 301 197)" fill="url(#paint0_linear_42_1586)" fill-opacity="0.2" shape-rendering="crispEdges"/>
</g>
<path d="M53.2891 254C39.6891 254 35.6224 260.333 35.2891 263.5V353H286.789V281C279.789 274 253.289 247.5 226.289 247.5C199.289 247.5 153.789 281 122.789 281C91.7891 281 70.2891 254 53.2891 254Z" fill="url(#paint1_linear_42_1586)"/>
<path d="M28.7422 207.758V217H26.9966V207.758H28.7422ZM32.1445 211.598V217H30.4688V210.132H32.043L32.1445 211.598ZM31.8779 213.318H31.3828C31.387 212.819 31.4548 212.366 31.5859 211.96C31.7171 211.554 31.9012 211.205 32.1382 210.913C32.3794 210.621 32.665 210.396 32.9951 210.24C33.3252 210.083 33.6934 210.005 34.0996 210.005C34.4297 210.005 34.728 210.051 34.9946 210.145C35.2612 210.238 35.4897 210.386 35.6802 210.589C35.8748 210.792 36.0229 211.059 36.1245 211.389C36.2303 211.715 36.2832 212.117 36.2832 212.595V217H34.5947V212.582C34.5947 212.269 34.5482 212.021 34.4551 211.839C34.3662 211.657 34.235 211.528 34.0615 211.452C33.8923 211.376 33.6828 211.338 33.4331 211.338C33.175 211.338 32.9486 211.391 32.7539 211.497C32.5635 211.598 32.4027 211.74 32.2715 211.922C32.1445 212.104 32.0472 212.313 31.9795 212.55C31.9118 212.787 31.8779 213.043 31.8779 213.318ZM40.5806 215.807C40.8175 215.807 41.0291 215.76 41.2153 215.667C41.4015 215.574 41.5496 215.443 41.6597 215.273C41.7739 215.104 41.8353 214.907 41.8438 214.683H43.4243C43.4159 215.149 43.2847 215.565 43.0308 215.934C42.7769 216.302 42.4383 216.594 42.0151 216.81C41.5962 217.021 41.1265 217.127 40.606 217.127C40.077 217.127 39.6157 217.038 39.2222 216.86C38.8286 216.683 38.5007 216.435 38.2383 216.118C37.9801 215.8 37.7855 215.432 37.6543 215.013C37.5273 214.594 37.4639 214.146 37.4639 213.667V213.464C37.4639 212.986 37.5273 212.538 37.6543 212.119C37.7855 211.7 37.9801 211.332 38.2383 211.014C38.5007 210.697 38.8286 210.449 39.2222 210.271C39.6157 210.094 40.0749 210.005 40.5996 210.005C41.154 210.005 41.6406 210.113 42.0596 210.329C42.4827 210.544 42.8128 210.849 43.0498 211.243C43.291 211.636 43.4159 212.1 43.4243 212.633H41.8438C41.8353 212.387 41.7803 212.167 41.6787 211.973C41.5771 211.778 41.4333 211.621 41.2471 211.503C41.0609 211.384 40.8345 211.325 40.5679 211.325C40.2843 211.325 40.0474 211.384 39.8569 211.503C39.6707 211.621 39.5247 211.784 39.4189 211.992C39.3174 212.195 39.2454 212.423 39.2031 212.677C39.165 212.927 39.146 213.189 39.146 213.464V213.667C39.146 213.947 39.165 214.213 39.2031 214.467C39.2454 214.721 39.3174 214.95 39.4189 215.153C39.5247 215.352 39.6707 215.51 39.8569 215.629C40.0474 215.747 40.2886 215.807 40.5806 215.807ZM44.2432 213.636V213.502C44.2432 212.999 44.3151 212.535 44.459 212.112C44.6029 211.685 44.8123 211.315 45.0874 211.001C45.3625 210.688 45.6989 210.445 46.0967 210.271C46.4945 210.094 46.9473 210.005 47.4551 210.005C47.9714 210.005 48.4284 210.094 48.8262 210.271C49.2282 210.445 49.5667 210.688 49.8418 211.001C50.1169 211.315 50.3263 211.685 50.4702 212.112C50.6141 212.535 50.686 212.999 50.686 213.502V213.636C50.686 214.135 50.6141 214.598 50.4702 215.026C50.3263 215.449 50.1169 215.819 49.8418 216.137C49.5667 216.45 49.2303 216.693 48.8325 216.867C48.4347 217.04 47.9798 217.127 47.4678 217.127C46.96 217.127 46.505 217.04 46.103 216.867C45.701 216.693 45.3625 216.45 45.0874 216.137C44.8123 215.819 44.6029 215.449 44.459 215.026C44.3151 214.598 44.2432 214.135 44.2432 213.636ZM45.9189 213.502V213.636C45.9189 213.936 45.9486 214.218 46.0078 214.48C46.0671 214.742 46.158 214.973 46.2808 215.172C46.4035 215.371 46.5622 215.527 46.7568 215.642C46.9557 215.752 47.1927 215.807 47.4678 215.807C47.7386 215.807 47.9714 215.752 48.166 215.642C48.3607 215.527 48.5194 215.371 48.6421 215.172C48.769 214.973 48.8621 214.742 48.9214 214.48C48.9806 214.218 49.0103 213.936 49.0103 213.636V213.502C49.0103 213.206 48.9806 212.929 48.9214 212.671C48.8621 212.409 48.769 212.178 48.6421 211.979C48.5194 211.776 48.3586 211.617 48.1597 211.503C47.965 211.384 47.7301 211.325 47.4551 211.325C47.1842 211.325 46.9515 211.384 46.7568 211.503C46.5622 211.617 46.4035 211.776 46.2808 211.979C46.158 212.178 46.0671 212.409 46.0078 212.671C45.9486 212.929 45.9189 213.206 45.9189 213.502ZM53.5742 211.541V217H51.8984V210.132H53.479L53.5742 211.541ZM53.3267 213.318H52.8125C52.8125 212.84 52.8696 212.4 52.9839 211.998C53.1024 211.596 53.2759 211.247 53.5044 210.951C53.7329 210.65 54.0143 210.417 54.3486 210.252C54.6872 210.087 55.0786 210.005 55.5229 210.005C55.8319 210.005 56.1154 210.051 56.3735 210.145C56.6317 210.233 56.8538 210.375 57.04 210.57C57.2305 210.76 57.3765 211.01 57.478 211.319C57.5796 211.624 57.6304 211.99 57.6304 212.417V217H55.9546V212.588C55.9546 212.267 55.908 212.015 55.8149 211.833C55.7261 211.651 55.597 211.524 55.4277 211.452C55.2585 211.376 55.0553 211.338 54.8184 211.338C54.556 211.338 54.3296 211.391 54.1392 211.497C53.953 211.598 53.7985 211.74 53.6758 211.922C53.5573 212.104 53.4684 212.313 53.4092 212.55C53.3542 212.787 53.3267 213.043 53.3267 213.318ZM57.5034 213.007L56.8115 213.134C56.8158 212.703 56.875 212.299 56.9893 211.922C57.1035 211.541 57.2707 211.209 57.4907 210.925C57.715 210.638 57.9922 210.413 58.3223 210.252C58.6566 210.087 59.0417 210.005 59.4775 210.005C59.8161 210.005 60.1208 210.054 60.3916 210.151C60.6667 210.244 60.9015 210.394 61.0962 210.602C61.2909 210.805 61.439 211.069 61.5405 211.395C61.6463 211.721 61.6992 212.119 61.6992 212.588V217H60.0107V212.582C60.0107 212.248 59.9642 211.992 59.8711 211.814C59.7822 211.636 59.6532 211.514 59.4839 211.446C59.3146 211.374 59.1157 211.338 58.8872 211.338C58.6545 211.338 58.4513 211.382 58.2778 211.471C58.1086 211.556 57.9647 211.674 57.8462 211.827C57.7319 211.979 57.6452 212.157 57.5859 212.36C57.5309 212.559 57.5034 212.775 57.5034 213.007ZM66.2886 217.127C65.7681 217.127 65.3005 217.042 64.8857 216.873C64.471 216.704 64.1177 216.469 63.8257 216.168C63.5379 215.864 63.3158 215.51 63.1592 215.108C63.0068 214.702 62.9307 214.266 62.9307 213.801V213.547C62.9307 213.018 63.0068 212.538 63.1592 212.106C63.3115 211.67 63.5273 211.296 63.8066 210.982C64.0859 210.669 64.4202 210.428 64.8096 210.259C65.1989 210.09 65.6284 210.005 66.0981 210.005C66.5848 210.005 67.0143 210.087 67.3867 210.252C67.7591 210.413 68.0701 210.642 68.3198 210.938C68.5695 211.234 68.7578 211.59 68.8848 212.004C69.0117 212.415 69.0752 212.87 69.0752 213.369V214.074H63.6924V212.918H67.4248V212.792C67.4163 212.525 67.3656 212.282 67.2725 212.062C67.1794 211.837 67.0355 211.66 66.8408 211.528C66.6462 211.393 66.3944 211.325 66.0854 211.325C65.8358 211.325 65.6178 211.38 65.4316 211.49C65.2497 211.596 65.0973 211.748 64.9746 211.947C64.8561 212.142 64.7673 212.375 64.708 212.646C64.6488 212.916 64.6191 213.217 64.6191 213.547V213.801C64.6191 214.089 64.6572 214.355 64.7334 214.601C64.8138 214.846 64.9302 215.06 65.0825 215.242C65.2391 215.419 65.4253 215.559 65.6411 215.661C65.8612 215.758 66.1108 215.807 66.3901 215.807C66.7414 215.807 67.0588 215.739 67.3423 215.604C67.63 215.464 67.8797 215.259 68.0913 214.988L68.9355 215.864C68.7917 216.075 68.597 216.278 68.3516 216.473C68.1104 216.668 67.8184 216.826 67.4756 216.949C67.1328 217.068 66.7371 217.127 66.2886 217.127ZM77.2129 207.758V217H75.4736V207.758H77.2129ZM80.082 207.758V209.135H72.6362V207.758H80.082ZM82.3481 211.535V217H80.6724V210.132H82.2593L82.3481 211.535ZM84.4365 210.087L84.4111 211.649C84.318 211.632 84.2122 211.619 84.0938 211.611C83.9795 211.602 83.8716 211.598 83.77 211.598C83.5119 211.598 83.2855 211.634 83.0908 211.706C82.8962 211.774 82.7332 211.873 82.6021 212.004C82.4751 212.136 82.3778 212.296 82.3101 212.487C82.2424 212.673 82.2043 212.885 82.1958 213.122L81.834 213.077C81.834 212.641 81.8784 212.237 81.9673 211.865C82.0562 211.492 82.1852 211.167 82.3545 210.887C82.5238 210.608 82.7354 210.392 82.9893 210.24C83.2474 210.083 83.5436 210.005 83.8779 210.005C83.971 210.005 84.0705 210.013 84.1763 210.03C84.2863 210.043 84.373 210.062 84.4365 210.087ZM88.3149 217.127C87.7944 217.127 87.3268 217.042 86.9121 216.873C86.4974 216.704 86.144 216.469 85.8521 216.168C85.5643 215.864 85.3421 215.51 85.1855 215.108C85.0332 214.702 84.957 214.266 84.957 213.801V213.547C84.957 213.018 85.0332 212.538 85.1855 212.106C85.3379 211.67 85.5537 211.296 85.833 210.982C86.1123 210.669 86.4466 210.428 86.8359 210.259C87.2253 210.09 87.6548 210.005 88.1245 210.005C88.6112 210.005 89.0407 210.087 89.4131 210.252C89.7855 210.413 90.0965 210.642 90.3462 210.938C90.5959 211.234 90.7842 211.59 90.9111 212.004C91.0381 212.415 91.1016 212.87 91.1016 213.369V214.074H85.7188V212.918H89.4512V212.792C89.4427 212.525 89.3919 212.282 89.2988 212.062C89.2057 211.837 89.0618 211.66 88.8672 211.528C88.6725 211.393 88.4207 211.325 88.1118 211.325C87.8621 211.325 87.6442 211.38 87.458 211.49C87.276 211.596 87.1237 211.748 87.001 211.947C86.8825 212.142 86.7936 212.375 86.7344 212.646C86.6751 212.916 86.6455 213.217 86.6455 213.547V213.801C86.6455 214.089 86.6836 214.355 86.7598 214.601C86.8402 214.846 86.9565 215.06 87.1089 215.242C87.2655 215.419 87.4517 215.559 87.6675 215.661C87.8875 215.758 88.1372 215.807 88.4165 215.807C88.7677 215.807 89.0851 215.739 89.3687 215.604C89.6564 215.464 89.9061 215.259 90.1177 214.988L90.9619 215.864C90.818 216.075 90.6234 216.278 90.3779 216.473C90.1367 216.668 89.8447 216.826 89.502 216.949C89.1592 217.068 88.7635 217.127 88.3149 217.127ZM93.8691 211.598V217H92.1934V210.132H93.7676L93.8691 211.598ZM93.6025 213.318H93.1074C93.1117 212.819 93.1794 212.366 93.3105 211.96C93.4417 211.554 93.6258 211.205 93.8628 210.913C94.104 210.621 94.3896 210.396 94.7197 210.24C95.0498 210.083 95.418 210.005 95.8242 210.005C96.1543 210.005 96.4526 210.051 96.7192 210.145C96.9858 210.238 97.2144 210.386 97.4048 210.589C97.5994 210.792 97.7476 211.059 97.8491 211.389C97.9549 211.715 98.0078 212.117 98.0078 212.595V217H96.3193V212.582C96.3193 212.269 96.2728 212.021 96.1797 211.839C96.0908 211.657 95.9596 211.528 95.7861 211.452C95.6169 211.376 95.4074 211.338 95.1577 211.338C94.8996 211.338 94.6732 211.391 94.4785 211.497C94.2881 211.598 94.1273 211.74 93.9961 211.922C93.8691 212.104 93.7718 212.313 93.7041 212.55C93.6364 212.787 93.6025 213.043 93.6025 213.318ZM103.606 215.54V207.25H105.295V217H103.771L103.606 215.54ZM99.1948 213.648V213.515C99.1948 212.99 99.2541 212.514 99.3726 212.087C99.4953 211.655 99.673 211.285 99.9058 210.976C100.139 210.667 100.42 210.428 100.75 210.259C101.084 210.09 101.463 210.005 101.886 210.005C102.297 210.005 102.654 210.087 102.959 210.252C103.268 210.417 103.53 210.652 103.746 210.957C103.966 211.262 104.142 211.624 104.273 212.042C104.404 212.457 104.499 212.914 104.559 213.414V213.775C104.499 214.262 104.404 214.708 104.273 215.115C104.142 215.521 103.966 215.876 103.746 216.181C103.53 216.482 103.268 216.714 102.959 216.879C102.65 217.044 102.288 217.127 101.874 217.127C101.455 217.127 101.078 217.04 100.744 216.867C100.414 216.693 100.132 216.45 99.8994 216.137C99.6709 215.824 99.4953 215.455 99.3726 215.032C99.2541 214.609 99.1948 214.148 99.1948 213.648ZM100.877 213.515V213.648C100.877 213.945 100.902 214.222 100.953 214.48C101.004 214.738 101.086 214.967 101.201 215.166C101.315 215.36 101.461 215.513 101.639 215.623C101.821 215.733 102.041 215.788 102.299 215.788C102.629 215.788 102.9 215.716 103.111 215.572C103.327 215.424 103.494 215.223 103.613 214.969C103.731 214.711 103.807 214.421 103.841 214.099V213.103C103.824 212.849 103.78 212.614 103.708 212.398C103.64 212.182 103.543 211.996 103.416 211.839C103.293 211.683 103.141 211.56 102.959 211.471C102.777 211.382 102.561 211.338 102.312 211.338C102.053 211.338 101.833 211.395 101.651 211.509C101.469 211.619 101.321 211.774 101.207 211.973C101.093 212.172 101.008 212.402 100.953 212.665C100.902 212.927 100.877 213.21 100.877 213.515Z" fill="white"/>
<path d="M28.6177 228.18V236H27.2695V228.18H28.6177ZM31.4482 231.429V236H30.1538V230.188H31.373L31.4482 231.429ZM31.2173 232.879L30.7983 232.874C30.8019 232.462 30.8592 232.084 30.9702 231.741C31.0848 231.397 31.2424 231.102 31.4429 230.854C31.647 230.607 31.8905 230.418 32.1733 230.285C32.4562 230.149 32.7713 230.081 33.1187 230.081C33.3979 230.081 33.6504 230.12 33.876 230.199C34.1051 230.274 34.3003 230.398 34.4614 230.57C34.6261 230.742 34.7515 230.965 34.8374 231.241C34.9233 231.513 34.9663 231.848 34.9663 232.246V236H33.6665V232.24C33.6665 231.961 33.6253 231.741 33.543 231.58C33.4642 231.415 33.3478 231.299 33.1938 231.23C33.0435 231.159 32.8555 231.123 32.6299 231.123C32.4079 231.123 32.2091 231.17 32.0337 231.263C31.8582 231.356 31.7096 231.483 31.5879 231.644C31.4697 231.805 31.3784 231.991 31.314 232.203C31.2495 232.414 31.2173 232.639 31.2173 232.879ZM42.373 233.653V228.18H43.7158V233.653C43.7158 234.172 43.6048 234.614 43.3828 234.979C43.1608 235.345 42.8582 235.624 42.4751 235.817C42.092 236.011 41.6569 236.107 41.1699 236.107C40.6722 236.107 40.23 236.023 39.8433 235.855C39.4601 235.687 39.1593 235.429 38.9409 235.082C38.7225 234.734 38.6133 234.294 38.6133 233.76H39.9668C39.9668 234.068 40.0151 234.317 40.1118 234.507C40.2121 234.693 40.3517 234.829 40.5308 234.915C40.7134 234.997 40.9264 235.039 41.1699 235.039C41.4027 235.039 41.6086 234.987 41.7876 234.883C41.9702 234.775 42.1134 234.62 42.2173 234.416C42.3211 234.208 42.373 233.954 42.373 233.653ZM48.6357 234.63V230.188H49.9355V236H48.7109L48.6357 234.63ZM48.8184 233.422L49.2534 233.411C49.2534 233.801 49.2104 234.161 49.1245 234.491C49.0386 234.817 48.9061 235.101 48.7271 235.345C48.548 235.585 48.3188 235.773 48.0396 235.909C47.7603 236.041 47.4255 236.107 47.0352 236.107C46.7523 236.107 46.4927 236.066 46.2563 235.984C46.02 235.902 45.8159 235.774 45.644 235.603C45.4757 235.431 45.3451 235.207 45.252 234.931C45.1589 234.655 45.1123 234.326 45.1123 233.943V230.188H46.4067V233.954C46.4067 234.165 46.4318 234.342 46.4819 234.485C46.5321 234.625 46.6001 234.738 46.686 234.824C46.772 234.91 46.8722 234.971 46.9868 235.006C47.1014 235.042 47.2231 235.06 47.3521 235.06C47.7209 235.06 48.0109 234.988 48.2222 234.845C48.437 234.698 48.5892 234.501 48.6787 234.254C48.7718 234.007 48.8184 233.73 48.8184 233.422ZM52.5459 231.429V236H51.2515V230.188H52.4707L52.5459 231.429ZM52.3149 232.879L51.896 232.874C51.8996 232.462 51.9569 232.084 52.0679 231.741C52.1825 231.397 52.34 231.102 52.5405 230.854C52.7446 230.607 52.9881 230.418 53.271 230.285C53.5539 230.149 53.869 230.081 54.2163 230.081C54.4956 230.081 54.748 230.12 54.9736 230.199C55.2028 230.274 55.3979 230.398 55.5591 230.57C55.7238 230.742 55.8491 230.965 55.9351 231.241C56.021 231.513 56.064 231.848 56.064 232.246V236H54.7642V232.24C54.7642 231.961 54.723 231.741 54.6406 231.58C54.5618 231.415 54.4455 231.299 54.2915 231.23C54.1411 231.159 53.9531 231.123 53.7275 231.123C53.5055 231.123 53.3068 231.17 53.1313 231.263C52.9559 231.356 52.8073 231.483 52.6855 231.644C52.5674 231.805 52.4761 231.991 52.4116 232.203C52.3472 232.414 52.3149 232.639 52.3149 232.879ZM59.9473 236.107C59.5176 236.107 59.1291 236.038 58.7817 235.898C58.438 235.755 58.1444 235.556 57.9009 235.302C57.661 235.048 57.4766 234.749 57.3477 234.405C57.2188 234.061 57.1543 233.69 57.1543 233.293V233.078C57.1543 232.623 57.2205 232.212 57.353 231.843C57.4855 231.474 57.6699 231.159 57.9062 230.897C58.1426 230.632 58.4219 230.43 58.7441 230.291C59.0664 230.151 59.4155 230.081 59.7915 230.081C60.2069 230.081 60.5703 230.151 60.8818 230.291C61.1934 230.43 61.4512 230.627 61.6553 230.881C61.863 231.132 62.0169 231.431 62.1172 231.778C62.221 232.126 62.2729 232.509 62.2729 232.928V233.481H57.7827V232.552H60.9946V232.45C60.9875 232.217 60.9409 231.999 60.855 231.794C60.7726 231.59 60.6455 231.426 60.4736 231.3C60.3018 231.175 60.0726 231.112 59.7861 231.112C59.5713 231.112 59.3797 231.159 59.2114 231.252C59.0467 231.341 58.9089 231.472 58.7979 231.644C58.6868 231.816 58.6009 232.024 58.54 232.267C58.4827 232.507 58.4541 232.777 58.4541 233.078V233.293C58.4541 233.547 58.4881 233.784 58.5562 234.002C58.6278 234.217 58.7316 234.405 58.8677 234.566C59.0037 234.727 59.1685 234.854 59.3618 234.947C59.5552 235.037 59.7754 235.082 60.0225 235.082C60.334 235.082 60.6115 235.019 60.855 234.894C61.0985 234.768 61.3097 234.591 61.4888 234.362L62.1709 235.022C62.0456 235.205 61.8826 235.381 61.6821 235.549C61.4816 235.714 61.2363 235.848 60.9463 235.952C60.6598 236.056 60.3268 236.107 59.9473 236.107Z" fill="white"/>
<path d="M267.831 235.156V236H263.542V235.275L265.625 233.003C265.854 232.745 266.034 232.522 266.166 232.335C266.297 232.147 266.39 231.979 266.442 231.83C266.498 231.677 266.526 231.529 266.526 231.386C266.526 231.184 266.488 231.006 266.412 230.854C266.338 230.699 266.23 230.577 266.086 230.489C265.943 230.398 265.769 230.353 265.563 230.353C265.326 230.353 265.127 230.404 264.966 230.507C264.805 230.609 264.683 230.751 264.601 230.933C264.519 231.112 264.478 231.317 264.478 231.548H263.419C263.419 231.176 263.504 230.836 263.674 230.529C263.844 230.218 264.09 229.972 264.412 229.791C264.734 229.606 265.123 229.514 265.577 229.514C266.004 229.514 266.368 229.585 266.667 229.729C266.965 229.873 267.192 230.076 267.348 230.34C267.506 230.604 267.585 230.916 267.585 231.276C267.585 231.475 267.553 231.673 267.488 231.869C267.424 232.065 267.332 232.262 267.211 232.458C267.094 232.651 266.955 232.846 266.794 233.042C266.633 233.236 266.456 233.432 266.262 233.631L264.878 235.156H267.831ZM272.828 232.265V233.311C272.828 233.812 272.778 234.239 272.678 234.594C272.582 234.945 272.441 235.231 272.256 235.451C272.072 235.67 271.851 235.832 271.593 235.934C271.338 236.037 271.052 236.088 270.736 236.088C270.484 236.088 270.25 236.056 270.033 235.991C269.819 235.927 269.625 235.826 269.453 235.688C269.28 235.55 269.132 235.373 269.009 235.156C268.889 234.937 268.795 234.674 268.728 234.37C268.663 234.065 268.631 233.712 268.631 233.311V232.265C268.631 231.761 268.681 231.336 268.78 230.99C268.88 230.642 269.022 230.359 269.207 230.142C269.391 229.922 269.611 229.763 269.866 229.663C270.124 229.563 270.411 229.514 270.727 229.514C270.982 229.514 271.216 229.546 271.43 229.61C271.647 229.672 271.84 229.77 272.01 229.905C272.183 230.04 272.33 230.215 272.45 230.432C272.573 230.646 272.667 230.905 272.731 231.21C272.795 231.512 272.828 231.863 272.828 232.265ZM271.769 233.46V232.106C271.769 231.852 271.754 231.627 271.725 231.434C271.695 231.238 271.651 231.072 271.593 230.938C271.537 230.8 271.467 230.688 271.382 230.604C271.297 230.516 271.2 230.453 271.092 230.415C270.983 230.374 270.862 230.353 270.727 230.353C270.563 230.353 270.417 230.385 270.288 230.45C270.159 230.511 270.05 230.611 269.962 230.749C269.875 230.886 269.807 231.068 269.76 231.293C269.716 231.516 269.694 231.787 269.694 232.106V233.46C269.694 233.718 269.709 233.945 269.738 234.141C269.768 234.337 269.812 234.506 269.87 234.646C269.929 234.784 269.999 234.898 270.081 234.989C270.166 235.077 270.263 235.142 270.371 235.183C270.482 235.224 270.604 235.244 270.736 235.244C270.903 235.244 271.051 235.212 271.18 235.147C271.309 235.083 271.417 234.98 271.505 234.84C271.593 234.696 271.659 234.51 271.703 234.282C271.747 234.053 271.769 233.779 271.769 233.46ZM278.062 235.156V236H273.772V235.275L275.855 233.003C276.084 232.745 276.264 232.522 276.396 232.335C276.528 232.147 276.62 231.979 276.673 231.83C276.729 231.677 276.756 231.529 276.756 231.386C276.756 231.184 276.718 231.006 276.642 230.854C276.569 230.699 276.46 230.577 276.317 230.489C276.173 230.398 275.999 230.353 275.794 230.353C275.557 230.353 275.357 230.404 275.196 230.507C275.035 230.609 274.914 230.751 274.832 230.933C274.75 231.112 274.708 231.317 274.708 231.548H273.649C273.649 231.176 273.734 230.836 273.904 230.529C274.074 230.218 274.32 229.972 274.643 229.791C274.965 229.606 275.353 229.514 275.807 229.514C276.235 229.514 276.598 229.585 276.897 229.729C277.196 229.873 277.423 230.076 277.578 230.34C277.736 230.604 277.815 230.916 277.815 231.276C277.815 231.475 277.783 231.673 277.719 231.869C277.654 232.065 277.562 232.262 277.442 232.458C277.325 232.651 277.186 232.846 277.024 233.042C276.863 233.236 276.686 233.432 276.493 233.631L275.108 235.156H278.062ZM283.177 235.156V236H278.888V235.275L280.971 233.003C281.199 232.745 281.379 232.522 281.511 232.335C281.643 232.147 281.735 231.979 281.788 231.83C281.844 231.677 281.872 231.529 281.872 231.386C281.872 231.184 281.833 231.006 281.757 230.854C281.684 230.699 281.576 230.577 281.432 230.489C281.289 230.398 281.114 230.353 280.909 230.353C280.672 230.353 280.473 230.404 280.312 230.507C280.15 230.609 280.029 230.751 279.947 230.933C279.865 231.112 279.824 231.317 279.824 231.548H278.765C278.765 231.176 278.85 230.836 279.02 230.529C279.189 230.218 279.436 229.972 279.758 229.791C280.08 229.606 280.468 229.514 280.922 229.514C281.35 229.514 281.713 229.585 282.012 229.729C282.311 229.873 282.538 230.076 282.693 230.34C282.852 230.604 282.931 230.916 282.931 231.276C282.931 231.475 282.898 231.673 282.834 231.869C282.77 232.065 282.677 232.262 282.557 232.458C282.44 232.651 282.301 232.846 282.14 233.042C281.979 233.236 281.801 233.432 281.608 233.631L280.224 235.156H283.177Z" fill="white"/>
<path d="M236.334 369.344L237.262 365.729H237.749L237.695 366.661L236.702 370.391H236.196L236.334 369.344ZM235.639 365.729L236.391 369.315L236.459 370.391H235.921L234.842 365.729H235.639ZM238.802 369.305L239.545 365.729H240.346L239.267 370.391H238.729L238.802 369.305ZM237.938 365.729L238.857 369.353L238.991 370.391H238.485L237.509 366.661L237.458 365.729H237.938ZM242.289 370.455C242.033 370.455 241.801 370.413 241.594 370.33C241.389 370.244 241.214 370.126 241.069 369.974C240.926 369.823 240.816 369.645 240.739 369.44C240.663 369.235 240.624 369.014 240.624 368.777V368.649C240.624 368.378 240.664 368.132 240.743 367.913C240.822 367.693 240.931 367.505 241.072 367.349C241.213 367.191 241.38 367.071 241.572 366.987C241.764 366.904 241.972 366.862 242.196 366.862C242.444 366.862 242.66 366.904 242.846 366.987C243.032 367.071 243.185 367.188 243.307 367.339C243.431 367.489 243.523 367.667 243.582 367.874C243.644 368.081 243.675 368.31 243.675 368.559V368.889H240.999V368.335H242.913V368.274C242.909 368.136 242.881 368.005 242.83 367.884C242.781 367.762 242.705 367.664 242.603 367.589C242.5 367.514 242.364 367.477 242.193 367.477C242.065 367.477 241.951 367.505 241.85 367.56C241.752 367.614 241.67 367.692 241.604 367.794C241.538 367.897 241.486 368.02 241.45 368.165C241.416 368.308 241.399 368.47 241.399 368.649V368.777C241.399 368.929 241.419 369.069 241.46 369.2C241.502 369.328 241.564 369.44 241.645 369.536C241.727 369.632 241.825 369.708 241.94 369.763C242.055 369.816 242.186 369.843 242.334 369.843C242.519 369.843 242.685 369.806 242.83 369.731C242.975 369.656 243.101 369.551 243.208 369.414L243.614 369.808C243.54 369.917 243.443 370.021 243.323 370.122C243.204 370.22 243.057 370.3 242.884 370.362C242.714 370.424 242.515 370.455 242.289 370.455ZM245.804 370.455C245.548 370.455 245.317 370.413 245.11 370.33C244.905 370.244 244.73 370.126 244.585 369.974C244.442 369.823 244.332 369.645 244.255 369.44C244.178 369.235 244.14 369.014 244.14 368.777V368.649C244.14 368.378 244.179 368.132 244.258 367.913C244.337 367.693 244.447 367.505 244.588 367.349C244.729 367.191 244.895 367.071 245.087 366.987C245.279 366.904 245.487 366.862 245.712 366.862C245.959 366.862 246.176 366.904 246.361 366.987C246.547 367.071 246.701 367.188 246.822 367.339C246.946 367.489 247.038 367.667 247.098 367.874C247.16 368.081 247.191 368.31 247.191 368.559V368.889H244.514V368.335H246.429V368.274C246.424 368.136 246.397 368.005 246.345 367.884C246.296 367.762 246.221 367.664 246.118 367.589C246.016 367.514 245.879 367.477 245.708 367.477C245.58 367.477 245.466 367.505 245.366 367.56C245.268 367.614 245.185 367.692 245.119 367.794C245.053 367.897 245.002 368.02 244.966 368.165C244.931 368.308 244.914 368.47 244.914 368.649V368.777C244.914 368.929 244.935 369.069 244.975 369.2C245.018 369.328 245.08 369.44 245.161 369.536C245.242 369.632 245.34 369.708 245.455 369.763C245.571 369.816 245.702 369.843 245.849 369.843C246.035 369.843 246.2 369.806 246.345 369.731C246.491 369.656 246.617 369.551 246.723 369.414L247.13 369.808C247.055 369.917 246.958 370.021 246.839 370.122C246.719 370.22 246.573 370.3 246.4 370.362C246.229 370.424 246.031 370.455 245.804 370.455ZM248.571 365.473V370.391H247.796V365.473H248.571ZM250.722 366.926L249.214 368.598L248.388 369.443L248.186 368.79L248.811 368.018L249.79 366.926H250.722ZM249.957 370.391L248.833 368.764L249.32 368.223L250.85 370.391H249.957ZM256.011 368.729V369.344H252.65L252.624 368.879L254.635 365.729H255.252L254.583 366.875L253.428 368.729H256.011ZM255.429 365.729V370.391H254.657V365.729H255.429Z" fill="white"/>
<path d="M177.588 370.144L178.516 366.529H179.003L178.948 367.461L177.956 371.191H177.45L177.588 370.144ZM176.893 366.529L177.645 370.115L177.713 371.191H177.175L176.096 366.529H176.893ZM180.056 370.105L180.799 366.529H181.599L180.52 371.191H179.983L180.056 370.105ZM179.192 366.529L180.111 370.153L180.245 371.191H179.739L178.763 367.461L178.712 366.529H179.192ZM183.543 371.255C183.287 371.255 183.055 371.213 182.848 371.13C182.643 371.044 182.468 370.926 182.323 370.774C182.18 370.623 182.07 370.445 181.993 370.24C181.916 370.035 181.878 369.814 181.878 369.577V369.449C181.878 369.178 181.917 368.932 181.996 368.712C182.075 368.493 182.185 368.305 182.326 368.149C182.467 367.991 182.634 367.87 182.826 367.787C183.018 367.704 183.226 367.662 183.45 367.662C183.698 367.662 183.914 367.704 184.1 367.787C184.286 367.87 184.439 367.988 184.561 368.139C184.685 368.289 184.777 368.467 184.836 368.674C184.898 368.881 184.929 369.109 184.929 369.359V369.689H182.253V369.135H184.167V369.074C184.163 368.936 184.135 368.805 184.084 368.684C184.035 368.562 183.959 368.464 183.857 368.389C183.754 368.314 183.618 368.277 183.447 368.277C183.319 368.277 183.205 368.305 183.104 368.36C183.006 368.414 182.924 368.492 182.858 368.594C182.792 368.696 182.74 368.82 182.704 368.965C182.67 369.108 182.653 369.27 182.653 369.449V369.577C182.653 369.728 182.673 369.869 182.714 370C182.756 370.128 182.818 370.24 182.899 370.336C182.98 370.432 183.079 370.508 183.194 370.563C183.309 370.616 183.44 370.643 183.588 370.643C183.773 370.643 183.939 370.606 184.084 370.531C184.229 370.456 184.355 370.351 184.462 370.214L184.868 370.608C184.794 370.717 184.697 370.821 184.577 370.922C184.457 371.02 184.311 371.1 184.138 371.162C183.968 371.224 183.769 371.255 183.543 371.255ZM187.058 371.255C186.802 371.255 186.571 371.213 186.364 371.13C186.159 371.044 185.984 370.926 185.838 370.774C185.695 370.623 185.586 370.445 185.509 370.24C185.432 370.035 185.393 369.814 185.393 369.577V369.449C185.393 369.178 185.433 368.932 185.512 368.712C185.591 368.493 185.701 368.305 185.842 368.149C185.983 367.991 186.149 367.87 186.341 367.787C186.533 367.704 186.741 367.662 186.965 367.662C187.213 367.662 187.43 367.704 187.615 367.787C187.801 367.87 187.955 367.988 188.076 368.139C188.2 368.289 188.292 368.467 188.352 368.674C188.414 368.881 188.445 369.109 188.445 369.359V369.689H185.768V369.135H187.683V369.074C187.678 368.936 187.651 368.805 187.599 368.684C187.55 368.562 187.474 368.464 187.372 368.389C187.27 368.314 187.133 368.277 186.962 368.277C186.834 368.277 186.72 368.305 186.62 368.36C186.521 368.414 186.439 368.492 186.373 368.594C186.307 368.696 186.256 368.82 186.219 368.965C186.185 369.108 186.168 369.27 186.168 369.449V369.577C186.168 369.728 186.188 369.869 186.229 370C186.272 370.128 186.334 370.24 186.415 370.336C186.496 370.432 186.594 370.508 186.709 370.563C186.825 370.616 186.956 370.643 187.103 370.643C187.289 370.643 187.454 370.606 187.599 370.531C187.744 370.456 187.87 370.351 187.977 370.214L188.384 370.608C188.309 370.717 188.212 370.821 188.092 370.922C187.973 371.02 187.827 371.1 187.654 371.162C187.483 371.224 187.285 371.255 187.058 371.255ZM189.825 366.273V371.191H189.05V366.273H189.825ZM191.976 367.726L190.468 369.398L189.642 370.243L189.44 369.59L190.065 368.818L191.044 367.726H191.976ZM191.211 371.191L190.087 369.564L190.574 369.023L192.104 371.191H191.211ZM194.96 368.511H195.421C195.6 368.511 195.749 368.48 195.866 368.418C195.986 368.356 196.074 368.271 196.132 368.162C196.189 368.053 196.218 367.928 196.218 367.787C196.218 367.64 196.192 367.514 196.138 367.409C196.087 367.303 196.008 367.22 195.901 367.163C195.797 367.105 195.663 367.076 195.501 367.076C195.364 367.076 195.241 367.104 195.13 367.16C195.021 367.213 194.934 367.29 194.87 367.39C194.806 367.488 194.774 367.606 194.774 367.742H193.999C193.999 367.495 194.065 367.275 194.195 367.083C194.325 366.891 194.502 366.74 194.726 366.631C194.953 366.52 195.206 366.465 195.488 366.465C195.789 366.465 196.052 366.515 196.276 366.615C196.502 366.714 196.678 366.861 196.804 367.057C196.93 367.254 196.993 367.497 196.993 367.787C196.993 367.92 196.962 368.054 196.9 368.191C196.838 368.327 196.746 368.452 196.625 368.565C196.503 368.676 196.352 368.767 196.17 368.837C195.989 368.906 195.779 368.94 195.539 368.94H194.96V368.511ZM194.96 369.113V368.69H195.539C195.813 368.69 196.045 368.722 196.237 368.786C196.432 368.85 196.59 368.939 196.711 369.052C196.833 369.163 196.922 369.29 196.977 369.433C197.035 369.576 197.063 369.727 197.063 369.887C197.063 370.105 197.024 370.299 196.945 370.47C196.868 370.639 196.758 370.782 196.615 370.899C196.472 371.017 196.305 371.105 196.113 371.165C195.923 371.225 195.716 371.255 195.491 371.255C195.291 371.255 195.099 371.227 194.915 371.171C194.732 371.116 194.567 371.034 194.422 370.925C194.277 370.814 194.162 370.676 194.076 370.512C193.993 370.345 193.951 370.153 193.951 369.936H194.723C194.723 370.074 194.755 370.197 194.819 370.304C194.885 370.408 194.977 370.49 195.094 370.55C195.214 370.61 195.351 370.64 195.504 370.64C195.666 370.64 195.806 370.611 195.924 370.553C196.041 370.496 196.131 370.41 196.193 370.297C196.257 370.184 196.289 370.048 196.289 369.887C196.289 369.706 196.253 369.559 196.183 369.446C196.113 369.333 196.012 369.249 195.882 369.196C195.752 369.14 195.598 369.113 195.421 369.113H194.96Z" fill="white"/>
<path d="M117.742 371.293L118.671 367.678H119.157L119.103 368.61L118.11 372.34H117.604L117.742 371.293ZM117.047 367.678L117.8 371.264L117.867 372.34H117.329L116.25 367.678H117.047ZM120.211 371.254L120.953 367.678H121.754L120.675 372.34H120.137L120.211 371.254ZM119.346 367.678L120.265 371.302L120.399 372.34H119.894L118.917 368.61L118.866 367.678H119.346ZM123.697 372.404C123.441 372.404 123.209 372.362 123.002 372.279C122.797 372.193 122.622 372.075 122.477 371.923C122.334 371.772 122.224 371.594 122.148 371.389C122.071 371.184 122.032 370.963 122.032 370.726V370.598C122.032 370.327 122.072 370.081 122.151 369.862C122.23 369.642 122.34 369.454 122.481 369.298C122.621 369.14 122.788 369.019 122.98 368.936C123.172 368.853 123.38 368.811 123.604 368.811C123.852 368.811 124.069 368.853 124.254 368.936C124.44 369.019 124.594 369.137 124.715 369.288C124.839 369.438 124.931 369.616 124.991 369.823C125.053 370.03 125.083 370.259 125.083 370.508V370.838H122.407V370.284H124.321V370.223C124.317 370.085 124.289 369.954 124.238 369.833C124.189 369.711 124.113 369.613 124.011 369.538C123.908 369.463 123.772 369.426 123.601 369.426C123.473 369.426 123.359 369.454 123.259 369.509C123.16 369.563 123.078 369.641 123.012 369.743C122.946 369.846 122.895 369.969 122.858 370.114C122.824 370.257 122.807 370.419 122.807 370.598V370.726C122.807 370.878 122.827 371.018 122.868 371.149C122.911 371.277 122.973 371.389 123.054 371.485C123.135 371.581 123.233 371.657 123.348 371.712C123.463 371.765 123.595 371.792 123.742 371.792C123.928 371.792 124.093 371.755 124.238 371.68C124.383 371.605 124.509 371.5 124.616 371.363L125.023 371.757C124.948 371.866 124.851 371.97 124.731 372.071C124.612 372.169 124.466 372.249 124.293 372.311C124.122 372.373 123.923 372.404 123.697 372.404ZM127.213 372.404C126.956 372.404 126.725 372.362 126.518 372.279C126.313 372.193 126.138 372.075 125.993 371.923C125.85 371.772 125.74 371.594 125.663 371.389C125.586 371.184 125.548 370.963 125.548 370.726V370.598C125.548 370.327 125.587 370.081 125.666 369.862C125.745 369.642 125.855 369.454 125.996 369.298C126.137 369.14 126.303 369.019 126.495 368.936C126.687 368.853 126.896 368.811 127.12 368.811C127.367 368.811 127.584 368.853 127.77 368.936C127.955 369.019 128.109 369.137 128.231 369.288C128.354 369.438 128.446 369.616 128.506 369.823C128.568 370.03 128.599 370.259 128.599 370.508V370.838H125.922V370.284H127.837V370.223C127.833 370.085 127.805 369.954 127.754 369.833C127.705 369.711 127.629 369.613 127.526 369.538C127.424 369.463 127.287 369.426 127.117 369.426C126.988 369.426 126.874 369.454 126.774 369.509C126.676 369.563 126.594 369.641 126.527 369.743C126.461 369.846 126.41 369.969 126.374 370.114C126.34 370.257 126.323 370.419 126.323 370.598V370.726C126.323 370.878 126.343 371.018 126.383 371.149C126.426 371.277 126.488 371.389 126.569 371.485C126.65 371.581 126.748 371.657 126.864 371.712C126.979 371.765 127.11 371.792 127.257 371.792C127.443 371.792 127.609 371.755 127.754 371.68C127.899 371.605 128.025 371.5 128.131 371.363L128.538 371.757C128.463 371.866 128.366 371.97 128.247 372.071C128.127 372.169 127.981 372.249 127.808 372.311C127.637 372.373 127.439 372.404 127.213 372.404ZM129.979 367.422V372.34H129.204V367.422H129.979ZM132.13 368.875L130.622 370.547L129.796 371.392L129.595 370.739L130.219 369.967L131.199 368.875H132.13ZM131.365 372.34L130.241 370.713L130.728 370.172L132.258 372.34H131.365ZM137.333 371.725V372.34H134.208V371.811L135.726 370.156C135.892 369.968 136.024 369.806 136.12 369.669C136.216 369.533 136.283 369.41 136.321 369.301C136.362 369.19 136.382 369.082 136.382 368.978C136.382 368.831 136.354 368.701 136.299 368.59C136.246 368.477 136.167 368.389 136.062 368.325C135.957 368.259 135.83 368.225 135.681 368.225C135.508 368.225 135.363 368.263 135.246 368.338C135.128 368.412 135.04 368.516 134.98 368.648C134.92 368.778 134.89 368.928 134.89 369.096H134.119C134.119 368.825 134.18 368.578 134.304 368.354C134.428 368.127 134.607 367.948 134.842 367.816C135.077 367.681 135.36 367.614 135.691 367.614C136.002 367.614 136.267 367.666 136.485 367.771C136.702 367.875 136.868 368.024 136.981 368.216C137.096 368.408 137.154 368.635 137.154 368.898C137.154 369.043 137.13 369.187 137.083 369.33C137.036 369.473 136.969 369.616 136.882 369.759C136.796 369.9 136.695 370.042 136.577 370.185C136.46 370.326 136.331 370.469 136.19 370.614L135.182 371.725H137.333Z" fill="white"/>
<path d="M55.4471 371.221L56.3756 367.606H56.8623L56.8078 368.538L55.8153 372.268H55.3095L55.4471 371.221ZM54.7524 367.606L55.5048 371.192L55.572 372.268H55.0341L53.9552 367.606H54.7524ZM57.9156 371.182L58.6584 367.606H59.4588L58.3799 372.268H57.842L57.9156 371.182ZM57.0512 367.606L57.97 371.23L58.1045 372.268H57.5987L56.6221 368.538L56.5709 367.606H57.0512ZM61.4022 372.332C61.1461 372.332 60.9145 372.29 60.7075 372.207C60.5026 372.121 60.3275 372.003 60.1824 371.851C60.0394 371.7 59.9295 371.522 59.8526 371.317C59.7758 371.112 59.7374 370.891 59.7374 370.654V370.526C59.7374 370.255 59.7769 370.009 59.8558 369.789C59.9348 369.57 60.0447 369.382 60.1856 369.226C60.3265 369.068 60.493 368.947 60.6851 368.864C60.8772 368.781 61.0853 368.739 61.3094 368.739C61.557 368.739 61.7736 368.781 61.9593 368.864C62.145 368.947 62.2987 369.065 62.4204 369.216C62.5442 369.366 62.6359 369.544 62.6957 369.751C62.7576 369.958 62.7885 370.186 62.7885 370.436V370.766H60.112V370.212H62.0266V370.151C62.0223 370.013 61.9945 369.882 61.9433 369.761C61.8942 369.639 61.8184 369.541 61.716 369.466C61.6135 369.391 61.4769 369.354 61.3062 369.354C61.1781 369.354 61.0639 369.382 60.9636 369.437C60.8654 369.491 60.7832 369.569 60.7171 369.671C60.6509 369.773 60.5997 369.897 60.5634 370.042C60.5292 370.185 60.5122 370.347 60.5122 370.526V370.654C60.5122 370.805 60.5324 370.946 60.573 371.077C60.6157 371.205 60.6776 371.317 60.7587 371.413C60.8398 371.509 60.938 371.585 61.0532 371.64C61.1685 371.693 61.2998 371.72 61.4471 371.72C61.6327 371.72 61.7982 371.683 61.9433 371.608C62.0884 371.533 62.2144 371.428 62.3211 371.291L62.7277 371.685C62.653 371.794 62.5559 371.898 62.4364 371.999C62.3168 372.097 62.1706 372.177 61.9977 372.239C61.827 372.301 61.6285 372.332 61.4022 372.332ZM64.9176 372.332C64.6615 372.332 64.4299 372.29 64.2229 372.207C64.018 372.121 63.843 372.003 63.6978 371.851C63.5548 371.7 63.4449 371.522 63.368 371.317C63.2912 371.112 63.2528 370.891 63.2528 370.654V370.526C63.2528 370.255 63.2923 370.009 63.3712 369.789C63.4502 369.57 63.5601 369.382 63.701 369.226C63.8419 369.068 64.0084 368.947 64.2005 368.864C64.3926 368.781 64.6007 368.739 64.8248 368.739C65.0724 368.739 65.289 368.781 65.4747 368.864C65.6604 368.947 65.8141 369.065 65.9358 369.216C66.0596 369.366 66.1514 369.544 66.2111 369.751C66.273 369.958 66.304 370.186 66.304 370.436V370.766H63.6274V370.212H65.542V370.151C65.5377 370.013 65.51 369.882 65.4587 369.761C65.4096 369.639 65.3339 369.541 65.2314 369.466C65.129 369.391 64.9924 369.354 64.8216 369.354C64.6935 369.354 64.5793 369.382 64.479 369.437C64.3808 369.491 64.2987 369.569 64.2325 369.671C64.1663 369.773 64.1151 369.897 64.0788 370.042C64.0447 370.185 64.0276 370.347 64.0276 370.526V370.654C64.0276 370.805 64.0479 370.946 64.0884 371.077C64.1311 371.205 64.193 371.317 64.2741 371.413C64.3552 371.509 64.4534 371.585 64.5687 371.64C64.6839 371.693 64.8152 371.72 64.9625 371.72C65.1482 371.72 65.3136 371.683 65.4587 371.608C65.6039 371.533 65.7298 371.428 65.8365 371.291L66.2431 371.685C66.1684 371.794 66.0713 371.898 65.9518 371.999C65.8323 372.097 65.686 372.177 65.5132 372.239C65.3424 372.301 65.1439 372.332 64.9176 372.332ZM67.6839 367.35V372.268H66.9091V367.35H67.6839ZM69.8354 368.803L68.3274 370.475L67.5014 371.32L67.2997 370.667L67.924 369.895L68.9037 368.803H69.8354ZM69.0702 372.268L67.9464 370.641L68.4331 370.1L69.9635 372.268H69.0702ZM74.02 367.59V372.268H73.2484V368.506L72.1054 368.893V368.256L73.9271 367.59H74.02Z" fill="white"/>
<path d="M33.7891 352.781H293.472" stroke="#DFF9F2" stroke-miterlimit="10" stroke-dasharray="4 4"/>
<path d="M33.7891 329.367H293.472" stroke="#DFF9F2" stroke-miterlimit="10" stroke-dasharray="4 4"/>
<path d="M33.7891 305.953H293.472" stroke="#DFF9F2" stroke-miterlimit="10" stroke-dasharray="4 4"/>
<path d="M33.7891 282.531H293.472" stroke="#DFF9F2" stroke-miterlimit="10" stroke-dasharray="4 4"/>
<path d="M33.7891 259.117H293.472" stroke="#DFF9F2" stroke-miterlimit="10" stroke-dasharray="4 4"/>
<path d="M25.3906 351.613V352.375C25.3906 352.74 25.3543 353.051 25.2817 353.309C25.2113 353.566 25.1088 353.774 24.9743 353.934C24.8399 354.094 24.6787 354.211 24.4909 354.286C24.3052 354.361 24.0971 354.398 23.8666 354.398C23.683 354.398 23.5123 354.375 23.3543 354.328C23.1985 354.281 23.0576 354.207 22.9317 354.107C22.8058 354.006 22.698 353.877 22.6083 353.719C22.5208 353.559 22.4525 353.368 22.4034 353.146C22.3565 352.924 22.333 352.667 22.333 352.375V351.613C22.333 351.245 22.3693 350.936 22.4418 350.684C22.5144 350.43 22.6179 350.224 22.7524 350.066C22.8869 349.906 23.0469 349.79 23.2326 349.717C23.4205 349.645 23.6296 349.608 23.8602 349.608C24.0459 349.608 24.2166 349.632 24.3724 349.679C24.5304 349.724 24.6713 349.795 24.795 349.893C24.921 349.991 25.0277 350.12 25.1152 350.277C25.2049 350.433 25.2732 350.622 25.3201 350.844C25.3671 351.064 25.3906 351.32 25.3906 351.613ZM24.619 352.483V351.497C24.619 351.312 24.6083 351.148 24.5869 351.007C24.5656 350.864 24.5336 350.744 24.4909 350.646C24.4503 350.545 24.3991 350.464 24.3372 350.402C24.2753 350.338 24.2049 350.292 24.1259 350.265C24.0469 350.235 23.9583 350.22 23.8602 350.22C23.7406 350.22 23.6339 350.243 23.54 350.29C23.4461 350.335 23.3671 350.408 23.3031 350.508C23.239 350.608 23.19 350.741 23.1558 350.905C23.1238 351.067 23.1078 351.265 23.1078 351.497V352.483C23.1078 352.671 23.1184 352.837 23.1398 352.98C23.1611 353.123 23.1932 353.245 23.2358 353.348C23.2785 353.448 23.3298 353.531 23.3895 353.598C23.4514 353.662 23.5219 353.709 23.6008 353.738C23.6819 353.768 23.7705 353.783 23.8666 353.783C23.9882 353.783 24.096 353.76 24.1899 353.713C24.2839 353.666 24.3628 353.591 24.4269 353.489C24.4909 353.384 24.5389 353.249 24.5709 353.082C24.6029 352.916 24.619 352.716 24.619 352.483ZM27.0042 349.672V354.334H26.2006V349.672H27.0042ZM29.8056 349.672L27.9167 351.917L26.8409 353.057L26.7 352.259L27.4684 351.312L28.8259 349.672H29.8056ZM28.9412 354.334L27.4076 352.125L27.9615 351.577L29.8953 354.334H28.9412Z" fill="white"/>
<path d="M22.3906 328.195V328.957C22.3906 329.322 22.3543 329.633 22.2817 329.891C22.2113 330.148 22.1088 330.356 21.9743 330.516C21.8399 330.676 21.6787 330.793 21.4909 330.868C21.3052 330.943 21.0971 330.98 20.8666 330.98C20.683 330.98 20.5123 330.957 20.3543 330.91C20.1985 330.863 20.0576 330.789 19.9317 330.689C19.8058 330.588 19.698 330.459 19.6083 330.301C19.5208 330.141 19.4525 329.95 19.4034 329.728C19.3565 329.506 19.333 329.249 19.333 328.957V328.195C19.333 327.827 19.3693 327.518 19.4418 327.266C19.5144 327.012 19.6179 326.806 19.7524 326.648C19.8869 326.488 20.0469 326.372 20.2326 326.299C20.4205 326.227 20.6296 326.19 20.8602 326.19C21.0459 326.19 21.2166 326.214 21.3724 326.261C21.5304 326.306 21.6713 326.377 21.795 326.475C21.921 326.573 22.0277 326.702 22.1152 326.86C22.2049 327.015 22.2732 327.204 22.3201 327.426C22.3671 327.646 22.3906 327.902 22.3906 328.195ZM21.619 329.065V328.079C21.619 327.894 21.6083 327.73 21.5869 327.589C21.5656 327.446 21.5336 327.326 21.4909 327.228C21.4503 327.127 21.3991 327.046 21.3372 326.984C21.2753 326.92 21.2049 326.874 21.1259 326.847C21.0469 326.817 20.9583 326.802 20.8602 326.802C20.7406 326.802 20.6339 326.825 20.54 326.872C20.4461 326.917 20.3671 326.99 20.3031 327.09C20.239 327.19 20.19 327.323 20.1558 327.487C20.1238 327.649 20.1078 327.847 20.1078 328.079V329.065C20.1078 329.253 20.1184 329.419 20.1398 329.562C20.1611 329.705 20.1932 329.827 20.2358 329.93C20.2785 330.03 20.3298 330.113 20.3895 330.18C20.4514 330.244 20.5219 330.291 20.6008 330.321C20.6819 330.35 20.7705 330.365 20.8666 330.365C20.9882 330.365 21.096 330.342 21.1899 330.295C21.2839 330.248 21.3628 330.173 21.4269 330.071C21.4909 329.966 21.5389 329.831 21.5709 329.664C21.6029 329.498 21.619 329.298 21.619 329.065ZM23.1558 330.532C23.1558 330.412 23.1963 330.312 23.2774 330.231C23.3585 330.148 23.4685 330.106 23.6072 330.106C23.7481 330.106 23.858 330.148 23.937 330.231C24.0181 330.312 24.0586 330.412 24.0586 330.532C24.0586 330.651 24.0181 330.752 23.937 330.833C23.858 330.914 23.7481 330.954 23.6072 330.954C23.4685 330.954 23.3585 330.914 23.2774 330.833C23.1963 330.752 23.1558 330.651 23.1558 330.532ZM25.7139 328.748L25.0992 328.598L25.3521 326.254H27.8654V326.908H25.9924L25.8644 328.051C25.9369 328.008 26.0372 327.966 26.1653 327.926C26.2934 327.883 26.4396 327.862 26.6039 327.862C26.8238 327.862 27.0202 327.898 27.193 327.97C27.3681 328.041 27.5164 328.144 27.6381 328.281C27.7597 328.416 27.8526 328.58 27.9166 328.774C27.9807 328.966 28.0127 329.183 28.0127 329.424C28.0127 329.64 27.9807 329.841 27.9166 330.029C27.8547 330.217 27.7608 330.382 27.6349 330.525C27.5089 330.668 27.3499 330.78 27.1578 330.862C26.9679 330.941 26.7427 330.98 26.4823 330.98C26.288 330.98 26.1013 330.952 25.922 330.897C25.7448 330.839 25.5858 330.755 25.4449 330.644C25.3041 330.531 25.1909 330.392 25.1056 330.228C25.0202 330.061 24.9711 329.87 24.9583 329.655H25.7139C25.7331 329.806 25.7747 329.935 25.8387 330.042C25.9049 330.147 25.9924 330.227 26.1013 330.282C26.2101 330.338 26.3361 330.365 26.4791 330.365C26.6093 330.365 26.7213 330.343 26.8153 330.298C26.9092 330.251 26.9871 330.185 27.049 330.1C27.113 330.012 27.16 329.91 27.1898 329.792C27.2219 329.675 27.2379 329.545 27.2379 329.402C27.2379 329.265 27.2197 329.14 27.1834 329.027C27.1493 328.914 27.097 328.816 27.0266 328.732C26.9583 328.649 26.8718 328.585 26.7672 328.54C26.6626 328.493 26.542 328.47 26.4054 328.47C26.2219 328.47 26.081 328.497 25.9828 328.55C25.8868 328.603 25.7971 328.67 25.7139 328.748ZM29.5559 326.254V330.916H28.7523V326.254H29.5559ZM32.3573 326.254L30.4683 328.499L29.3926 329.639L29.2517 328.841L30.0201 327.894L31.3776 326.254H32.3573ZM31.4929 330.916L29.9593 328.707L30.5132 328.159L32.447 330.916H31.4929Z" fill="white"/>
<path d="M24.4589 302.821V307.499H23.6873V303.737L22.5443 304.124V303.487L24.366 302.821H24.4589ZM27.0042 302.837V307.499H26.2006V302.837H27.0042ZM29.8056 302.837L27.9167 305.082L26.8409 306.222L26.7 305.424L27.4684 304.477L28.8259 302.837H29.8056ZM28.9412 307.499L27.4076 305.29L27.9615 304.742L29.8953 307.499H28.9412Z" fill="white"/>
<path d="M21.4589 279.403V284.081H20.6873V280.319L19.5443 280.707V280.069L21.366 279.403H21.4589ZM23.1558 283.697C23.1558 283.577 23.1963 283.477 23.2774 283.396C23.3585 283.313 23.4685 283.271 23.6072 283.271C23.7481 283.271 23.858 283.313 23.937 283.396C24.0181 283.477 24.0586 283.577 24.0586 283.697C24.0586 283.816 24.0181 283.917 23.937 283.998C23.858 284.079 23.7481 284.119 23.6072 284.119C23.4685 284.119 23.3585 284.079 23.2774 283.998C23.1963 283.917 23.1558 283.816 23.1558 283.697ZM25.7139 281.914L25.0992 281.763L25.3521 279.419H27.8654V280.073H25.9924L25.8644 281.216C25.9369 281.173 26.0372 281.131 26.1653 281.091C26.2934 281.048 26.4396 281.027 26.6039 281.027C26.8238 281.027 27.0202 281.063 27.193 281.136C27.3681 281.206 27.5164 281.309 27.6381 281.446C27.7597 281.581 27.8526 281.745 27.9166 281.939C27.9807 282.131 28.0127 282.348 28.0127 282.589C28.0127 282.805 27.9807 283.006 27.9166 283.194C27.8547 283.382 27.7608 283.547 27.6349 283.69C27.5089 283.833 27.3499 283.946 27.1578 284.027C26.9679 284.106 26.7427 284.145 26.4823 284.145C26.288 284.145 26.1013 284.117 25.922 284.062C25.7448 284.004 25.5858 283.92 25.4449 283.809C25.3041 283.696 25.1909 283.557 25.1056 283.393C25.0202 283.226 24.9711 283.035 24.9583 282.82H25.7139C25.7331 282.971 25.7747 283.1 25.8387 283.207C25.9049 283.312 25.9924 283.392 26.1013 283.447C26.2101 283.503 26.3361 283.53 26.4791 283.53C26.6093 283.53 26.7213 283.508 26.8153 283.463C26.9092 283.416 26.9871 283.35 27.049 283.265C27.113 283.177 27.16 283.075 27.1898 282.957C27.2219 282.84 27.2379 282.71 27.2379 282.567C27.2379 282.43 27.2197 282.305 27.1834 282.192C27.1493 282.079 27.097 281.981 27.0266 281.898C26.9583 281.814 26.8718 281.75 26.7672 281.705C26.6626 281.658 26.542 281.635 26.4054 281.635C26.2219 281.635 26.081 281.662 25.9828 281.715C25.8868 281.768 25.7971 281.835 25.7139 281.914ZM29.5559 279.419V284.081H28.7523V279.419H29.5559ZM32.3573 279.419L30.4683 281.664L29.3926 282.804L29.2517 282.006L30.0201 281.059L31.3776 279.419H32.3573ZM31.4929 284.081L29.9593 281.872L30.5132 281.324L32.447 284.081H31.4929Z" fill="white"/>
<path d="M25.477 260.049V260.664H22.3522V260.136L23.8698 258.481C24.0363 258.293 24.1675 258.13 24.2636 257.994C24.3596 257.857 24.4269 257.735 24.4653 257.626C24.5058 257.515 24.5261 257.407 24.5261 257.302C24.5261 257.155 24.4984 257.026 24.4429 256.915C24.3895 256.802 24.3105 256.713 24.2059 256.649C24.1014 256.583 23.9744 256.55 23.8249 256.55C23.6521 256.55 23.5069 256.587 23.3895 256.662C23.2721 256.737 23.1835 256.84 23.1238 256.973C23.064 257.103 23.0341 257.252 23.0341 257.421H22.2625C22.2625 257.15 22.3244 256.902 22.4482 256.678C22.572 256.452 22.7513 256.272 22.9861 256.14C23.2209 256.006 23.5037 255.938 23.8346 255.938C24.1462 255.938 24.4109 255.991 24.6286 256.095C24.8463 256.2 25.0117 256.348 25.1248 256.54C25.2401 256.732 25.2977 256.96 25.2977 257.222C25.2977 257.367 25.2742 257.511 25.2273 257.655C25.1803 257.798 25.1131 257.941 25.0256 258.084C24.9402 258.224 24.8388 258.366 24.7214 258.509C24.604 258.65 24.4749 258.793 24.334 258.938L23.3255 260.049H25.477ZM27.0042 256.002V260.664H26.2006V256.002H27.0042ZM29.8056 256.002L27.9167 258.247L26.8409 259.387L26.7 258.589L27.4684 257.642L28.8259 256.002H29.8056ZM28.9412 260.664L27.4076 258.455L27.9615 257.907L29.8953 260.664H28.9412Z" fill="white"/>
<path d="M258.789 229L255.789 232.5L258.789 236" stroke="#D6D6D6" stroke-linecap="round"/>
<defs>
<filter id="filter0_d_42_1586" x="0" y="197" width="305" height="202" filterUnits="userSpaceOnUse" color-interpolation-filters="sRGB">
<feFlood flood-opacity="0" result="BackgroundImageFix"/>
<feColorMatrix in="SourceAlpha" type="matrix" values="0 0 0 0 0 0 0 0 0 0 0 0 0 0 0 0 0 0 127 0" result="hardAlpha"/>
<feOffset dy="4"/>
<feGaussianBlur stdDeviation="2"/>
<feComposite in2="hardAlpha" operator="out"/>
<feColorMatrix type="matrix" values="0 0 0 0 0 0 0 0 0 0 0 0 0 0 0 0 0 0 0.5 0"/>
<feBlend mode="normal" in2="BackgroundImageFix" result="effect1_dropShadow_42_1586"/>
<feBlend mode="normal" in="SourceGraphic" in2="effect1_dropShadow_42_1586" result="shape"/>
</filter>
<linearGradient id="paint0_linear_42_1586" x1="301" y1="318.791" x2="495.013" y2="316.259" gradientUnits="userSpaceOnUse">
<stop stop-color="#00FFE8"/>
<stop offset="1" stop-color="#00FFE8" stop-opacity="0"/>
</linearGradient>
<linearGradient id="paint1_linear_42_1586" x1="160.789" y1="276.5" x2="161.039" y2="353" gradientUnits="userSpaceOnUse">
<stop stop-color="#79D2DE" stop-opacity="0.67"/>
<stop offset="1" stop-color="#79D2DE" stop-opacity="0"/>
</linearGradient>
</defs>
</svg>
