<svg width="581" height="442" viewBox="0 0 581 442" fill="none" xmlns="http://www.w3.org/2000/svg">
<g filter="url(#filter0_d_42_1537)">
<path d="M118.821 247.23C102.246 269.1 40.3393 309.131 11.458 326.413C46.869 361.103 81.4639 377.316 94.3349 381.087C125.979 359.217 156.493 297.191 167.794 268.911C157.246 271.174 130.75 255.4 118.821 247.23Z" stroke="#00FFE8" stroke-opacity="0.65" stroke-width="0.5" stroke-linecap="round" shape-rendering="crispEdges"/>
</g>
<g filter="url(#filter1_d_42_1537)">
<path d="M121.12 241.108C103.244 264.647 36.4825 307.734 5.33594 326.335C43.5243 363.673 80.8325 381.124 94.713 385.183C128.839 361.644 161.746 294.883 173.934 264.444C162.558 266.879 133.985 249.902 121.12 241.108Z" stroke="#00FFE8" stroke-opacity="0.65" stroke-linecap="round" shape-rendering="crispEdges"/>
</g>
<g filter="url(#filter2_d_42_1537)">
<path d="M126.879 334.226C123.103 339.317 116.6 341.677 109.096 341.334C101.593 340.992 93.1174 337.946 85.4581 332.266C77.7989 326.585 72.4238 319.359 69.9176 312.279C67.4108 305.197 67.7812 298.289 71.5574 293.198C75.3337 288.106 81.836 285.746 89.3408 286.089C96.8438 286.432 105.319 289.477 112.978 295.158C120.638 300.838 126.013 308.064 128.519 315.144C131.026 322.226 130.655 329.134 126.879 334.226Z" stroke="#00FFE7" stroke-opacity="0.65" stroke-width="0.5" shape-rendering="crispEdges"/>
</g>
<path d="M224.257 11.1965L189.389 19.466C153.339 89.1659 181.94 161.214 195.641 188.99L275.081 161.229C228.393 117.518 213.028 54.9066 224.257 11.1965Z" stroke="#00FFE8" stroke-opacity="0.8" stroke-linecap="round"/>
<path d="M234.516 2L186.315 12.3811C147.753 86.2944 175.068 166.367 193.545 197.164L286.333 164.983C216.923 96.0527 222.868 27.6067 234.516 2Z" stroke="#00FFE8" stroke-opacity="0.8" stroke-width="2.5" stroke-linecap="round"/>
<path d="M227.927 104.333C230.497 115.284 221.468 126.953 207.471 130.237C193.474 133.522 180.198 127.087 177.628 116.136C175.058 105.185 184.086 93.5161 198.084 90.2316C212.081 86.9471 225.357 93.3818 227.927 104.333Z" stroke="#00FFE7" stroke-opacity="0.8"/>
<path d="M131.889 117.957C132.429 118.912 132.406 120.344 131.504 122.33C130.614 124.292 128.948 126.595 126.588 129.091C121.879 134.075 114.568 139.661 105.767 144.637C96.9664 149.612 88.4105 152.996 81.7118 154.462C78.3562 155.196 75.5241 155.436 73.3838 155.188C71.217 154.936 69.979 154.218 69.4388 153.262C68.8986 152.306 68.9211 150.875 69.823 148.889C70.7138 146.927 72.3797 144.624 74.7389 142.128C79.4486 137.144 86.7594 131.557 95.5602 126.582C104.361 121.607 112.917 118.223 119.616 116.757C122.971 116.023 125.803 115.783 127.944 116.031C130.11 116.283 131.348 117.001 131.889 117.957Z" stroke="#00FFE7" stroke-opacity="0.8" stroke-width="2"/>
<path d="M69.8805 153.479L74.8838 160.583C77.9742 166.049 94.8491 162.357 112.575 152.336C130.301 142.315 141.072 131.113 137.981 125.647L131.467 117.357" stroke="#00FFE7" stroke-opacity="0.8" stroke-width="2"/>
<path d="M175.448 225.087C175.414 225.121 175.296 225.207 174.942 225.193C174.589 225.179 174.101 225.068 173.471 224.827C172.216 224.349 170.565 223.423 168.624 222.1C164.751 219.46 159.845 215.324 154.836 210.314C149.826 205.305 145.69 200.399 143.05 196.526C141.727 194.585 140.801 192.934 140.323 191.679C140.082 191.049 139.971 190.561 139.957 190.208C139.943 189.854 140.029 189.736 140.063 189.702C140.097 189.668 140.216 189.582 140.569 189.596C140.922 189.609 141.411 189.721 142.041 189.961C143.296 190.44 144.946 191.365 146.888 192.689C150.761 195.328 155.666 199.465 160.676 204.474C165.685 209.483 169.822 214.389 172.461 218.262C173.785 220.204 174.71 221.854 175.189 223.109C175.429 223.739 175.541 224.228 175.554 224.581C175.568 224.934 175.482 225.052 175.448 225.087Z" stroke="#00FFE7" stroke-opacity="0.65" stroke-width="1.5"/>
<path d="M175.886 225.135L171.328 230.195C169.772 231.752 160.351 224.855 150.287 214.79C140.223 204.726 133.326 195.306 134.883 193.75L140.355 189.605" stroke="#00FFE7" stroke-opacity="0.65" stroke-width="1.5"/>
<g filter="url(#filter3_d_42_1537)">
<circle cx="231.671" cy="305.988" r="32.7086" stroke="#00FFE7" stroke-opacity="0.65" shape-rendering="crispEdges"/>
</g>
<path d="M281.95 397.58C282.013 397.686 282.05 397.88 281.941 398.228C281.831 398.575 281.594 399.013 281.21 399.535C280.444 400.578 279.169 401.863 277.465 403.307C274.063 406.191 269.028 409.645 263.166 412.977C257.304 416.31 251.749 418.877 247.512 420.336C245.389 421.068 243.622 421.512 242.322 421.644C241.671 421.71 241.167 421.694 240.807 421.614C240.446 421.533 240.295 421.404 240.232 421.297C240.17 421.19 240.132 420.997 240.241 420.649C240.351 420.301 240.588 419.864 240.972 419.341C241.738 418.299 243.013 417.014 244.717 415.569C248.119 412.686 253.155 409.232 259.016 405.899C264.878 402.567 270.433 400 274.67 398.54C276.793 397.809 278.56 397.365 279.86 397.233C280.511 397.167 281.015 397.183 281.375 397.263C281.736 397.344 281.887 397.473 281.95 397.58Z" stroke="#007F88"/>
<path d="M282.358 397.779L285.46 402.672C286.51 404.462 277.828 411.334 266.068 418.02C254.308 424.706 243.923 428.674 242.873 426.883L240.465 421.895" stroke="#01747C"/>
<line y1="-0.1" x2="2.92496" y2="-0.1" transform="matrix(-0.432282 -0.901739 0.906814 -0.421531 246.73 424.866)" stroke="#00FFE7" stroke-opacity="0.22" stroke-width="0.2"/>
<line y1="-0.1" x2="2.92496" y2="-0.1" transform="matrix(-0.432282 -0.901739 0.906814 -0.421531 250.585 423.569)" stroke="#00FFE7" stroke-opacity="0.22" stroke-width="0.2"/>
<line y1="-0.1" x2="2.92496" y2="-0.1" transform="matrix(-0.432282 -0.901739 0.906814 -0.421531 254.285 422.562)" stroke="#00FFE7" stroke-opacity="0.22" stroke-width="0.2"/>
<line y1="-0.1" x2="2.92496" y2="-0.1" transform="matrix(-0.432282 -0.901739 0.906814 -0.421531 279.498 407.026)" stroke="#00FFE7" stroke-opacity="0.22" stroke-width="0.2"/>
<line y1="-0.1" x2="2.92496" y2="-0.1" transform="matrix(-0.432282 -0.901739 0.906814 -0.421531 282.546 404.378)" stroke="#00FFE7" stroke-opacity="0.22" stroke-width="0.2"/>
<g filter="url(#filter4_d_42_1537)">
<path d="M259.518 305.474C259.518 320.568 247.053 332.813 231.668 332.813C216.283 332.813 203.818 320.568 203.818 305.474C203.818 290.38 216.283 278.135 231.668 278.135C247.053 278.135 259.518 290.38 259.518 305.474Z" stroke="#00FFE7" stroke-opacity="0.65" stroke-width="0.5" shape-rendering="crispEdges"/>
</g>
<g filter="url(#filter5_d_42_1537)">
<circle cx="158.09" cy="409.199" r="23.6624" stroke="#00FFE7" stroke-opacity="0.45" stroke-width="0.7" shape-rendering="crispEdges"/>
</g>
<g filter="url(#filter6_d_42_1537)">
<circle cx="158.093" cy="409.184" r="19.5752" stroke="#00FFE7" stroke-opacity="0.45" stroke-width="0.7" shape-rendering="crispEdges"/>
</g>
<path d="M241.37 216.432C242.883 209.036 248.935 205.955 251.772 205.338C274.468 219.822 319.481 249.714 317.968 253.412C316.455 257.11 311.664 261.732 309.457 263.581L241.37 216.432Z" stroke="#00FFE8" stroke-opacity="0.65" stroke-width="1.5" stroke-linecap="round"/>
<line x1="83.7295" y1="155.734" x2="86.0982" y2="160.472" stroke="#00FFE8" stroke-width="0.5"/>
<line x1="88.4638" y1="154.555" x2="90.8326" y2="159.293" stroke="#00FFE8" stroke-width="0.5"/>
<line x1="131.591" y1="126.523" x2="135.265" y2="130.339" stroke="#00FFE8" stroke-width="0.5"/>
<line x1="128.68" y1="129.634" x2="132.354" y2="133.45" stroke="#00FFE8" stroke-width="0.5"/>
<line x1="93.1982" y1="153.358" x2="95.5669" y2="158.096" stroke="#00FFE8" stroke-width="0.5"/>
<line x1="137.825" y1="196.749" x2="140.193" y2="194.742" stroke="#00FFE8" stroke-width="0.5"/>
<line x1="140.183" y1="200.305" x2="142.552" y2="198.298" stroke="#00FFE8" stroke-width="0.5"/>
<line x1="142.559" y1="203.86" x2="144.928" y2="201.853" stroke="#00FFE8" stroke-width="0.5"/>
<line x1="165.061" y1="225.173" x2="167.43" y2="223.166" stroke="#00FFE8" stroke-width="0.5"/>
<line x1="246.757" y1="215.742" x2="251.494" y2="210.182" stroke="#00FFE8" stroke-width="0.5"/>
<line x1="251.501" y1="219.279" x2="256.239" y2="213.719" stroke="#00FFE8" stroke-width="0.5"/>
<line x1="307.16" y1="258.369" x2="311.898" y2="252.809" stroke="#00FFE8" stroke-width="0.5"/>
<line x1="302.417" y1="254.814" x2="307.155" y2="249.254" stroke="#00FFE8" stroke-width="0.5"/>
<line x1="256.235" y1="222.835" x2="260.973" y2="217.275" stroke="#00FFE8" stroke-width="0.5"/>
<line x1="168.616" y1="227.54" x2="170.984" y2="225.533" stroke="#00FFE8" stroke-width="0.5"/>
<line x1="78.9951" y1="156.913" x2="81.3638" y2="161.651" stroke="#00FFE8" stroke-width="0.5"/>
<g filter="url(#filter7_d_42_1537)">
<rect x="577" y="270.32" width="136" height="314" rx="18" transform="rotate(90 577 270.32)" fill="url(#paint0_linear_42_1537)" fill-opacity="0.2" shape-rendering="crispEdges"/>
</g>
<path d="M282.882 293.078H286.24C286.943 293.078 287.546 293.184 288.049 293.396C288.553 293.607 288.94 293.92 289.211 294.335C289.482 294.75 289.617 295.26 289.617 295.865C289.617 296.343 289.533 296.758 289.363 297.109C289.194 297.46 288.955 297.754 288.646 297.991C288.341 298.228 287.982 298.414 287.567 298.55L287.021 298.829H284.057L284.044 297.452H286.259C286.619 297.452 286.917 297.388 287.154 297.261C287.391 297.134 287.569 296.959 287.688 296.734C287.81 296.51 287.872 296.254 287.872 295.966C287.872 295.657 287.812 295.391 287.694 295.167C287.575 294.938 287.396 294.762 287.154 294.64C286.913 294.517 286.608 294.456 286.24 294.456H284.628V302.32H282.882V293.078ZM288.1 302.32L285.961 298.182L287.808 298.175L289.973 302.231V302.32H288.1ZM294.105 302.447C293.584 302.447 293.117 302.363 292.702 302.193C292.287 302.024 291.934 301.789 291.642 301.489C291.354 301.184 291.132 300.831 290.976 300.429C290.823 300.022 290.747 299.587 290.747 299.121V298.867C290.747 298.338 290.823 297.858 290.976 297.426C291.128 296.99 291.344 296.616 291.623 296.303C291.902 295.99 292.237 295.748 292.626 295.579C293.015 295.41 293.445 295.325 293.915 295.325C294.401 295.325 294.831 295.408 295.203 295.573C295.576 295.734 295.887 295.962 296.136 296.258C296.386 296.555 296.574 296.91 296.701 297.325C296.828 297.735 296.892 298.19 296.892 298.689V299.394H291.509V298.239H295.241V298.112C295.233 297.845 295.182 297.602 295.089 297.382C294.996 297.158 294.852 296.98 294.657 296.849C294.463 296.713 294.211 296.646 293.902 296.646C293.652 296.646 293.434 296.701 293.248 296.811C293.066 296.916 292.914 297.069 292.791 297.268C292.673 297.462 292.584 297.695 292.524 297.966C292.465 298.237 292.436 298.537 292.436 298.867V299.121C292.436 299.409 292.474 299.675 292.55 299.921C292.63 300.166 292.747 300.38 292.899 300.562C293.056 300.74 293.242 300.879 293.458 300.981C293.678 301.078 293.927 301.127 294.207 301.127C294.558 301.127 294.875 301.059 295.159 300.924C295.446 300.784 295.696 300.579 295.908 300.308L296.752 301.184C296.608 301.396 296.413 301.599 296.168 301.793C295.927 301.988 295.635 302.147 295.292 302.27C294.949 302.388 294.554 302.447 294.105 302.447ZM299.685 296.861V302.32H298.009V295.452H299.589L299.685 296.861ZM299.437 298.639H298.923C298.923 298.16 298.98 297.72 299.094 297.318C299.213 296.916 299.386 296.567 299.615 296.271C299.843 295.971 300.125 295.738 300.459 295.573C300.798 295.408 301.189 295.325 301.633 295.325C301.942 295.325 302.226 295.372 302.484 295.465C302.742 295.554 302.964 295.695 303.15 295.89C303.341 296.081 303.487 296.33 303.588 296.639C303.69 296.944 303.741 297.31 303.741 297.737V302.32H302.065V297.909C302.065 297.587 302.018 297.335 301.925 297.153C301.836 296.971 301.707 296.844 301.538 296.772C301.369 296.696 301.166 296.658 300.929 296.658C300.666 296.658 300.44 296.711 300.25 296.817C300.063 296.918 299.909 297.06 299.786 297.242C299.668 297.424 299.579 297.634 299.52 297.871C299.465 298.108 299.437 298.364 299.437 298.639ZM303.614 298.328L302.922 298.455C302.926 298.023 302.985 297.619 303.1 297.242C303.214 296.861 303.381 296.529 303.601 296.246C303.825 295.958 304.103 295.734 304.433 295.573C304.767 295.408 305.152 295.325 305.588 295.325C305.926 295.325 306.231 295.374 306.502 295.471C306.777 295.564 307.012 295.715 307.207 295.922C307.401 296.125 307.549 296.389 307.651 296.715C307.757 297.041 307.81 297.439 307.81 297.909V302.32H306.121V297.902C306.121 297.568 306.075 297.312 305.981 297.134C305.893 296.957 305.764 296.834 305.594 296.766C305.425 296.694 305.226 296.658 304.998 296.658C304.765 296.658 304.562 296.703 304.388 296.792C304.219 296.876 304.075 296.995 303.957 297.147C303.842 297.299 303.756 297.477 303.696 297.68C303.641 297.879 303.614 298.095 303.614 298.328ZM313.097 300.86V297.693C313.097 297.46 313.057 297.259 312.977 297.09C312.896 296.921 312.773 296.789 312.608 296.696C312.443 296.603 312.234 296.557 311.98 296.557C311.756 296.557 311.559 296.595 311.39 296.671C311.225 296.747 311.098 296.855 311.009 296.995C310.92 297.13 310.875 297.287 310.875 297.464H309.193C309.193 297.181 309.261 296.912 309.396 296.658C309.532 296.4 309.724 296.172 309.974 295.973C310.228 295.77 310.531 295.611 310.882 295.497C311.237 295.382 311.635 295.325 312.075 295.325C312.596 295.325 313.059 295.414 313.465 295.592C313.876 295.765 314.197 296.028 314.43 296.379C314.667 296.73 314.786 297.172 314.786 297.706V300.702C314.786 301.044 314.807 301.339 314.849 301.584C314.896 301.825 314.963 302.035 315.052 302.212V302.32H313.345C313.264 302.147 313.203 301.927 313.161 301.66C313.118 301.389 313.097 301.123 313.097 300.86ZM313.332 298.137L313.345 299.134H312.285C312.022 299.134 311.792 299.161 311.593 299.216C311.394 299.267 311.231 299.343 311.104 299.445C310.977 299.542 310.882 299.661 310.818 299.8C310.755 299.936 310.723 300.09 310.723 300.264C310.723 300.433 310.761 300.585 310.837 300.721C310.918 300.856 311.032 300.964 311.18 301.044C311.333 301.121 311.51 301.159 311.713 301.159C312.01 301.159 312.268 301.099 312.488 300.981C312.708 300.858 312.879 300.71 313.002 300.537C313.125 300.363 313.19 300.198 313.199 300.042L313.681 300.765C313.622 300.939 313.533 301.123 313.415 301.317C313.296 301.512 313.144 301.694 312.958 301.863C312.771 302.033 312.547 302.172 312.285 302.282C312.022 302.392 311.718 302.447 311.371 302.447C310.926 302.447 310.528 302.358 310.177 302.181C309.826 302.003 309.549 301.76 309.346 301.451C309.143 301.142 309.041 300.791 309.041 300.397C309.041 300.033 309.109 299.711 309.244 299.432C309.38 299.153 309.581 298.918 309.847 298.728C310.114 298.533 310.444 298.387 310.837 298.29C311.235 298.188 311.69 298.137 312.202 298.137H313.332ZM318.074 295.452V302.32H316.392V295.452H318.074ZM316.277 293.656C316.277 293.406 316.362 293.199 316.531 293.034C316.705 292.869 316.938 292.786 317.229 292.786C317.521 292.786 317.752 292.869 317.921 293.034C318.095 293.199 318.182 293.406 318.182 293.656C318.182 293.901 318.095 294.106 317.921 294.271C317.752 294.437 317.521 294.519 317.229 294.519C316.938 294.519 316.705 294.437 316.531 294.271C316.362 294.106 316.277 293.901 316.277 293.656ZM321.317 296.918V302.32H319.642V295.452H321.216L321.317 296.918ZM321.051 298.639H320.556C320.56 298.139 320.628 297.687 320.759 297.28C320.89 296.874 321.074 296.525 321.311 296.233C321.552 295.941 321.838 295.717 322.168 295.56C322.498 295.403 322.866 295.325 323.272 295.325C323.603 295.325 323.901 295.372 324.167 295.465C324.434 295.558 324.663 295.706 324.853 295.909C325.048 296.112 325.196 296.379 325.297 296.709C325.403 297.035 325.456 297.437 325.456 297.915V302.32H323.768V297.902C323.768 297.589 323.721 297.342 323.628 297.16C323.539 296.978 323.408 296.849 323.234 296.772C323.065 296.696 322.856 296.658 322.606 296.658C322.348 296.658 322.121 296.711 321.927 296.817C321.736 296.918 321.576 297.06 321.444 297.242C321.317 297.424 321.22 297.634 321.152 297.871C321.085 298.108 321.051 298.364 321.051 298.639ZM328.712 295.452V302.32H327.03V295.452H328.712ZM326.916 293.656C326.916 293.406 327.001 293.199 327.17 293.034C327.343 292.869 327.576 292.786 327.868 292.786C328.16 292.786 328.391 292.869 328.56 293.034C328.734 293.199 328.82 293.406 328.82 293.656C328.82 293.901 328.734 294.106 328.56 294.271C328.391 294.437 328.16 294.519 327.868 294.519C327.576 294.519 327.343 294.437 327.17 294.271C327.001 294.106 326.916 293.901 326.916 293.656ZM331.956 296.918V302.32H330.28V295.452H331.854L331.956 296.918ZM331.689 298.639H331.194C331.199 298.139 331.266 297.687 331.397 297.28C331.529 296.874 331.713 296.525 331.95 296.233C332.191 295.941 332.477 295.717 332.807 295.56C333.137 295.403 333.505 295.325 333.911 295.325C334.241 295.325 334.54 295.372 334.806 295.465C335.073 295.558 335.301 295.706 335.492 295.909C335.686 296.112 335.834 296.379 335.936 296.709C336.042 297.035 336.095 297.437 336.095 297.915V302.32H334.406V297.902C334.406 297.589 334.36 297.342 334.267 297.16C334.178 296.978 334.047 296.849 333.873 296.772C333.704 296.696 333.494 296.658 333.245 296.658C332.986 296.658 332.76 296.711 332.565 296.817C332.375 296.918 332.214 297.06 332.083 297.242C331.956 297.424 331.859 297.634 331.791 297.871C331.723 298.108 331.689 298.364 331.689 298.639ZM341.941 295.452H343.464V302.111C343.464 302.733 343.329 303.26 343.058 303.691C342.792 304.127 342.417 304.457 341.935 304.682C341.452 304.91 340.891 305.024 340.252 305.024C339.977 305.024 339.679 304.986 339.357 304.91C339.04 304.834 338.733 304.713 338.437 304.548C338.145 304.388 337.902 304.178 337.707 303.92L338.462 302.93C338.691 303.196 338.949 303.397 339.237 303.533C339.525 303.672 339.836 303.742 340.17 303.742C340.508 303.742 340.796 303.679 341.033 303.552C341.274 303.429 341.458 303.247 341.585 303.006C341.717 302.769 341.782 302.477 341.782 302.13V297.02L341.941 295.452ZM337.301 298.969V298.835C337.301 298.311 337.364 297.835 337.491 297.407C337.618 296.976 337.8 296.605 338.037 296.296C338.278 295.987 338.568 295.748 338.907 295.579C339.25 295.41 339.635 295.325 340.062 295.325C340.515 295.325 340.896 295.408 341.205 295.573C341.518 295.738 341.776 295.973 341.979 296.277C342.186 296.582 342.347 296.944 342.461 297.363C342.58 297.778 342.671 298.235 342.734 298.734V299.096C342.675 299.582 342.58 300.029 342.449 300.435C342.322 300.841 342.153 301.197 341.941 301.501C341.729 301.802 341.467 302.035 341.154 302.2C340.841 302.365 340.472 302.447 340.049 302.447C339.626 302.447 339.245 302.361 338.907 302.187C338.568 302.014 338.278 301.77 338.037 301.457C337.8 301.144 337.618 300.776 337.491 300.353C337.364 299.929 337.301 299.468 337.301 298.969ZM338.977 298.835V298.969C338.977 299.265 339.006 299.542 339.065 299.8C339.125 300.058 339.216 300.287 339.338 300.486C339.461 300.681 339.616 300.833 339.802 300.943C339.988 301.053 340.21 301.108 340.468 301.108C340.815 301.108 341.099 301.036 341.319 300.892C341.543 300.744 341.712 300.543 341.827 300.289C341.945 300.031 342.021 299.741 342.055 299.419V298.423C342.034 298.169 341.987 297.934 341.916 297.718C341.848 297.502 341.753 297.316 341.63 297.16C341.507 297.003 341.351 296.88 341.16 296.792C340.97 296.703 340.743 296.658 340.481 296.658C340.227 296.658 340.005 296.715 339.814 296.83C339.624 296.94 339.467 297.094 339.345 297.293C339.222 297.492 339.129 297.722 339.065 297.985C339.006 298.247 338.977 298.531 338.977 298.835ZM351.881 298.201H349.52L349.507 296.969H351.532C351.879 296.969 352.169 296.921 352.402 296.823C352.635 296.726 352.81 296.584 352.929 296.398C353.051 296.212 353.113 295.985 353.113 295.719C353.113 295.423 353.056 295.181 352.941 294.995C352.831 294.809 352.658 294.674 352.421 294.589C352.184 294.5 351.883 294.456 351.52 294.456H350.085V302.32H348.339V293.078H351.52C352.044 293.078 352.512 293.129 352.922 293.23C353.337 293.328 353.688 293.48 353.976 293.688C354.264 293.895 354.482 294.155 354.63 294.468C354.782 294.781 354.858 295.154 354.858 295.585C354.858 295.966 354.77 296.318 354.592 296.639C354.418 296.957 354.15 297.215 353.786 297.414C353.426 297.612 352.969 297.727 352.415 297.756L351.881 298.201ZM351.805 302.32H349.006L349.736 300.949H351.805C352.152 300.949 352.438 300.892 352.662 300.778C352.891 300.664 353.06 300.507 353.17 300.308C353.284 300.105 353.341 299.872 353.341 299.61C353.341 299.322 353.291 299.072 353.189 298.861C353.092 298.649 352.935 298.486 352.719 298.372C352.508 298.258 352.228 298.201 351.881 298.201H350.066L350.079 296.969H352.389L352.789 297.445C353.322 297.45 353.756 297.555 354.09 297.763C354.429 297.97 354.679 298.237 354.839 298.562C355 298.888 355.081 299.24 355.081 299.616C355.081 300.209 354.951 300.706 354.693 301.108C354.439 301.51 354.067 301.812 353.576 302.016C353.09 302.219 352.499 302.32 351.805 302.32ZM360.248 300.86V297.693C360.248 297.46 360.207 297.259 360.127 297.09C360.047 296.921 359.924 296.789 359.759 296.696C359.594 296.603 359.384 296.557 359.13 296.557C358.906 296.557 358.709 296.595 358.54 296.671C358.375 296.747 358.248 296.855 358.159 296.995C358.07 297.13 358.026 297.287 358.026 297.464H356.344C356.344 297.181 356.411 296.912 356.547 296.658C356.682 296.4 356.875 296.172 357.125 295.973C357.378 295.77 357.681 295.611 358.032 295.497C358.388 295.382 358.785 295.325 359.226 295.325C359.746 295.325 360.209 295.414 360.616 295.592C361.026 295.765 361.348 296.028 361.581 296.379C361.818 296.73 361.936 297.172 361.936 297.706V300.702C361.936 301.044 361.957 301.339 362 301.584C362.046 301.825 362.114 302.035 362.203 302.212V302.32H360.495C360.415 302.147 360.353 301.927 360.311 301.66C360.269 301.389 360.248 301.123 360.248 300.86ZM360.482 298.137L360.495 299.134H359.435C359.173 299.134 358.942 299.161 358.743 299.216C358.544 299.267 358.381 299.343 358.254 299.445C358.127 299.542 358.032 299.661 357.969 299.8C357.905 299.936 357.874 300.09 357.874 300.264C357.874 300.433 357.912 300.585 357.988 300.721C358.068 300.856 358.182 300.964 358.331 301.044C358.483 301.121 358.661 301.159 358.864 301.159C359.16 301.159 359.418 301.099 359.638 300.981C359.858 300.858 360.03 300.71 360.152 300.537C360.275 300.363 360.341 300.198 360.349 300.042L360.832 300.765C360.772 300.939 360.683 301.123 360.565 301.317C360.446 301.512 360.294 301.694 360.108 301.863C359.922 302.033 359.697 302.172 359.435 302.282C359.173 302.392 358.868 302.447 358.521 302.447C358.077 302.447 357.679 302.358 357.328 302.181C356.976 302.003 356.699 301.76 356.496 301.451C356.293 301.142 356.191 300.791 356.191 300.397C356.191 300.033 356.259 299.711 356.395 299.432C356.53 299.153 356.731 298.918 356.998 298.728C357.264 298.533 357.594 298.387 357.988 298.29C358.386 298.188 358.84 298.137 359.353 298.137H360.482ZM365.224 292.57V302.32H363.542V292.57H365.224ZM370.607 300.86V297.693C370.607 297.46 370.567 297.259 370.486 297.09C370.406 296.921 370.283 296.789 370.118 296.696C369.953 296.603 369.744 296.557 369.49 296.557C369.265 296.557 369.069 296.595 368.899 296.671C368.734 296.747 368.607 296.855 368.519 296.995C368.43 297.13 368.385 297.287 368.385 297.464H366.703C366.703 297.181 366.771 296.912 366.906 296.658C367.042 296.4 367.234 296.172 367.484 295.973C367.738 295.77 368.04 295.611 368.392 295.497C368.747 295.382 369.145 295.325 369.585 295.325C370.105 295.325 370.569 295.414 370.975 295.592C371.386 295.765 371.707 296.028 371.94 296.379C372.177 296.73 372.295 297.172 372.295 297.706V300.702C372.295 301.044 372.317 301.339 372.359 301.584C372.405 301.825 372.473 302.035 372.562 302.212V302.32H370.854C370.774 302.147 370.713 301.927 370.67 301.66C370.628 301.389 370.607 301.123 370.607 300.86ZM370.842 298.137L370.854 299.134H369.794C369.532 299.134 369.301 299.161 369.103 299.216C368.904 299.267 368.741 299.343 368.614 299.445C368.487 299.542 368.392 299.661 368.328 299.8C368.265 299.936 368.233 300.09 368.233 300.264C368.233 300.433 368.271 300.585 368.347 300.721C368.428 300.856 368.542 300.964 368.69 301.044C368.842 301.121 369.02 301.159 369.223 301.159C369.519 301.159 369.778 301.099 369.998 300.981C370.218 300.858 370.389 300.71 370.512 300.537C370.634 300.363 370.7 300.198 370.708 300.042L371.191 300.765C371.132 300.939 371.043 301.123 370.924 301.317C370.806 301.512 370.653 301.694 370.467 301.863C370.281 302.033 370.057 302.172 369.794 302.282C369.532 302.392 369.227 302.447 368.88 302.447C368.436 302.447 368.038 302.358 367.687 302.181C367.336 302.003 367.059 301.76 366.855 301.451C366.652 301.142 366.551 300.791 366.551 300.397C366.551 300.033 366.618 299.711 366.754 299.432C366.889 299.153 367.09 298.918 367.357 298.728C367.624 298.533 367.954 298.387 368.347 298.29C368.745 298.188 369.2 298.137 369.712 298.137H370.842ZM375.45 296.918V302.32H373.774V295.452H375.349L375.45 296.918ZM375.184 298.639H374.688C374.693 298.139 374.76 297.687 374.892 297.28C375.023 296.874 375.207 296.525 375.444 296.233C375.685 295.941 375.971 295.717 376.301 295.56C376.631 295.403 376.999 295.325 377.405 295.325C377.735 295.325 378.034 295.372 378.3 295.465C378.567 295.558 378.795 295.706 378.986 295.909C379.181 296.112 379.329 296.379 379.43 296.709C379.536 297.035 379.589 297.437 379.589 297.915V302.32H377.9V297.902C377.9 297.589 377.854 297.342 377.761 297.16C377.672 296.978 377.541 296.849 377.367 296.772C377.198 296.696 376.988 296.658 376.739 296.658C376.481 296.658 376.254 296.711 376.06 296.817C375.869 296.918 375.708 297.06 375.577 297.242C375.45 297.424 375.353 297.634 375.285 297.871C375.217 298.108 375.184 298.364 375.184 298.639ZM383.886 301.127C384.123 301.127 384.335 301.08 384.521 300.987C384.707 300.894 384.855 300.763 384.965 300.594C385.08 300.424 385.141 300.228 385.149 300.003H386.73C386.722 300.469 386.59 300.886 386.336 301.254C386.083 301.622 385.744 301.914 385.321 302.13C384.902 302.341 384.432 302.447 383.912 302.447C383.383 302.447 382.921 302.358 382.528 302.181C382.134 302.003 381.806 301.755 381.544 301.438C381.286 301.121 381.091 300.752 380.96 300.333C380.833 299.915 380.77 299.466 380.77 298.988V298.785C380.77 298.306 380.833 297.858 380.96 297.439C381.091 297.02 381.286 296.652 381.544 296.334C381.806 296.017 382.134 295.77 382.528 295.592C382.921 295.414 383.381 295.325 383.905 295.325C384.46 295.325 384.946 295.433 385.365 295.649C385.788 295.865 386.118 296.169 386.355 296.563C386.597 296.957 386.722 297.42 386.73 297.953H385.149C385.141 297.708 385.086 297.488 384.984 297.293C384.883 297.098 384.739 296.942 384.553 296.823C384.367 296.705 384.14 296.646 383.874 296.646C383.59 296.646 383.353 296.705 383.163 296.823C382.976 296.942 382.83 297.105 382.725 297.312C382.623 297.515 382.551 297.744 382.509 297.998C382.471 298.247 382.452 298.51 382.452 298.785V298.988C382.452 299.267 382.471 299.534 382.509 299.788C382.551 300.042 382.623 300.27 382.725 300.473C382.83 300.672 382.976 300.831 383.163 300.949C383.353 301.068 383.594 301.127 383.886 301.127ZM390.932 302.447C390.412 302.447 389.944 302.363 389.529 302.193C389.115 302.024 388.761 301.789 388.469 301.489C388.181 301.184 387.959 300.831 387.803 300.429C387.65 300.022 387.574 299.587 387.574 299.121V298.867C387.574 298.338 387.65 297.858 387.803 297.426C387.955 296.99 388.171 296.616 388.45 296.303C388.729 295.99 389.064 295.748 389.453 295.579C389.842 295.41 390.272 295.325 390.742 295.325C391.228 295.325 391.658 295.408 392.03 295.573C392.403 295.734 392.714 295.962 392.963 296.258C393.213 296.555 393.401 296.91 393.528 297.325C393.655 297.735 393.719 298.19 393.719 298.689V299.394H388.336V298.239H392.068V298.112C392.06 297.845 392.009 297.602 391.916 297.382C391.823 297.158 391.679 296.98 391.484 296.849C391.29 296.713 391.038 296.646 390.729 296.646C390.479 296.646 390.261 296.701 390.075 296.811C389.893 296.916 389.741 297.069 389.618 297.268C389.5 297.462 389.411 297.695 389.352 297.966C389.292 298.237 389.263 298.537 389.263 298.867V299.121C389.263 299.409 389.301 299.675 389.377 299.921C389.457 300.166 389.574 300.38 389.726 300.562C389.883 300.74 390.069 300.879 390.285 300.981C390.505 301.078 390.754 301.127 391.034 301.127C391.385 301.127 391.702 301.059 391.986 300.924C392.274 300.784 392.523 300.579 392.735 300.308L393.579 301.184C393.435 301.396 393.241 301.599 392.995 301.793C392.754 301.988 392.462 302.147 392.119 302.27C391.776 302.388 391.381 302.447 390.932 302.447Z" fill="white"/>
<path d="M288.367 355.841C288.367 355.612 288.331 355.41 288.259 355.235C288.192 355.055 288.07 354.893 287.895 354.75C287.724 354.606 287.486 354.469 287.181 354.339C286.88 354.208 286.498 354.076 286.036 353.941C285.551 353.797 285.113 353.638 284.722 353.463C284.331 353.283 283.996 353.079 283.718 352.85C283.44 352.621 283.226 352.358 283.078 352.061C282.93 351.765 282.856 351.426 282.856 351.044C282.856 350.662 282.934 350.31 283.091 349.986C283.249 349.663 283.473 349.382 283.765 349.144C284.062 348.902 284.414 348.713 284.823 348.578C285.232 348.443 285.688 348.376 286.191 348.376C286.927 348.376 287.552 348.518 288.064 348.801C288.58 349.079 288.973 349.445 289.243 349.899C289.512 350.348 289.647 350.828 289.647 351.34H288.353C288.353 350.972 288.275 350.647 288.117 350.364C287.96 350.076 287.722 349.852 287.403 349.69C287.084 349.524 286.68 349.441 286.191 349.441C285.728 349.441 285.346 349.51 285.045 349.649C284.744 349.789 284.52 349.977 284.372 350.215C284.228 350.453 284.156 350.725 284.156 351.031C284.156 351.237 284.199 351.426 284.284 351.596C284.374 351.763 284.511 351.918 284.695 352.061C284.884 352.205 285.122 352.338 285.409 352.459C285.701 352.58 286.049 352.697 286.453 352.809C287.01 352.966 287.491 353.142 287.895 353.335C288.299 353.528 288.632 353.746 288.892 353.988C289.157 354.226 289.353 354.498 289.478 354.803C289.609 355.104 289.674 355.446 289.674 355.828C289.674 356.227 289.593 356.589 289.431 356.912C289.27 357.236 289.038 357.512 288.737 357.741C288.436 357.97 288.075 358.147 287.653 358.273C287.235 358.394 286.768 358.455 286.251 358.455C285.798 358.455 285.351 358.392 284.911 358.266C284.475 358.141 284.077 357.952 283.718 357.7C283.363 357.449 283.078 357.139 282.862 356.771C282.651 356.398 282.546 355.967 282.546 355.477H283.839C283.839 355.814 283.904 356.104 284.035 356.346C284.165 356.584 284.342 356.782 284.567 356.939C284.796 357.096 285.054 357.213 285.342 357.29C285.634 357.361 285.937 357.397 286.251 357.397C286.705 357.397 287.089 357.334 287.403 357.209C287.718 357.083 287.956 356.903 288.117 356.67C288.284 356.436 288.367 356.16 288.367 355.841ZM294.168 358.455C293.66 358.455 293.2 358.37 292.786 358.199C292.378 358.024 292.025 357.779 291.729 357.465C291.437 357.15 291.212 356.777 291.055 356.346C290.898 355.915 290.819 355.443 290.819 354.931V354.648C290.819 354.056 290.907 353.528 291.082 353.065C291.257 352.598 291.495 352.203 291.796 351.879C292.097 351.556 292.438 351.311 292.82 351.145C293.202 350.979 293.597 350.896 294.006 350.896C294.527 350.896 294.976 350.986 295.353 351.165C295.735 351.345 296.047 351.596 296.29 351.92C296.532 352.239 296.712 352.616 296.829 353.052C296.946 353.483 297.004 353.955 297.004 354.467V355.026H291.56V354.008H295.758V353.914C295.74 353.591 295.672 353.276 295.555 352.971C295.443 352.665 295.264 352.414 295.016 352.216C294.769 352.019 294.433 351.92 294.006 351.92C293.723 351.92 293.462 351.981 293.224 352.102C292.986 352.219 292.782 352.394 292.611 352.627C292.441 352.861 292.308 353.146 292.214 353.483C292.119 353.82 292.072 354.208 292.072 354.648V354.931C292.072 355.277 292.119 355.603 292.214 355.908C292.313 356.209 292.454 356.474 292.638 356.703C292.827 356.932 293.054 357.112 293.319 357.242C293.588 357.373 293.894 357.438 294.235 357.438C294.675 357.438 295.048 357.348 295.353 357.168C295.659 356.989 295.926 356.748 296.155 356.447L296.91 357.047C296.752 357.285 296.553 357.512 296.31 357.727C296.067 357.943 295.769 358.118 295.414 358.253C295.064 358.388 294.648 358.455 294.168 358.455ZM301.511 351.031V351.987H297.57V351.031H301.511ZM298.904 349.259H300.15V356.515C300.15 356.762 300.188 356.948 300.265 357.074C300.341 357.2 300.44 357.283 300.561 357.323C300.683 357.364 300.813 357.384 300.952 357.384C301.055 357.384 301.163 357.375 301.275 357.357C301.392 357.334 301.48 357.316 301.538 357.303L301.545 358.32C301.446 358.352 301.316 358.381 301.154 358.408C300.997 358.439 300.806 358.455 300.581 358.455C300.276 358.455 299.995 358.394 299.739 358.273C299.483 358.152 299.279 357.95 299.126 357.667C298.978 357.379 298.904 356.993 298.904 356.508V349.259ZM310.081 353.732H307.595L307.582 352.688H309.839C310.211 352.688 310.537 352.625 310.815 352.499C311.094 352.374 311.31 352.194 311.462 351.96C311.619 351.722 311.698 351.439 311.698 351.111C311.698 350.752 311.628 350.46 311.489 350.236C311.354 350.006 311.146 349.84 310.863 349.737C310.584 349.629 310.229 349.575 309.798 349.575H307.885V358.32H306.584V348.511H309.798C310.301 348.511 310.75 348.562 311.146 348.666C311.541 348.765 311.875 348.922 312.149 349.137C312.428 349.348 312.639 349.618 312.783 349.946C312.926 350.274 312.998 350.667 312.998 351.125C312.998 351.529 312.895 351.895 312.688 352.223C312.482 352.546 312.194 352.811 311.826 353.018C311.462 353.225 311.036 353.357 310.546 353.416L310.081 353.732ZM310.02 358.32H307.083L307.817 357.263H310.02C310.434 357.263 310.784 357.191 311.071 357.047C311.363 356.903 311.586 356.701 311.738 356.441C311.891 356.176 311.968 355.863 311.968 355.504C311.968 355.14 311.902 354.826 311.772 354.561C311.642 354.296 311.438 354.092 311.159 353.948C310.881 353.804 310.521 353.732 310.081 353.732H308.228L308.242 352.688H310.775L311.051 353.065C311.523 353.106 311.923 353.24 312.25 353.469C312.578 353.694 312.828 353.981 312.998 354.332C313.174 354.682 313.261 355.068 313.261 355.491C313.261 356.101 313.126 356.618 312.857 357.04C312.592 357.458 312.217 357.777 311.732 357.997C311.247 358.213 310.676 358.32 310.02 358.32ZM319.453 356.636V351.031H320.706V358.32H319.513L319.453 356.636ZM319.688 355.1L320.207 355.086C320.207 355.571 320.156 356.021 320.052 356.434C319.953 356.843 319.792 357.197 319.567 357.498C319.343 357.799 319.048 358.035 318.685 358.206C318.321 358.372 317.878 358.455 317.357 358.455C317.003 358.455 316.677 358.403 316.38 358.3C316.089 358.197 315.837 358.037 315.626 357.822C315.415 357.606 315.251 357.325 315.134 356.98C315.022 356.634 314.966 356.218 314.966 355.733V351.031H316.212V355.747C316.212 356.075 316.248 356.346 316.32 356.562C316.396 356.773 316.497 356.941 316.623 357.067C316.753 357.188 316.897 357.274 317.054 357.323C317.216 357.373 317.382 357.397 317.553 357.397C318.083 357.397 318.503 357.296 318.813 357.094C319.123 356.888 319.345 356.611 319.48 356.265C319.619 355.915 319.688 355.527 319.688 355.1ZM327.201 356.905V347.972H328.454V358.32H327.308L327.201 356.905ZM322.296 354.756V354.615C322.296 354.058 322.363 353.553 322.498 353.099C322.637 352.641 322.833 352.248 323.084 351.92C323.34 351.592 323.643 351.34 323.994 351.165C324.348 350.986 324.744 350.896 325.179 350.896C325.638 350.896 326.037 350.977 326.379 351.138C326.724 351.296 327.016 351.527 327.254 351.832C327.497 352.133 327.688 352.497 327.827 352.924C327.966 353.35 328.063 353.833 328.117 354.372V354.992C328.067 355.527 327.971 356.007 327.827 356.434C327.688 356.861 327.497 357.224 327.254 357.525C327.016 357.826 326.724 358.058 326.379 358.219C326.033 358.376 325.629 358.455 325.166 358.455C324.739 358.455 324.348 358.363 323.994 358.179C323.643 357.995 323.34 357.736 323.084 357.404C322.833 357.072 322.637 356.681 322.498 356.232C322.363 355.778 322.296 355.286 322.296 354.756ZM323.549 354.615V354.756C323.549 355.12 323.585 355.461 323.657 355.78C323.733 356.099 323.85 356.38 324.007 356.623C324.164 356.865 324.364 357.056 324.607 357.195C324.849 357.33 325.139 357.397 325.476 357.397C325.889 357.397 326.228 357.31 326.493 357.135C326.763 356.959 326.978 356.728 327.14 356.441C327.302 356.153 327.427 355.841 327.517 355.504V353.88C327.463 353.633 327.385 353.395 327.281 353.166C327.183 352.933 327.052 352.726 326.891 352.546C326.733 352.362 326.538 352.216 326.305 352.109C326.075 352.001 325.804 351.947 325.489 351.947C325.148 351.947 324.854 352.019 324.607 352.162C324.364 352.302 324.164 352.495 324.007 352.742C323.85 352.984 323.733 353.267 323.657 353.591C323.585 353.91 323.549 354.251 323.549 354.615ZM335.117 351.031H336.249V358.165C336.249 358.808 336.119 359.356 335.858 359.809C335.598 360.263 335.234 360.607 334.767 360.84C334.304 361.078 333.769 361.197 333.163 361.197C332.912 361.197 332.615 361.157 332.274 361.076C331.937 361 331.605 360.867 331.277 360.678C330.953 360.494 330.682 360.245 330.461 359.931L331.115 359.189C331.42 359.558 331.739 359.814 332.072 359.957C332.409 360.101 332.741 360.173 333.069 360.173C333.464 360.173 333.805 360.099 334.093 359.951C334.38 359.803 334.603 359.582 334.76 359.29C334.922 359.003 335.002 358.648 335.002 358.226V352.634L335.117 351.031ZM330.098 354.756V354.615C330.098 354.058 330.163 353.553 330.293 353.099C330.428 352.641 330.619 352.248 330.866 351.92C331.117 351.592 331.42 351.34 331.775 351.165C332.13 350.986 332.53 350.896 332.974 350.896C333.433 350.896 333.832 350.977 334.174 351.138C334.52 351.296 334.811 351.527 335.05 351.832C335.292 352.133 335.483 352.497 335.622 352.924C335.761 353.35 335.858 353.833 335.912 354.372V354.992C335.863 355.527 335.766 356.007 335.622 356.434C335.483 356.861 335.292 357.224 335.05 357.525C334.811 357.826 334.52 358.058 334.174 358.219C333.828 358.376 333.424 358.455 332.961 358.455C332.525 358.455 332.13 358.363 331.775 358.179C331.425 357.995 331.124 357.736 330.872 357.404C330.621 357.072 330.428 356.681 330.293 356.232C330.163 355.778 330.098 355.286 330.098 354.756ZM331.344 354.615V354.756C331.344 355.12 331.38 355.461 331.452 355.78C331.528 356.099 331.643 356.38 331.795 356.623C331.953 356.865 332.152 357.056 332.395 357.195C332.638 357.33 332.927 357.397 333.264 357.397C333.677 357.397 334.019 357.31 334.288 357.135C334.558 356.959 334.771 356.728 334.928 356.441C335.09 356.153 335.216 355.841 335.306 355.504V353.88C335.256 353.633 335.18 353.395 335.076 353.166C334.978 352.933 334.847 352.726 334.686 352.546C334.529 352.362 334.333 352.216 334.1 352.109C333.866 352.001 333.592 351.947 333.278 351.947C332.936 351.947 332.642 352.019 332.395 352.162C332.152 352.302 331.953 352.495 331.795 352.742C331.643 352.984 331.528 353.267 331.452 353.591C331.38 353.91 331.344 354.251 331.344 354.615ZM341.167 358.455C340.659 358.455 340.199 358.37 339.786 358.199C339.377 358.024 339.025 357.779 338.728 357.465C338.436 357.15 338.212 356.777 338.054 356.346C337.897 355.915 337.819 355.443 337.819 354.931V354.648C337.819 354.056 337.906 353.528 338.081 353.065C338.256 352.598 338.495 352.203 338.795 351.879C339.096 351.556 339.438 351.311 339.82 351.145C340.201 350.979 340.597 350.896 341.005 350.896C341.526 350.896 341.975 350.986 342.353 351.165C342.735 351.345 343.047 351.596 343.289 351.92C343.532 352.239 343.711 352.616 343.828 353.052C343.945 353.483 344.003 353.955 344.003 354.467V355.026H338.56V354.008H342.757V353.914C342.739 353.591 342.672 353.276 342.555 352.971C342.443 352.665 342.263 352.414 342.016 352.216C341.769 352.019 341.432 351.92 341.005 351.92C340.722 351.92 340.462 351.981 340.224 352.102C339.986 352.219 339.781 352.394 339.611 352.627C339.44 352.861 339.308 353.146 339.213 353.483C339.119 353.82 339.072 354.208 339.072 354.648V354.931C339.072 355.277 339.119 355.603 339.213 355.908C339.312 356.209 339.453 356.474 339.638 356.703C339.826 356.932 340.053 357.112 340.318 357.242C340.588 357.373 340.893 357.438 341.234 357.438C341.675 357.438 342.047 357.348 342.353 357.168C342.658 356.989 342.925 356.748 343.155 356.447L343.909 357.047C343.752 357.285 343.552 357.512 343.309 357.727C343.067 357.943 342.768 358.118 342.413 358.253C342.063 358.388 341.648 358.455 341.167 358.455ZM348.511 351.031V351.987H344.569V351.031H348.511ZM345.903 349.259H347.15V356.515C347.15 356.762 347.188 356.948 347.264 357.074C347.341 357.2 347.439 357.283 347.561 357.323C347.682 357.364 347.812 357.384 347.951 357.384C348.055 357.384 348.163 357.375 348.275 357.357C348.392 357.334 348.479 357.316 348.538 357.303L348.544 358.32C348.446 358.352 348.315 358.381 348.154 358.408C347.996 358.439 347.806 358.455 347.581 358.455C347.275 358.455 346.995 358.394 346.739 358.273C346.483 358.152 346.278 357.95 346.126 357.667C345.977 357.379 345.903 356.993 345.903 356.508V349.259ZM349.919 357.66C349.919 357.449 349.984 357.272 350.114 357.128C350.249 356.98 350.442 356.905 350.694 356.905C350.945 356.905 351.136 356.98 351.266 357.128C351.401 357.272 351.468 357.449 351.468 357.66C351.468 357.867 351.401 358.042 351.266 358.186C351.136 358.329 350.945 358.401 350.694 358.401C350.442 358.401 350.249 358.329 350.114 358.186C349.984 358.042 349.919 357.867 349.919 357.66ZM349.926 351.711C349.926 351.5 349.991 351.322 350.121 351.179C350.256 351.031 350.449 350.956 350.7 350.956C350.952 350.956 351.143 351.031 351.273 351.179C351.408 351.322 351.475 351.5 351.475 351.711C351.475 351.918 351.408 352.093 351.273 352.237C351.143 352.38 350.952 352.452 350.7 352.452C350.449 352.452 350.256 352.38 350.121 352.237C349.991 352.093 349.926 351.918 349.926 351.711Z" fill="#DADADA"/>
<path d="M362.77 349.38L359.523 358.32H358.195L361.935 348.511H362.79L362.77 349.38ZM365.492 358.32L362.238 349.38L362.218 348.511H363.073L366.826 358.32H365.492ZM365.323 354.689V355.753H359.812V354.689H365.323ZM374.372 357.263V358.32H369.177V357.263H374.372ZM369.44 348.511V358.32H368.14V348.511H369.44ZM373.684 352.728V353.786H369.177V352.728H373.684ZM374.304 348.511V349.575H369.177V348.511H374.304ZM378.636 358.32H376.588L376.602 357.263H378.636C379.337 357.263 379.921 357.117 380.388 356.825C380.855 356.528 381.206 356.115 381.439 355.585C381.677 355.05 381.796 354.426 381.796 353.712V353.112C381.796 352.551 381.729 352.052 381.594 351.617C381.459 351.177 381.262 350.806 381.001 350.505C380.741 350.2 380.422 349.968 380.044 349.811C379.672 349.654 379.243 349.575 378.758 349.575H376.548V348.511H378.758C379.4 348.511 379.986 348.619 380.516 348.834C381.046 349.045 381.502 349.353 381.884 349.757C382.27 350.157 382.566 350.642 382.773 351.212C382.98 351.778 383.083 352.416 383.083 353.126V353.712C383.083 354.422 382.98 355.062 382.773 355.632C382.566 356.198 382.268 356.681 381.877 357.081C381.491 357.48 381.024 357.788 380.476 358.004C379.932 358.215 379.319 358.32 378.636 358.32ZM377.282 348.511V358.32H375.982V348.511H377.282ZM392.232 348.457V358.32H390.986V350.013L388.473 350.929V349.804L392.037 348.457H392.232ZM402.055 352.634V354.13C402.055 354.934 401.983 355.612 401.84 356.164C401.696 356.717 401.489 357.161 401.22 357.498C400.95 357.835 400.625 358.08 400.243 358.233C399.866 358.381 399.439 358.455 398.963 358.455C398.586 358.455 398.237 358.408 397.919 358.314C397.6 358.219 397.312 358.069 397.056 357.862C396.805 357.651 396.589 357.377 396.409 357.04C396.23 356.703 396.093 356.295 395.998 355.814C395.904 355.333 395.857 354.772 395.857 354.13V352.634C395.857 351.83 395.929 351.156 396.073 350.613C396.221 350.069 396.43 349.634 396.699 349.306C396.969 348.973 397.292 348.735 397.669 348.592C398.051 348.448 398.478 348.376 398.949 348.376C399.331 348.376 399.681 348.423 400 348.518C400.324 348.607 400.611 348.753 400.863 348.955C401.114 349.153 401.328 349.418 401.503 349.75C401.682 350.078 401.819 350.48 401.914 350.956C402.008 351.433 402.055 351.992 402.055 352.634ZM400.802 354.332V352.425C400.802 351.985 400.775 351.599 400.721 351.266C400.672 350.929 400.598 350.642 400.499 350.404C400.4 350.166 400.274 349.973 400.122 349.825C399.973 349.676 399.8 349.569 399.603 349.501C399.41 349.429 399.192 349.393 398.949 349.393C398.653 349.393 398.39 349.45 398.161 349.562C397.932 349.67 397.739 349.843 397.582 350.081C397.429 350.319 397.312 350.631 397.231 351.017C397.15 351.403 397.11 351.873 397.11 352.425V354.332C397.11 354.772 397.135 355.161 397.184 355.497C397.238 355.834 397.317 356.126 397.42 356.373C397.523 356.616 397.649 356.816 397.797 356.973C397.945 357.13 398.116 357.247 398.309 357.323C398.507 357.395 398.725 357.431 398.963 357.431C399.268 357.431 399.535 357.373 399.765 357.256C399.994 357.139 400.185 356.957 400.337 356.71C400.494 356.459 400.611 356.137 400.688 355.747C400.764 355.351 400.802 354.88 400.802 354.332ZM404.925 356.838V357.842C404.925 358.251 404.822 358.682 404.615 359.136C404.409 359.594 404.119 359.975 403.746 360.281L403.039 359.789C403.183 359.591 403.304 359.389 403.403 359.183C403.502 358.981 403.576 358.769 403.625 358.549C403.679 358.334 403.706 358.105 403.706 357.862V356.838H404.925ZM412.538 352.634V354.13C412.538 354.934 412.467 355.612 412.323 356.164C412.179 356.717 411.973 357.161 411.703 357.498C411.434 357.835 411.108 358.08 410.726 358.233C410.349 358.381 409.922 358.455 409.446 358.455C409.069 358.455 408.721 358.408 408.402 358.314C408.083 358.219 407.795 358.069 407.539 357.862C407.288 357.651 407.072 357.377 406.893 357.04C406.713 356.703 406.576 356.295 406.482 355.814C406.387 355.333 406.34 354.772 406.34 354.13V352.634C406.34 351.83 406.412 351.156 406.556 350.613C406.704 350.069 406.913 349.634 407.182 349.306C407.452 348.973 407.775 348.735 408.152 348.592C408.534 348.448 408.961 348.376 409.433 348.376C409.814 348.376 410.165 348.423 410.484 348.518C410.807 348.607 411.094 348.753 411.346 348.955C411.598 349.153 411.811 349.418 411.986 349.75C412.166 350.078 412.303 350.48 412.397 350.956C412.491 351.433 412.538 351.992 412.538 352.634ZM411.285 354.332V352.425C411.285 351.985 411.258 351.599 411.204 351.266C411.155 350.929 411.081 350.642 410.982 350.404C410.883 350.166 410.758 349.973 410.605 349.825C410.457 349.676 410.284 349.569 410.086 349.501C409.893 349.429 409.675 349.393 409.433 349.393C409.136 349.393 408.873 349.45 408.644 349.562C408.415 349.67 408.222 349.843 408.065 350.081C407.912 350.319 407.795 350.631 407.715 351.017C407.634 351.403 407.593 351.873 407.593 352.425V354.332C407.593 354.772 407.618 355.161 407.667 355.497C407.721 355.834 407.8 356.126 407.903 356.373C408.007 356.616 408.132 356.816 408.281 356.973C408.429 357.13 408.599 357.247 408.793 357.323C408.99 357.395 409.208 357.431 409.446 357.431C409.751 357.431 410.019 357.373 410.248 357.256C410.477 357.139 410.668 356.957 410.82 356.71C410.978 356.459 411.094 356.137 411.171 355.747C411.247 355.351 411.285 354.88 411.285 354.332ZM420.3 352.634V354.13C420.3 354.934 420.228 355.612 420.084 356.164C419.941 356.717 419.734 357.161 419.464 357.498C419.195 357.835 418.869 358.08 418.488 358.233C418.11 358.381 417.684 358.455 417.207 358.455C416.83 358.455 416.482 358.408 416.163 358.314C415.844 358.219 415.557 358.069 415.301 357.862C415.049 357.651 414.834 357.377 414.654 357.04C414.474 356.703 414.337 356.295 414.243 355.814C414.149 355.333 414.102 354.772 414.102 354.13V352.634C414.102 351.83 414.173 351.156 414.317 350.613C414.465 350.069 414.674 349.634 414.944 349.306C415.213 348.973 415.537 348.735 415.914 348.592C416.296 348.448 416.722 348.376 417.194 348.376C417.576 348.376 417.926 348.423 418.245 348.518C418.568 348.607 418.856 348.753 419.107 348.955C419.359 349.153 419.572 349.418 419.747 349.75C419.927 350.078 420.064 350.48 420.158 350.956C420.253 351.433 420.3 351.992 420.3 352.634ZM419.047 354.332V352.425C419.047 351.985 419.02 351.599 418.966 351.266C418.916 350.929 418.842 350.642 418.744 350.404C418.645 350.166 418.519 349.973 418.366 349.825C418.218 349.676 418.045 349.569 417.847 349.501C417.654 349.429 417.437 349.393 417.194 349.393C416.898 349.393 416.635 349.45 416.406 349.562C416.177 349.67 415.983 349.843 415.826 350.081C415.674 350.319 415.557 350.631 415.476 351.017C415.395 351.403 415.355 351.873 415.355 352.425V354.332C415.355 354.772 415.379 355.161 415.429 355.497C415.483 355.834 415.561 356.126 415.665 356.373C415.768 356.616 415.894 356.816 416.042 356.973C416.19 357.13 416.361 357.247 416.554 357.323C416.752 357.395 416.969 357.431 417.207 357.431C417.513 357.431 417.78 357.373 418.009 357.256C418.238 357.139 418.429 356.957 418.582 356.71C418.739 356.459 418.856 356.137 418.932 355.747C419.009 355.351 419.047 354.88 419.047 354.332ZM428.061 352.634V354.13C428.061 354.934 427.989 355.612 427.846 356.164C427.702 356.717 427.495 357.161 427.226 357.498C426.956 357.835 426.631 358.08 426.249 358.233C425.872 358.381 425.445 358.455 424.969 358.455C424.592 358.455 424.243 358.408 423.925 358.314C423.606 358.219 423.318 358.069 423.062 357.862C422.811 357.651 422.595 357.377 422.415 357.04C422.236 356.703 422.099 356.295 422.004 355.814C421.91 355.333 421.863 354.772 421.863 354.13V352.634C421.863 351.83 421.935 351.156 422.079 350.613C422.227 350.069 422.436 349.634 422.705 349.306C422.975 348.973 423.298 348.735 423.675 348.592C424.057 348.448 424.484 348.376 424.955 348.376C425.337 348.376 425.687 348.423 426.006 348.518C426.33 348.607 426.617 348.753 426.869 348.955C427.12 349.153 427.334 349.418 427.509 349.75C427.688 350.078 427.825 350.48 427.92 350.956C428.014 351.433 428.061 351.992 428.061 352.634ZM426.808 354.332V352.425C426.808 351.985 426.781 351.599 426.727 351.266C426.678 350.929 426.604 350.642 426.505 350.404C426.406 350.166 426.28 349.973 426.128 349.825C425.979 349.676 425.806 349.569 425.609 349.501C425.416 349.429 425.198 349.393 424.955 349.393C424.659 349.393 424.396 349.45 424.167 349.562C423.938 349.67 423.745 349.843 423.588 350.081C423.435 350.319 423.318 350.631 423.237 351.017C423.156 351.403 423.116 351.873 423.116 352.425V354.332C423.116 354.772 423.141 355.161 423.19 355.497C423.244 355.834 423.323 356.126 423.426 356.373C423.529 356.616 423.655 356.816 423.803 356.973C423.951 357.13 424.122 357.247 424.315 357.323C424.513 357.395 424.731 357.431 424.969 357.431C425.274 357.431 425.541 357.373 425.771 357.256C426 357.139 426.191 356.957 426.343 356.71C426.5 356.459 426.617 356.137 426.694 355.747C426.77 355.351 426.808 354.88 426.808 354.332Z" fill="white"/>
<path d="M534.579 357.262V356.838C534.579 356.533 534.645 356.256 534.777 356.006C534.91 355.756 535.099 355.555 535.345 355.405C535.591 355.254 535.883 355.179 536.221 355.179C536.567 355.179 536.861 355.254 537.103 355.405C537.35 355.555 537.539 355.756 537.671 356.006C537.803 356.256 537.87 356.533 537.87 356.838V357.262C537.87 357.56 537.803 357.834 537.671 358.084C537.543 358.334 537.355 358.534 537.109 358.685C536.866 358.835 536.574 358.911 536.232 358.911C535.891 358.911 535.595 358.835 535.345 358.685C535.099 358.534 534.91 358.334 534.777 358.084C534.645 357.834 534.579 357.56 534.579 357.262ZM535.345 356.838V357.262C535.345 357.431 535.376 357.591 535.439 357.742C535.505 357.893 535.604 358.016 535.736 358.111C535.869 358.203 536.034 358.249 536.232 358.249C536.431 358.249 536.594 358.203 536.723 358.111C536.852 358.016 536.947 357.893 537.01 357.742C537.072 357.591 537.103 357.431 537.103 357.262V356.838C537.103 356.665 537.07 356.504 537.004 356.353C536.942 356.199 536.844 356.075 536.712 355.984C536.583 355.888 536.42 355.84 536.221 355.84C536.027 355.84 535.863 355.888 535.731 355.984C535.602 356.075 535.505 356.199 535.439 356.353C535.376 356.504 535.345 356.665 535.345 356.838ZM538.487 361.782V361.352C538.487 361.051 538.553 360.776 538.685 360.526C538.818 360.276 539.007 360.075 539.253 359.925C539.499 359.774 539.791 359.699 540.13 359.699C540.475 359.699 540.769 359.774 541.012 359.925C541.258 360.075 541.447 360.276 541.579 360.526C541.712 360.776 541.778 361.051 541.778 361.352V361.782C541.778 362.084 541.712 362.359 541.579 362.609C541.451 362.859 541.263 363.059 541.017 363.21C540.775 363.361 540.482 363.436 540.141 363.436C539.799 363.436 539.505 363.361 539.259 363.21C539.012 363.059 538.821 362.859 538.685 362.609C538.553 362.359 538.487 362.084 538.487 361.782ZM539.253 361.352V361.782C539.253 361.951 539.284 362.113 539.347 362.267C539.413 362.418 539.512 362.541 539.644 362.637C539.777 362.729 539.942 362.775 540.141 362.775C540.339 362.775 540.503 362.729 540.631 362.637C540.763 362.541 540.861 362.418 540.923 362.267C540.986 362.117 541.017 361.955 541.017 361.782V361.352C541.017 361.18 540.984 361.018 540.918 360.867C540.855 360.717 540.758 360.595 540.626 360.504C540.497 360.408 540.332 360.36 540.13 360.36C539.935 360.36 539.771 360.408 539.639 360.504C539.51 360.595 539.413 360.717 539.347 360.867C539.284 361.018 539.253 361.18 539.253 361.352ZM540.383 356.436L536.464 362.708L535.891 362.345L539.81 356.072L540.383 356.436ZM548.359 360.619V361.457H542.56V360.856L546.154 355.295H546.987L546.094 356.904L543.718 360.619H548.359ZM547.24 355.295V363.32H546.221V355.295H547.24ZM554.324 358.668V359.892C554.324 360.55 554.265 361.104 554.147 361.556C554.03 362.008 553.86 362.372 553.64 362.648C553.42 362.923 553.153 363.124 552.841 363.249C552.532 363.37 552.183 363.431 551.793 363.431C551.485 363.431 551.2 363.392 550.939 363.315C550.678 363.238 550.443 363.115 550.233 362.945C550.028 362.773 549.851 362.549 549.704 362.273C549.557 361.997 549.445 361.663 549.368 361.27C549.291 360.877 549.252 360.417 549.252 359.892V358.668C549.252 358.01 549.311 357.459 549.429 357.014C549.55 356.57 549.721 356.213 549.941 355.945C550.162 355.673 550.426 355.478 550.735 355.361C551.047 355.243 551.397 355.184 551.782 355.184C552.095 355.184 552.381 355.223 552.642 355.3C552.907 355.374 553.142 355.493 553.348 355.658C553.554 355.82 553.728 356.037 553.872 356.309C554.018 356.577 554.131 356.906 554.208 357.295C554.285 357.685 554.324 358.143 554.324 358.668ZM553.298 360.057V358.497C553.298 358.137 553.276 357.821 553.232 357.549C553.192 357.273 553.131 357.038 553.05 356.843C552.969 356.649 552.866 356.491 552.742 356.369C552.62 356.248 552.479 356.16 552.317 356.105C552.159 356.046 551.981 356.017 551.782 356.017C551.54 356.017 551.325 356.063 551.137 356.154C550.95 356.243 550.792 356.384 550.663 356.579C550.538 356.774 550.443 357.029 550.377 357.345C550.311 357.661 550.278 358.045 550.278 358.497V360.057C550.278 360.417 550.298 360.735 550.338 361.011C550.382 361.286 550.447 361.525 550.531 361.727C550.616 361.926 550.719 362.089 550.84 362.218C550.961 362.346 551.101 362.442 551.259 362.505C551.42 362.563 551.599 362.593 551.793 362.593C552.043 362.593 552.262 362.545 552.449 362.449C552.637 362.354 552.793 362.205 552.918 362.003C553.047 361.797 553.142 361.534 553.205 361.215C553.267 360.891 553.298 360.505 553.298 360.057Z" fill="white"/>
<path d="M290.03 322.147L285.145 336.32H282.191L288.345 319.969H290.232L290.03 322.147ZM294.118 336.32L289.221 322.147L289.008 319.969H290.906L297.083 336.32H294.118ZM293.882 330.256V332.491H284.987V330.256H293.882ZM309.616 334.085V336.32H300.935V334.085H309.616ZM301.732 319.969V336.32H298.913V319.969H301.732ZM308.481 326.797V328.998H300.935V326.797H308.481ZM309.56 319.969V322.215H300.935V319.969H309.56ZM316.668 336.32H313.176L313.198 334.085H316.668C317.679 334.085 318.525 333.865 319.207 333.423C319.895 332.981 320.412 332.348 320.756 331.525C321.108 330.701 321.284 329.721 321.284 328.583V327.695C321.284 326.812 321.183 326.029 320.981 325.348C320.786 324.667 320.494 324.094 320.105 323.63C319.723 323.166 319.251 322.814 318.69 322.574C318.136 322.335 317.496 322.215 316.77 322.215H313.108V319.969H316.77C317.855 319.969 318.847 320.152 319.746 320.519C320.644 320.878 321.419 321.399 322.07 322.08C322.729 322.761 323.235 323.577 323.586 324.528C323.938 325.479 324.114 326.542 324.114 327.718V328.583C324.114 329.758 323.938 330.821 323.586 331.772C323.235 332.723 322.729 333.539 322.07 334.22C321.411 334.894 320.625 335.414 319.712 335.781C318.806 336.141 317.792 336.32 316.668 336.32ZM314.737 319.969V336.32H311.918V319.969H314.737ZM340.421 319.868H340.758V322.08H340.567C339.601 322.08 338.766 322.23 338.062 322.529C337.366 322.829 336.793 323.241 336.344 323.765C335.895 324.289 335.558 324.903 335.333 325.606C335.116 326.303 335.008 327.044 335.008 327.83V330.402C335.008 331.053 335.079 331.63 335.221 332.131C335.363 332.625 335.562 333.041 335.816 333.378C336.078 333.707 336.378 333.958 336.715 334.13C337.052 334.303 337.415 334.389 337.804 334.389C338.208 334.389 338.575 334.306 338.905 334.142C339.234 333.969 339.515 333.734 339.747 333.434C339.979 333.135 340.155 332.779 340.275 332.367C340.395 331.955 340.455 331.506 340.455 331.02C340.455 330.555 340.395 330.121 340.275 329.717C340.163 329.305 339.994 328.946 339.77 328.639C339.545 328.324 339.264 328.081 338.927 327.909C338.598 327.729 338.216 327.639 337.782 327.639C337.243 327.639 336.752 327.766 336.311 328.021C335.876 328.276 335.524 328.609 335.255 329.021C334.993 329.425 334.851 329.855 334.828 330.312L333.795 329.975C333.855 329.279 334.008 328.654 334.255 328.1C334.51 327.546 334.843 327.074 335.255 326.685C335.667 326.295 336.142 326 336.681 325.797C337.228 325.588 337.827 325.483 338.478 325.483C339.272 325.483 339.96 325.633 340.544 325.932C341.128 326.232 341.611 326.64 341.993 327.156C342.382 327.665 342.671 328.249 342.858 328.908C343.053 329.56 343.15 330.241 343.15 330.952C343.15 331.738 343.03 332.472 342.791 333.153C342.551 333.827 342.199 334.419 341.735 334.928C341.278 335.437 340.72 335.834 340.062 336.118C339.41 336.403 338.669 336.545 337.838 336.545C336.962 336.545 336.18 336.376 335.491 336.04C334.809 335.703 334.229 335.238 333.75 334.647C333.278 334.056 332.919 333.374 332.672 332.603C332.425 331.832 332.301 331.016 332.301 330.155V329.032C332.301 327.789 332.458 326.617 332.773 325.517C333.087 324.409 333.57 323.431 334.222 322.585C334.881 321.739 335.723 321.077 336.749 320.598C337.774 320.111 338.998 319.868 340.421 319.868ZM348.013 333.715L348.001 335.646C348.001 336.41 347.811 337.196 347.429 338.005C347.047 338.813 346.542 339.48 345.913 340.004L344.464 339.162C344.674 338.825 344.864 338.484 345.037 338.14C345.209 337.795 345.347 337.428 345.452 337.039C345.557 336.65 345.609 336.219 345.609 335.748V333.715H348.013ZM352.64 334.187H352.864C353.897 334.187 354.758 334.052 355.447 333.782C356.144 333.505 356.698 333.123 357.109 332.637C357.521 332.15 357.817 331.577 357.997 330.918C358.176 330.26 358.266 329.545 358.266 328.773V325.955C358.266 325.288 358.195 324.704 358.053 324.203C357.918 323.694 357.723 323.271 357.469 322.934C357.222 322.589 356.933 322.331 356.604 322.159C356.282 321.986 355.934 321.9 355.56 321.9C355.148 321.9 354.777 321.994 354.448 322.181C354.126 322.361 353.853 322.612 353.628 322.934C353.411 323.248 353.242 323.619 353.123 324.045C353.01 324.465 352.954 324.914 352.954 325.393C352.954 325.842 353.007 326.277 353.111 326.696C353.224 327.108 353.388 327.474 353.605 327.796C353.823 328.118 354.096 328.373 354.425 328.56C354.755 328.747 355.14 328.841 355.582 328.841C356.001 328.841 356.387 328.762 356.739 328.605C357.091 328.44 357.398 328.219 357.66 327.942C357.922 327.665 358.128 327.355 358.277 327.01C358.427 326.666 358.509 326.314 358.524 325.955L359.558 326.269C359.558 326.838 359.438 327.4 359.198 327.954C358.966 328.5 358.64 329.002 358.221 329.458C357.809 329.908 357.326 330.267 356.772 330.537C356.226 330.806 355.631 330.941 354.987 330.941C354.208 330.941 353.519 330.795 352.92 330.503C352.329 330.203 351.835 329.799 351.438 329.29C351.049 328.781 350.757 328.197 350.562 327.538C350.367 326.879 350.27 326.187 350.27 325.46C350.27 324.674 350.39 323.937 350.629 323.248C350.869 322.559 351.217 321.953 351.674 321.429C352.131 320.897 352.685 320.485 353.336 320.193C353.995 319.894 354.74 319.744 355.571 319.744C356.454 319.744 357.229 319.916 357.896 320.261C358.562 320.605 359.123 321.081 359.58 321.687C360.037 322.293 360.381 322.997 360.613 323.798C360.845 324.599 360.961 325.46 360.961 326.381V327.336C360.961 328.302 360.875 329.234 360.703 330.132C360.531 331.023 360.25 331.851 359.861 332.614C359.479 333.37 358.974 334.037 358.345 334.613C357.723 335.182 356.96 335.628 356.054 335.95C355.155 336.264 354.1 336.421 352.887 336.421H352.64V334.187ZM374.191 326.774V329.447C374.191 330.728 374.064 331.821 373.809 332.727C373.562 333.625 373.203 334.355 372.731 334.917C372.259 335.478 371.694 335.89 371.035 336.152C370.384 336.414 369.654 336.545 368.845 336.545C368.201 336.545 367.602 336.463 367.048 336.298C366.502 336.133 366.008 335.875 365.566 335.523C365.124 335.171 364.746 334.718 364.432 334.164C364.125 333.603 363.885 332.932 363.713 332.154C363.548 331.375 363.466 330.473 363.466 329.447V326.774C363.466 325.487 363.593 324.401 363.848 323.518C364.102 322.627 364.465 321.904 364.937 321.35C365.409 320.789 365.97 320.381 366.622 320.126C367.28 319.871 368.014 319.744 368.823 319.744C369.474 319.744 370.073 319.826 370.62 319.991C371.174 320.148 371.668 320.399 372.102 320.744C372.544 321.088 372.918 321.537 373.225 322.091C373.54 322.638 373.779 323.3 373.944 324.079C374.109 324.85 374.191 325.749 374.191 326.774ZM371.484 329.829V326.37C371.484 325.719 371.447 325.146 371.372 324.652C371.297 324.15 371.185 323.727 371.035 323.383C370.893 323.031 370.713 322.746 370.496 322.529C370.279 322.305 370.032 322.144 369.755 322.046C369.478 321.942 369.167 321.889 368.823 321.889C368.403 321.889 368.029 321.972 367.7 322.136C367.37 322.293 367.093 322.548 366.869 322.9C366.644 323.252 366.472 323.716 366.352 324.292C366.24 324.861 366.184 325.554 366.184 326.37V329.829C366.184 330.488 366.221 331.068 366.296 331.57C366.371 332.071 366.483 332.502 366.633 332.861C366.783 333.213 366.962 333.505 367.172 333.737C367.389 333.962 367.636 334.127 367.913 334.231C368.198 334.336 368.508 334.389 368.845 334.389C369.272 334.389 369.65 334.306 369.979 334.142C370.309 333.977 370.586 333.715 370.811 333.355C371.035 332.989 371.204 332.513 371.316 331.929C371.428 331.345 371.484 330.645 371.484 329.829ZM387.263 326.774V329.447C387.263 330.728 387.136 331.821 386.881 332.727C386.634 333.625 386.275 334.355 385.803 334.917C385.332 335.478 384.766 335.89 384.107 336.152C383.456 336.414 382.726 336.545 381.917 336.545C381.274 336.545 380.675 336.463 380.121 336.298C379.574 336.133 379.08 335.875 378.638 335.523C378.196 335.171 377.818 334.718 377.504 334.164C377.197 333.603 376.957 332.932 376.785 332.154C376.62 331.375 376.538 330.473 376.538 329.447V326.774C376.538 325.487 376.665 324.401 376.92 323.518C377.174 322.627 377.538 321.904 378.009 321.35C378.481 320.789 379.042 320.381 379.694 320.126C380.353 319.871 381.086 319.744 381.895 319.744C382.546 319.744 383.145 319.826 383.692 319.991C384.246 320.148 384.74 320.399 385.174 320.744C385.616 321.088 385.99 321.537 386.297 322.091C386.612 322.638 386.851 323.3 387.016 324.079C387.181 324.85 387.263 325.749 387.263 326.774ZM384.557 329.829V326.37C384.557 325.719 384.519 325.146 384.444 324.652C384.369 324.15 384.257 323.727 384.107 323.383C383.965 323.031 383.785 322.746 383.568 322.529C383.351 322.305 383.104 322.144 382.827 322.046C382.55 321.942 382.239 321.889 381.895 321.889C381.476 321.889 381.101 321.972 380.772 322.136C380.443 322.293 380.166 322.548 379.941 322.9C379.716 323.252 379.544 323.716 379.424 324.292C379.312 324.861 379.256 325.554 379.256 326.37V329.829C379.256 330.488 379.293 331.068 379.368 331.57C379.443 332.071 379.555 332.502 379.705 332.861C379.855 333.213 380.035 333.505 380.244 333.737C380.461 333.962 380.708 334.127 380.985 334.231C381.27 334.336 381.581 334.389 381.917 334.389C382.344 334.389 382.722 334.306 383.052 334.142C383.381 333.977 383.658 333.715 383.883 333.355C384.107 332.989 384.276 332.513 384.388 331.929C384.5 331.345 384.557 330.645 384.557 329.829Z" fill="white"/>
<path d="M553.575 371.32H283.425C282.638 371.32 282 372.034 282 372.915V373.726C282 374.607 282.638 375.32 283.425 375.32H553.575C554.362 375.32 555 374.607 555 373.726V372.915C555 372.034 554.362 371.32 553.575 371.32Z" fill="#EEF8F7"/>
<path d="M445.05 371.32H283.95C282.873 371.32 282 372.034 282 372.915V373.726C282 374.607 282.873 375.32 283.95 375.32H445.05C446.127 375.32 447 374.607 447 373.726V372.915C447 372.034 446.127 371.32 445.05 371.32Z" fill="#75CCCC"/>
<defs>
<filter id="filter0_d_42_1537" x="7.05176" y="246.89" width="165.148" height="142.47" filterUnits="userSpaceOnUse" color-interpolation-filters="sRGB">
<feFlood flood-opacity="0" result="BackgroundImageFix"/>
<feColorMatrix in="SourceAlpha" type="matrix" values="0 0 0 0 0 0 0 0 0 0 0 0 0 0 0 0 0 0 127 0" result="hardAlpha"/>
<feOffset dy="4"/>
<feGaussianBlur stdDeviation="2"/>
<feComposite in2="hardAlpha" operator="out"/>
<feColorMatrix type="matrix" values="0 0 0 0 0 0 0 0 0 0 0 0 0 0 0 0 0 0 1 0"/>
<feBlend mode="normal" in2="BackgroundImageFix" result="effect1_dropShadow_42_1537"/>
<feBlend mode="normal" in="SourceGraphic" in2="effect1_dropShadow_42_1537" result="shape"/>
</filter>
<filter id="filter1_d_42_1537" x="0.522461" y="240.427" width="178.224" height="153.302" filterUnits="userSpaceOnUse" color-interpolation-filters="sRGB">
<feFlood flood-opacity="0" result="BackgroundImageFix"/>
<feColorMatrix in="SourceAlpha" type="matrix" values="0 0 0 0 0 0 0 0 0 0 0 0 0 0 0 0 0 0 127 0" result="hardAlpha"/>
<feOffset dy="4"/>
<feGaussianBlur stdDeviation="2"/>
<feComposite in2="hardAlpha" operator="out"/>
<feColorMatrix type="matrix" values="0 0 0 0 0 0 0 0 0 0 0 0 0 0 0 0 0 0 1 0"/>
<feBlend mode="normal" in2="BackgroundImageFix" result="effect1_dropShadow_42_1537"/>
<feBlend mode="normal" in="SourceGraphic" in2="effect1_dropShadow_42_1537" result="shape"/>
</filter>
<filter id="filter2_d_42_1537" x="64.0713" y="285.806" width="70.2939" height="63.8108" filterUnits="userSpaceOnUse" color-interpolation-filters="sRGB">
<feFlood flood-opacity="0" result="BackgroundImageFix"/>
<feColorMatrix in="SourceAlpha" type="matrix" values="0 0 0 0 0 0 0 0 0 0 0 0 0 0 0 0 0 0 127 0" result="hardAlpha"/>
<feOffset dy="4"/>
<feGaussianBlur stdDeviation="2"/>
<feComposite in2="hardAlpha" operator="out"/>
<feColorMatrix type="matrix" values="0 0 0 0 0 0 0 0 0 0 0 0 0 0 0 0 0 0 0.8 0"/>
<feBlend mode="normal" in2="BackgroundImageFix" result="effect1_dropShadow_42_1537"/>
<feBlend mode="normal" in="SourceGraphic" in2="effect1_dropShadow_42_1537" result="shape"/>
</filter>
<filter id="filter3_d_42_1537" x="194.462" y="272.779" width="74.417" height="74.4172" filterUnits="userSpaceOnUse" color-interpolation-filters="sRGB">
<feFlood flood-opacity="0" result="BackgroundImageFix"/>
<feColorMatrix in="SourceAlpha" type="matrix" values="0 0 0 0 0 0 0 0 0 0 0 0 0 0 0 0 0 0 127 0" result="hardAlpha"/>
<feOffset dy="4"/>
<feGaussianBlur stdDeviation="2"/>
<feComposite in2="hardAlpha" operator="out"/>
<feColorMatrix type="matrix" values="0 0 0 0 0 0 0 0 0 0 0 0 0 0 0 0 0 0 0.8 0"/>
<feBlend mode="normal" in2="BackgroundImageFix" result="effect1_dropShadow_42_1537"/>
<feBlend mode="normal" in="SourceGraphic" in2="effect1_dropShadow_42_1537" result="shape"/>
</filter>
<filter id="filter4_d_42_1537" x="199.568" y="277.885" width="64.1992" height="63.1775" filterUnits="userSpaceOnUse" color-interpolation-filters="sRGB">
<feFlood flood-opacity="0" result="BackgroundImageFix"/>
<feColorMatrix in="SourceAlpha" type="matrix" values="0 0 0 0 0 0 0 0 0 0 0 0 0 0 0 0 0 0 127 0" result="hardAlpha"/>
<feOffset dy="4"/>
<feGaussianBlur stdDeviation="2"/>
<feComposite in2="hardAlpha" operator="out"/>
<feColorMatrix type="matrix" values="0 0 0 0 0 0 0 0 0 0 0 0 0 0 0 0 0 0 0.8 0"/>
<feBlend mode="normal" in2="BackgroundImageFix" result="effect1_dropShadow_42_1537"/>
<feBlend mode="normal" in="SourceGraphic" in2="effect1_dropShadow_42_1537" result="shape"/>
</filter>
<filter id="filter5_d_42_1537" x="130.077" y="385.187" width="56.0244" height="56.0247" filterUnits="userSpaceOnUse" color-interpolation-filters="sRGB">
<feFlood flood-opacity="0" result="BackgroundImageFix"/>
<feColorMatrix in="SourceAlpha" type="matrix" values="0 0 0 0 0 0 0 0 0 0 0 0 0 0 0 0 0 0 127 0" result="hardAlpha"/>
<feOffset dy="4"/>
<feGaussianBlur stdDeviation="2"/>
<feComposite in2="hardAlpha" operator="out"/>
<feColorMatrix type="matrix" values="0 0 0 0 0 0 0 0 0 0 0 0 0 0 0 0 0 0 0.8 0"/>
<feBlend mode="normal" in2="BackgroundImageFix" result="effect1_dropShadow_42_1537"/>
<feBlend mode="normal" in="SourceGraphic" in2="effect1_dropShadow_42_1537" result="shape"/>
</filter>
<filter id="filter6_d_42_1537" x="134.168" y="389.259" width="47.8506" height="47.8503" filterUnits="userSpaceOnUse" color-interpolation-filters="sRGB">
<feFlood flood-opacity="0" result="BackgroundImageFix"/>
<feColorMatrix in="SourceAlpha" type="matrix" values="0 0 0 0 0 0 0 0 0 0 0 0 0 0 0 0 0 0 127 0" result="hardAlpha"/>
<feOffset dy="4"/>
<feGaussianBlur stdDeviation="2"/>
<feComposite in2="hardAlpha" operator="out"/>
<feColorMatrix type="matrix" values="0 0 0 0 0 0 0 0 0 0 0 0 0 0 0 0 0 0 0.8 0"/>
<feBlend mode="normal" in2="BackgroundImageFix" result="effect1_dropShadow_42_1537"/>
<feBlend mode="normal" in="SourceGraphic" in2="effect1_dropShadow_42_1537" result="shape"/>
</filter>
<filter id="filter7_d_42_1537" x="259" y="270.32" width="322" height="144" filterUnits="userSpaceOnUse" color-interpolation-filters="sRGB">
<feFlood flood-opacity="0" result="BackgroundImageFix"/>
<feColorMatrix in="SourceAlpha" type="matrix" values="0 0 0 0 0 0 0 0 0 0 0 0 0 0 0 0 0 0 127 0" result="hardAlpha"/>
<feOffset dy="4"/>
<feGaussianBlur stdDeviation="2"/>
<feComposite in2="hardAlpha" operator="out"/>
<feColorMatrix type="matrix" values="0 0 0 0 0 0 0 0 0 0 0 0 0 0 0 0 0 0 0.5 0"/>
<feBlend mode="normal" in2="BackgroundImageFix" result="effect1_dropShadow_42_1537"/>
<feBlend mode="normal" in="SourceGraphic" in2="effect1_dropShadow_42_1537" result="shape"/>
</filter>
<linearGradient id="paint0_linear_42_1537" x1="577" y1="399.083" x2="713.022" y2="397.906" gradientUnits="userSpaceOnUse">
<stop stop-color="#00FFE8"/>
<stop offset="1" stop-color="#00FFE8" stop-opacity="0"/>
</linearGradient>
</defs>
</svg>
