<svg width="65" height="42" viewBox="0 0 65 42" fill="none" xmlns="http://www.w3.org/2000/svg">
<path d="M56.1364 5.25C56.1364 5.25 49.3631 0.54075 41.3636 0L40.6427 1.281C47.8755 2.85337 51.1934 5.10694 54.6591 7.875C48.6835 5.16469 42.7833 2.625 32.5 2.625C22.2167 2.625 16.3165 5.16469 10.3409 7.875C13.8066 5.10694 17.7539 2.60531 24.3573 1.281L23.6364 0C15.244 0.704813 8.86364 5.25 8.86364 5.25C8.86364 5.25 1.29852 14.9953 0 34.125C7.62568 41.9383 19.2045 42 19.2045 42L21.6258 39.1322C17.516 37.863 12.8744 35.5963 8.86364 31.5C13.647 34.7156 20.8665 38.0625 32.5 38.0625C44.1335 38.0625 51.353 34.7156 56.1364 31.5C52.1256 35.5963 47.484 37.863 43.3742 39.1322L45.7955 42C45.7955 42 57.3743 41.9383 65 34.125C63.7015 14.9953 56.1364 5.25 56.1364 5.25ZM22.8977 28.875C20.0422 28.875 17.7273 26.5243 17.7273 23.625C17.7273 20.7257 20.0422 18.375 22.8977 18.375C25.7533 18.375 28.0682 20.7257 28.0682 23.625C28.0682 26.5243 25.7533 28.875 22.8977 28.875ZM42.1023 28.875C39.2467 28.875 36.9318 26.5243 36.9318 23.625C36.9318 20.7257 39.2467 18.375 42.1023 18.375C44.9578 18.375 47.2727 20.7257 47.2727 23.625C47.2727 26.5243 44.9578 28.875 42.1023 28.875Z" fill="#516678"/>
</svg>
