<svg width="159" height="52" viewBox="0 0 159 52" fill="none" xmlns="http://www.w3.org/2000/svg">
<g filter="url(#filter0_d_456_59)">
<rect x="4" width="151" height="44" rx="8" fill="white"/>
</g>
<path d="M53.9453 11.0938V13.2656C53.8646 13.3724 53.7383 13.4896 53.5664 13.6172C53.3971 13.7422 53.1719 13.8503 52.8906 13.9414C52.6094 14.0326 52.2591 14.0781 51.8398 14.0781C51.4831 14.0781 51.1562 14.0182 50.8594 13.8984C50.5625 13.776 50.306 13.5977 50.0898 13.3633C49.8763 13.1289 49.7109 12.8438 49.5938 12.5078C49.4766 12.1693 49.418 11.7839 49.418 11.3516V10.957C49.418 10.5273 49.4714 10.1445 49.5781 9.80859C49.6875 9.47005 49.8438 9.18359 50.0469 8.94922C50.25 8.71484 50.4948 8.53776 50.7812 8.41797C51.0703 8.29557 51.3971 8.23438 51.7617 8.23438C52.2279 8.23438 52.6133 8.3125 52.918 8.46875C53.2253 8.6224 53.4622 8.83594 53.6289 9.10938C53.7956 9.38281 53.901 9.69531 53.9453 10.0469H52.9844C52.9531 9.84896 52.8919 9.67188 52.8008 9.51562C52.7122 9.35938 52.5846 9.23698 52.418 9.14844C52.2539 9.05729 52.0404 9.01172 51.7773 9.01172C51.5508 9.01172 51.3516 9.05469 51.1797 9.14062C51.0078 9.22656 50.8646 9.35286 50.75 9.51953C50.638 9.6862 50.5534 9.88932 50.4961 10.1289C50.4388 10.3685 50.4102 10.6419 50.4102 10.9492V11.3516C50.4102 11.6641 50.4427 11.9414 50.5078 12.1836C50.5755 12.4258 50.6719 12.6302 50.7969 12.7969C50.9245 12.9635 51.0794 13.0898 51.2617 13.1758C51.444 13.2591 51.6497 13.3008 51.8789 13.3008C52.1029 13.3008 52.2865 13.2826 52.4297 13.2461C52.5729 13.207 52.6862 13.1615 52.7695 13.1094C52.8555 13.0547 52.9219 13.0026 52.9688 12.9531V11.8242H51.7852V11.0938H53.9453ZM58.7539 13.2227V14H55.7344V13.2227H58.7539ZM56.0117 8.3125V14H55.0312V8.3125H56.0117ZM58.3594 10.6875V11.4531H55.7344V10.6875H58.3594ZM58.7344 8.3125V9.09375H55.7344V8.3125H58.7344ZM61.9727 8.3125V14H61V8.3125H61.9727ZM63.7578 8.3125V9.09375H59.2305V8.3125H63.7578ZM67.3594 8.3125V14H66.3789V8.3125H67.3594ZM70.8008 8.3125V14H69.8281V8.3125H70.8008ZM72.5859 8.3125V9.09375H68.0586V8.3125H72.5859ZM79.6758 11V11.3125C79.6758 11.7422 79.6198 12.1276 79.5078 12.4688C79.3958 12.8099 79.2357 13.1003 79.0273 13.3398C78.8216 13.5794 78.5742 13.763 78.2852 13.8906C77.9961 14.0156 77.6758 14.0781 77.3242 14.0781C76.9753 14.0781 76.6562 14.0156 76.3672 13.8906C76.0807 13.763 75.832 13.5794 75.6211 13.3398C75.4102 13.1003 75.2461 12.8099 75.1289 12.4688C75.0143 12.1276 74.957 11.7422 74.957 11.3125V11C74.957 10.5703 75.0143 10.1862 75.1289 9.84766C75.2435 9.50651 75.4049 9.21615 75.6133 8.97656C75.8242 8.73438 76.0729 8.55078 76.3594 8.42578C76.6484 8.29818 76.9674 8.23438 77.3164 8.23438C77.668 8.23438 77.9883 8.29818 78.2773 8.42578C78.5664 8.55078 78.8151 8.73438 79.0234 8.97656C79.2318 9.21615 79.3919 9.50651 79.5039 9.84766C79.6185 10.1862 79.6758 10.5703 79.6758 11ZM78.6953 11.3125V10.9922C78.6953 10.6745 78.6641 10.3945 78.6016 10.1523C78.5417 9.90755 78.4518 9.70312 78.332 9.53906C78.2148 9.3724 78.0703 9.2474 77.8984 9.16406C77.7266 9.07812 77.5326 9.03516 77.3164 9.03516C77.1003 9.03516 76.9076 9.07812 76.7383 9.16406C76.569 9.2474 76.4245 9.3724 76.3047 9.53906C76.1875 9.70312 76.0977 9.90755 76.0352 10.1523C75.9727 10.3945 75.9414 10.6745 75.9414 10.9922V11.3125C75.9414 11.6302 75.9727 11.9115 76.0352 12.1562C76.0977 12.401 76.1888 12.6081 76.3086 12.7773C76.431 12.944 76.5768 13.0703 76.7461 13.1562C76.9154 13.2396 77.1081 13.2812 77.3242 13.2812C77.543 13.2812 77.737 13.2396 77.9062 13.1562C78.0755 13.0703 78.2188 12.944 78.3359 12.7773C78.4531 12.6081 78.5417 12.401 78.6016 12.1562C78.6641 11.9115 78.6953 11.6302 78.6953 11.3125ZM85.168 8.3125V14H84.1875L81.6367 9.92578V14H80.6562V8.3125H81.6367L84.1953 12.3945V8.3125H85.168Z" fill="#808285"/>
<path d="M60.127 28.4609V33.3477C59.9453 33.5879 59.6611 33.8516 59.2744 34.1387C58.8936 34.4199 58.3867 34.6631 57.7539 34.8682C57.1211 35.0732 56.333 35.1758 55.3896 35.1758C54.5869 35.1758 53.8516 35.041 53.1836 34.7715C52.5156 34.4961 51.9385 34.0947 51.4521 33.5674C50.9717 33.04 50.5996 32.3984 50.3359 31.6426C50.0723 30.8809 49.9404 30.0137 49.9404 29.041V28.1533C49.9404 27.1865 50.0605 26.3252 50.3008 25.5693C50.5469 24.8076 50.8984 24.1631 51.3555 23.6357C51.8125 23.1084 52.3633 22.71 53.0078 22.4404C53.6582 22.165 54.3936 22.0273 55.2139 22.0273C56.2627 22.0273 57.1299 22.2031 57.8154 22.5547C58.5068 22.9004 59.04 23.3809 59.415 23.9961C59.79 24.6113 60.0273 25.3145 60.127 26.1055H57.9648C57.8945 25.6602 57.7568 25.2617 57.5518 24.9102C57.3525 24.5586 57.0654 24.2832 56.6904 24.084C56.3213 23.8789 55.8408 23.7764 55.249 23.7764C54.7393 23.7764 54.291 23.873 53.9043 24.0664C53.5176 24.2598 53.1953 24.5439 52.9375 24.9189C52.6855 25.2939 52.4951 25.751 52.3662 26.29C52.2373 26.8291 52.1729 27.4443 52.1729 28.1357V29.041C52.1729 29.7441 52.2461 30.3682 52.3926 30.9131C52.5449 31.458 52.7617 31.918 53.043 32.293C53.3301 32.668 53.6787 32.9521 54.0889 33.1455C54.499 33.333 54.9619 33.4268 55.4775 33.4268C55.9814 33.4268 56.3945 33.3857 56.7168 33.3037C57.0391 33.2158 57.2939 33.1133 57.4814 32.9961C57.6748 32.873 57.8242 32.7559 57.9297 32.6445V30.1045H55.2666V28.4609H60.127ZM61.9551 30.3506V30.1484C61.9551 29.4629 62.0547 28.8271 62.2539 28.2412C62.4531 27.6494 62.7402 27.1367 63.1152 26.7031C63.4961 26.2637 63.959 25.9238 64.5039 25.6836C65.0547 25.4375 65.6758 25.3145 66.3672 25.3145C67.0645 25.3145 67.6855 25.4375 68.2305 25.6836C68.7812 25.9238 69.2471 26.2637 69.6279 26.7031C70.0088 27.1367 70.2988 27.6494 70.498 28.2412C70.6973 28.8271 70.7969 29.4629 70.7969 30.1484V30.3506C70.7969 31.0361 70.6973 31.6719 70.498 32.2578C70.2988 32.8438 70.0088 33.3564 69.6279 33.7959C69.2471 34.2295 68.7842 34.5693 68.2393 34.8154C67.6943 35.0557 67.0762 35.1758 66.3848 35.1758C65.6875 35.1758 65.0635 35.0557 64.5127 34.8154C63.9678 34.5693 63.5049 34.2295 63.124 33.7959C62.7432 33.3564 62.4531 32.8438 62.2539 32.2578C62.0547 31.6719 61.9551 31.0361 61.9551 30.3506ZM64.0732 30.1484V30.3506C64.0732 30.7783 64.1172 31.1826 64.2051 31.5635C64.293 31.9443 64.4307 32.2783 64.6182 32.5654C64.8057 32.8525 65.0459 33.0781 65.3389 33.2422C65.6318 33.4062 65.9805 33.4883 66.3848 33.4883C66.7773 33.4883 67.1172 33.4062 67.4043 33.2422C67.6973 33.0781 67.9375 32.8525 68.125 32.5654C68.3125 32.2783 68.4502 31.9443 68.5381 31.5635C68.6318 31.1826 68.6787 30.7783 68.6787 30.3506V30.1484C68.6787 29.7266 68.6318 29.3281 68.5381 28.9531C68.4502 28.5723 68.3096 28.2354 68.1162 27.9424C67.9287 27.6494 67.6885 27.4209 67.3955 27.2568C67.1084 27.0869 66.7656 27.002 66.3672 27.002C65.9688 27.002 65.623 27.0869 65.3301 27.2568C65.043 27.4209 64.8057 27.6494 64.6182 27.9424C64.4307 28.2354 64.293 28.5723 64.2051 28.9531C64.1172 29.3281 64.0732 29.7266 64.0732 30.1484ZM72.168 30.3506V30.1484C72.168 29.4629 72.2676 28.8271 72.4668 28.2412C72.666 27.6494 72.9531 27.1367 73.3281 26.7031C73.709 26.2637 74.1719 25.9238 74.7168 25.6836C75.2676 25.4375 75.8887 25.3145 76.5801 25.3145C77.2773 25.3145 77.8984 25.4375 78.4434 25.6836C78.9941 25.9238 79.46 26.2637 79.8408 26.7031C80.2217 27.1367 80.5117 27.6494 80.7109 28.2412C80.9102 28.8271 81.0098 29.4629 81.0098 30.1484V30.3506C81.0098 31.0361 80.9102 31.6719 80.7109 32.2578C80.5117 32.8438 80.2217 33.3564 79.8408 33.7959C79.46 34.2295 78.9971 34.5693 78.4521 34.8154C77.9072 35.0557 77.2891 35.1758 76.5977 35.1758C75.9004 35.1758 75.2764 35.0557 74.7256 34.8154C74.1807 34.5693 73.7178 34.2295 73.3369 33.7959C72.9561 33.3564 72.666 32.8438 72.4668 32.2578C72.2676 31.6719 72.168 31.0361 72.168 30.3506ZM74.2861 30.1484V30.3506C74.2861 30.7783 74.3301 31.1826 74.418 31.5635C74.5059 31.9443 74.6436 32.2783 74.8311 32.5654C75.0186 32.8525 75.2588 33.0781 75.5518 33.2422C75.8447 33.4062 76.1934 33.4883 76.5977 33.4883C76.9902 33.4883 77.3301 33.4062 77.6172 33.2422C77.9102 33.0781 78.1504 32.8525 78.3379 32.5654C78.5254 32.2783 78.6631 31.9443 78.751 31.5635C78.8447 31.1826 78.8916 30.7783 78.8916 30.3506V30.1484C78.8916 29.7266 78.8447 29.3281 78.751 28.9531C78.6631 28.5723 78.5225 28.2354 78.3291 27.9424C78.1416 27.6494 77.9014 27.4209 77.6084 27.2568C77.3213 27.0869 76.9785 27.002 76.5801 27.002C76.1816 27.002 75.8359 27.0869 75.543 27.2568C75.2559 27.4209 75.0186 27.6494 74.8311 27.9424C74.6436 28.2354 74.5059 28.5723 74.418 28.9531C74.3301 29.3281 74.2861 29.7266 74.2861 30.1484ZM88.876 25.4902H90.8008V34.7363C90.8008 35.5918 90.6191 36.3184 90.2559 36.916C89.8926 37.5137 89.3857 37.9678 88.7354 38.2783C88.085 38.5947 87.332 38.7529 86.4766 38.7529C86.1133 38.7529 85.709 38.7002 85.2637 38.5947C84.8242 38.4893 84.3965 38.3193 83.9805 38.085C83.5703 37.8564 83.2275 37.5547 82.9521 37.1797L83.9453 35.9316C84.2852 36.3359 84.6602 36.6318 85.0703 36.8193C85.4805 37.0068 85.9111 37.1006 86.3623 37.1006C86.8486 37.1006 87.2617 37.0098 87.6016 36.8281C87.9473 36.6523 88.2139 36.3916 88.4014 36.0459C88.5889 35.7002 88.6826 35.2783 88.6826 34.7803V27.6436L88.876 25.4902ZM82.416 30.3506V30.166C82.416 29.4453 82.5039 28.7891 82.6797 28.1973C82.8555 27.5996 83.1074 27.0869 83.4355 26.6592C83.7637 26.2256 84.1621 25.8945 84.6309 25.666C85.0996 25.4316 85.6299 25.3145 86.2217 25.3145C86.8369 25.3145 87.3613 25.4258 87.7949 25.6484C88.2344 25.8711 88.6006 26.1904 88.8936 26.6064C89.1865 27.0166 89.415 27.5088 89.5791 28.083C89.749 28.6514 89.875 29.2842 89.957 29.9814V30.5703C89.8809 31.25 89.752 31.8711 89.5703 32.4336C89.3887 32.9961 89.1484 33.4824 88.8496 33.8926C88.5508 34.3027 88.1816 34.6191 87.7422 34.8418C87.3086 35.0645 86.7959 35.1758 86.2041 35.1758C85.624 35.1758 85.0996 35.0557 84.6309 34.8154C84.168 34.5752 83.7695 34.2383 83.4355 33.8047C83.1074 33.3711 82.8555 32.8613 82.6797 32.2754C82.5039 31.6836 82.416 31.042 82.416 30.3506ZM84.5342 30.166V30.3506C84.5342 30.7842 84.5752 31.1885 84.6572 31.5635C84.7451 31.9385 84.877 32.2695 85.0527 32.5566C85.2344 32.8379 85.4629 33.0605 85.7383 33.2246C86.0195 33.3828 86.3506 33.4619 86.7314 33.4619C87.2295 33.4619 87.6367 33.3564 87.9531 33.1455C88.2754 32.9346 88.5215 32.6504 88.6914 32.293C88.8672 31.9297 88.9902 31.5254 89.0605 31.0801V29.4893C89.0254 29.1436 88.9521 28.8213 88.8408 28.5225C88.7354 28.2236 88.5918 27.9629 88.4102 27.7402C88.2285 27.5117 88 27.3359 87.7246 27.2129C87.4492 27.084 87.124 27.0195 86.749 27.0195C86.3682 27.0195 86.0371 27.1016 85.7559 27.2656C85.4746 27.4297 85.2432 27.6553 85.0615 27.9424C84.8857 28.2295 84.7539 28.5635 84.666 28.9443C84.5781 29.3252 84.5342 29.7324 84.5342 30.166ZM95.2656 21.5V35H93.1387V21.5H95.2656ZM101.778 35.1758C101.075 35.1758 100.439 35.0615 99.8711 34.833C99.3086 34.5986 98.8281 34.2734 98.4297 33.8574C98.0371 33.4414 97.7354 32.9521 97.5244 32.3896C97.3135 31.8271 97.208 31.2207 97.208 30.5703V30.2188C97.208 29.4746 97.3164 28.8008 97.5332 28.1973C97.75 27.5938 98.0518 27.0781 98.4385 26.6504C98.8252 26.2168 99.2822 25.8857 99.8096 25.6572C100.337 25.4287 100.908 25.3145 101.523 25.3145C102.203 25.3145 102.798 25.4287 103.308 25.6572C103.817 25.8857 104.239 26.208 104.573 26.624C104.913 27.0342 105.165 27.5234 105.329 28.0918C105.499 28.6602 105.584 29.2871 105.584 29.9727V30.8779H98.2363V29.3574H103.492V29.1904C103.48 28.8096 103.404 28.4521 103.264 28.1182C103.129 27.7842 102.921 27.5146 102.64 27.3096C102.358 27.1045 101.983 27.002 101.515 27.002C101.163 27.002 100.85 27.0781 100.574 27.2305C100.305 27.377 100.079 27.5908 99.8975 27.8721C99.7158 28.1533 99.5752 28.4932 99.4756 28.8916C99.3818 29.2842 99.335 29.7266 99.335 30.2188V30.5703C99.335 30.9863 99.3906 31.373 99.502 31.7305C99.6191 32.082 99.7891 32.3896 100.012 32.6533C100.234 32.917 100.504 33.125 100.82 33.2773C101.137 33.4238 101.497 33.4971 101.901 33.4971C102.411 33.4971 102.865 33.3945 103.264 33.1895C103.662 32.9844 104.008 32.6943 104.301 32.3193L105.417 33.4004C105.212 33.6992 104.945 33.9863 104.617 34.2617C104.289 34.5312 103.888 34.751 103.413 34.9209C102.944 35.0908 102.399 35.1758 101.778 35.1758ZM116.79 30.2275H113.459V28.4785H116.79C117.37 28.4785 117.839 28.3848 118.196 28.1973C118.554 28.0098 118.814 27.752 118.979 27.4238C119.148 27.0898 119.233 26.709 119.233 26.2812C119.233 25.877 119.148 25.499 118.979 25.1475C118.814 24.79 118.554 24.5029 118.196 24.2861C117.839 24.0693 117.37 23.9609 116.79 23.9609H114.136V35H111.93V22.2031H116.79C117.78 22.2031 118.621 22.3789 119.312 22.7305C120.01 23.0762 120.54 23.5566 120.903 24.1719C121.267 24.7812 121.448 25.4785 121.448 26.2637C121.448 27.0898 121.267 27.7988 120.903 28.3906C120.54 28.9824 120.01 29.4365 119.312 29.7529C118.621 30.0693 117.78 30.2275 116.79 30.2275ZM125.482 21.5V35H123.355V21.5H125.482ZM133.164 33.0928V28.5576C133.164 28.2178 133.103 27.9248 132.979 27.6787C132.856 27.4326 132.669 27.2422 132.417 27.1074C132.171 26.9727 131.86 26.9053 131.485 26.9053C131.14 26.9053 130.841 26.9639 130.589 27.0811C130.337 27.1982 130.141 27.3564 130 27.5557C129.859 27.7549 129.789 27.9805 129.789 28.2324H127.68C127.68 27.8574 127.771 27.4941 127.952 27.1426C128.134 26.791 128.397 26.4775 128.743 26.2021C129.089 25.9268 129.502 25.71 129.982 25.5518C130.463 25.3936 131.002 25.3145 131.6 25.3145C132.314 25.3145 132.947 25.4346 133.498 25.6748C134.055 25.915 134.491 26.2783 134.808 26.7646C135.13 27.2451 135.291 27.8486 135.291 28.5752V32.8027C135.291 33.2363 135.32 33.626 135.379 33.9717C135.443 34.3115 135.534 34.6074 135.651 34.8594V35H133.48C133.381 34.7715 133.302 34.4814 133.243 34.1299C133.19 33.7725 133.164 33.4268 133.164 33.0928ZM133.472 29.2168L133.489 30.5264H131.969C131.576 30.5264 131.23 30.5645 130.932 30.6406C130.633 30.7109 130.384 30.8164 130.185 30.957C129.985 31.0977 129.836 31.2676 129.736 31.4668C129.637 31.666 129.587 31.8916 129.587 32.1436C129.587 32.3955 129.646 32.627 129.763 32.8379C129.88 33.043 130.05 33.2041 130.272 33.3213C130.501 33.4385 130.776 33.4971 131.099 33.4971C131.532 33.4971 131.91 33.4092 132.232 33.2334C132.561 33.0518 132.818 32.832 133.006 32.5742C133.193 32.3105 133.293 32.0615 133.305 31.8271L133.99 32.7676C133.92 33.0078 133.8 33.2656 133.63 33.541C133.46 33.8164 133.237 34.0801 132.962 34.332C132.692 34.5781 132.367 34.7803 131.986 34.9385C131.611 35.0967 131.178 35.1758 130.686 35.1758C130.064 35.1758 129.511 35.0527 129.024 34.8066C128.538 34.5547 128.157 34.2178 127.882 33.7959C127.606 33.3682 127.469 32.8848 127.469 32.3457C127.469 31.8418 127.562 31.3965 127.75 31.0098C127.943 30.6172 128.225 30.2891 128.594 30.0254C128.969 29.7617 129.426 29.5625 129.965 29.4277C130.504 29.2871 131.119 29.2168 131.811 29.2168H133.472ZM140.125 33.9629L142.709 25.4902H144.977L141.162 36.4502C141.074 36.6846 140.96 36.9395 140.819 37.2148C140.679 37.4902 140.494 37.751 140.266 37.9971C140.043 38.249 139.765 38.4512 139.431 38.6035C139.097 38.7617 138.692 38.8408 138.218 38.8408C138.03 38.8408 137.849 38.8232 137.673 38.7881C137.503 38.7588 137.342 38.7266 137.189 38.6914L137.181 37.0742C137.239 37.0801 137.31 37.0859 137.392 37.0918C137.479 37.0977 137.55 37.1006 137.603 37.1006C137.954 37.1006 138.247 37.0566 138.481 36.9688C138.716 36.8867 138.906 36.752 139.053 36.5645C139.205 36.377 139.334 36.125 139.439 35.8086L140.125 33.9629ZM138.666 25.4902L140.925 32.6094L141.303 34.8418L139.835 35.2197L136.381 25.4902H138.666Z" fill="#808285"/>
<path d="M14.5245 8.45433C14.1564 8.89597 13.9702 9.4612 14.0039 10.0351V34.9684C13.9722 35.5421 14.1581 36.1066 14.5245 36.5492L14.6097 36.6344L28.5719 22.6627V22.3314L14.6097 8.36914L14.5245 8.45433Z" fill="url(#paint0_linear_456_59)"/>
<path d="M33.2285 27.3199L28.5713 22.6627V22.3314L33.2285 17.6836L33.3326 17.7404L38.8513 20.8736C40.4321 21.7634 40.4321 23.2306 38.8513 24.1299L33.3326 27.2631L33.2285 27.3199Z" fill="url(#paint1_linear_456_59)"/>
<path d="M33.3332 27.263L28.6002 22.53L14.5244 36.5491C14.8489 36.8158 15.2528 36.9671 15.6727 36.9791C16.0925 36.9911 16.5044 36.8631 16.8436 36.6153L33.3048 27.263" fill="url(#paint2_linear_456_59)"/>
<path d="M33.3332 17.7404L16.8436 8.37857C16.5081 8.12063 16.0934 7.98716 15.6704 8.00097C15.2474 8.01479 14.8424 8.17502 14.5244 8.4543L28.5718 22.5017L33.3332 17.7404Z" fill="url(#paint3_linear_456_59)"/>
<path opacity="0.1" d="M33.2292 27.1589L16.8436 36.4545C16.5168 36.698 16.1201 36.8296 15.7125 36.8296C15.3049 36.8296 14.9081 36.698 14.5813 36.4545L14.4961 36.5397L14.5813 36.6249C14.9081 36.8684 15.3049 37 15.7125 37C16.1201 37 16.5168 36.8684 16.8436 36.6249L33.3049 27.2725L33.2292 27.1589Z" fill="black"/>
<path opacity="0.07" d="M14.5242 36.3976C14.1572 35.9517 13.9713 35.384 14.0036 34.8074V34.9683C13.9719 35.542 14.1578 36.1065 14.5242 36.5491L14.6094 36.4639L14.5242 36.3976Z" fill="black"/>
<path opacity="0.07" d="M38.8513 23.9595L33.2285 27.159L33.3326 27.2631L38.8513 24.092C39.175 23.9497 39.4551 23.7239 39.663 23.4379C39.8709 23.1518 39.9991 22.8157 40.0345 22.4639C39.9699 22.7891 39.829 23.0943 39.6232 23.3543C39.4175 23.6144 39.1529 23.8218 38.8513 23.9595Z" fill="black"/>
<path opacity="0.3" d="M16.8437 8.54885L38.852 21.0344C39.1507 21.1687 39.4135 21.3715 39.6191 21.6265C39.8247 21.8814 39.9672 22.1812 40.0352 22.5016C40.0017 22.1492 39.8742 21.8122 39.6661 21.5258C39.458 21.2395 39.1768 21.0142 38.852 20.8735L16.8437 8.37846C15.2913 7.48866 14.0039 8.227 14.0039 10.035V10.1959C14.0039 8.39739 15.2913 7.64958 16.8437 8.54885Z" fill="white"/>
<defs>
<filter id="filter0_d_456_59" x="0" y="0" width="159" height="52" filterUnits="userSpaceOnUse" color-interpolation-filters="sRGB">
<feFlood flood-opacity="0" result="BackgroundImageFix"/>
<feColorMatrix in="SourceAlpha" type="matrix" values="0 0 0 0 0 0 0 0 0 0 0 0 0 0 0 0 0 0 127 0" result="hardAlpha"/>
<feOffset dy="4"/>
<feGaussianBlur stdDeviation="2"/>
<feComposite in2="hardAlpha" operator="out"/>
<feColorMatrix type="matrix" values="0 0 0 0 0 0 0 0 0 0 0 0 0 0 0 0 0 0 0.25 0"/>
<feBlend mode="normal" in2="BackgroundImageFix" result="effect1_dropShadow_456_59"/>
<feBlend mode="normal" in="SourceGraphic" in2="effect1_dropShadow_456_59" result="shape"/>
</filter>
<linearGradient id="paint0_linear_456_59" x1="27.3414" y1="9.7701" x2="8.41898" y2="28.6925" gradientUnits="userSpaceOnUse">
<stop stop-color="#008EFF"/>
<stop offset="0.01" stop-color="#008FFF"/>
<stop offset="0.26" stop-color="#00ACFF"/>
<stop offset="0.51" stop-color="#00C0FF"/>
<stop offset="0.76" stop-color="#00CDFF"/>
<stop offset="1" stop-color="#00D1FF"/>
</linearGradient>
<linearGradient id="paint1_linear_456_59" x1="39.0406" y1="22.5017" x2="11.7598" y2="22.5017" gradientUnits="userSpaceOnUse">
<stop stop-color="#FFD800"/>
<stop offset="1" stop-color="#FF8A00"/>
</linearGradient>
<linearGradient id="paint2_linear_456_59" x1="30.749" y1="25.0858" x2="5.09636" y2="50.7385" gradientUnits="userSpaceOnUse">
<stop stop-color="#FF3A44"/>
<stop offset="1" stop-color="#B11162"/>
</linearGradient>
<linearGradient id="paint3_linear_456_59" x1="10.9842" y1="0.152685" x2="22.4474" y2="11.6065" gradientUnits="userSpaceOnUse">
<stop stop-color="#328E71"/>
<stop offset="0.07" stop-color="#2D9571"/>
<stop offset="0.48" stop-color="#15BD74"/>
<stop offset="0.8" stop-color="#06D575"/>
<stop offset="1" stop-color="#00DE76"/>
</linearGradient>
</defs>
</svg>
