<svg width="19" height="10" viewBox="0 0 19 10" fill="none" xmlns="http://www.w3.org/2000/svg">
<path d="M3.11011 1.72827L8.46948 1.72827" stroke="#00FFE7" stroke-opacity="0.4" stroke-width="0.6" stroke-linecap="round"/>
<path d="M4.31885 4.32251L8.46804 4.32251" stroke="#00FFE7" stroke-opacity="0.4" stroke-width="0.6" stroke-linecap="round"/>
<path d="M1.73193 2.93701L8.47437 2.93701" stroke="#00FFE7" stroke-opacity="0.4" stroke-width="0.6" stroke-linecap="round"/>
<path d="M10.5364 6.55547C10.6264 6.36803 10.7513 6.20183 10.9036 6.06692C11.0559 5.93202 11.2324 5.83119 11.4226 5.77054C11.6127 5.70989 11.8125 5.69068 12.0098 5.71405C12.2072 5.73743 12.398 5.80291 12.5708 5.90655C12.7436 6.01019 12.8947 6.14983 13.0151 6.31704C13.1355 6.48425 13.2226 6.67556 13.2712 6.87942C13.3199 7.08328 13.3289 7.29545 13.298 7.50314C13.267 7.71082 13.1966 7.9097 13.091 8.08776L11.8465 7.26035L10.5364 6.55547Z" fill="#00FFE7" fill-opacity="0.65"/>
<path d="M13.316 7.26035C13.316 6.9643 13.2362 6.67439 13.086 6.42467C12.9358 6.17494 12.7215 5.97576 12.4682 5.85051L11.8465 7.26035H13.316Z" fill="#00FFE8" fill-opacity="0.78"/>
<path d="M10.5412 6.5456C10.433 6.76717 10.3766 7.01303 10.377 7.26247C10.3773 7.5119 10.4342 7.75761 10.543 7.97886C10.6518 8.20011 10.8092 8.39042 11.002 8.53376C11.1948 8.67709 11.4174 8.76925 11.6508 8.80245L11.8465 7.26035L10.5412 6.5456Z" fill="#00FFE8" fill-opacity="0.24"/>
<path d="M11.6581 8.80346C11.9354 8.84141 12.2171 8.79481 12.4703 8.66913C12.7235 8.54345 12.9375 8.3439 13.0873 8.09391L11.8465 7.26035L11.6581 8.80346Z" fill="#00FFE8" fill-opacity="0.21"/>
<path d="M11.6581 8.80346C11.9354 8.84141 12.2171 8.79481 12.4703 8.66913C12.7235 8.54345 12.9375 8.3439 13.0873 8.09391L11.8465 7.26035L11.6581 8.80346Z" fill="#00FFE8" fill-opacity="0.21"/>
<rect x="5.18848" y="5.70441" width="0.864414" height="2.59324" rx="0.432207" fill="#00FFE8" fill-opacity="0.76"/>
<rect x="4.14941" y="6.91669" width="0.691531" height="1.38306" rx="0.345766" fill="#00FFE8" fill-opacity="0.51"/>
<rect x="2.94067" y="7.43274" width="0.864414" height="0.864414" rx="0.432207" fill="#06CEC5" fill-opacity="0.17"/>
<path d="M5.23053 0.300786L10.7305 0.364739C13.2953 0.394562 15.3032 2.58205 15.1137 5.14001C14.9417 7.46224 13.0074 9.25856 10.6788 9.25856H5.17845C2.54464 9.25856 0.479354 6.99701 0.717808 4.37401C0.929351 2.04704 2.89412 0.273618 5.23053 0.300786Z" stroke="#00FFE8" stroke-width="0.5"/>
<rect x="14.5305" y="5.4864" width="4.92716" height="0.432207" rx="0.216104" transform="rotate(32.1702 14.5305 5.4864)" fill="#153655" stroke="#00FFE8" stroke-width="0.432207"/>
<path d="M14.7885 3.89108C14.7885 5.5259 13.5008 6.83942 11.9266 6.83942C10.3524 6.83942 9.0647 5.5259 9.0647 3.89108C9.0647 2.25626 10.3524 0.942749 11.9266 0.942749C13.5008 0.942749 14.7885 2.25626 14.7885 3.89108Z" fill="#00FFE7" fill-opacity="0.1" stroke="#00FFE8" stroke-width="0.5"/>
<circle cx="13.8311" cy="3.87846" r="0.259324" fill="#00FFE8" fill-opacity="0.4"/>
<path d="M9.95264 2.71436C10.1883 2.41276 10.8744 1.80957 11.7339 1.80957C12.8084 1.80957 13.487 2.49368 13.5718 2.60402" stroke="#00FFE7" stroke-opacity="0.4" stroke-width="0.4" stroke-linecap="round"/>
</svg>
