<svg width="12" height="16" viewBox="0 0 12 16" fill="none" xmlns="http://www.w3.org/2000/svg">
<rect y="3.76819" width="2.53821" height="12.2279" rx="1.2691" fill="#00FFE8" fill-opacity="0.25"/>
<rect x="3.22656" y="6.99731" width="2.53821" height="8.9979" rx="1.2691" fill="#00FFE8" fill-opacity="0.5"/>
<rect x="6.46094" y="10.9231" width="2.30746" height="5.07574" rx="1.15373" fill="#00FFE8" fill-opacity="0.75"/>
<rect x="9.46094" y="12.5377" width="2.53821" height="3.46073" rx="1.2691" fill="#00FFE8"/>
<path d="M2.30928 1.8075L2.48659 1.71498L2.45087 1.64652L2.37841 1.61983L2.30928 1.8075ZM3.69375 4.46073L3.51644 4.55325L3.53946 4.59736L3.58046 4.62555L3.69375 4.46073ZM7.38569 6.9986L7.53051 6.86066L7.51615 6.84558L7.49899 6.83378L7.38569 6.9986ZM9.69315 9.42111L9.54833 9.55905L9.5791 9.59135L9.62067 9.60751L9.69315 9.42111ZM11.7699 10.2286L10.3243 8.4276L9.48736 10.58L11.7699 10.2286ZM0.0480546 1.18767L2.24014 1.99518L2.37841 1.61983L0.18632 0.812328L0.0480546 1.18767ZM2.13196 1.90003L3.51644 4.55325L3.87106 4.36821L2.48659 1.71498L2.13196 1.90003ZM3.58046 4.62555L7.27239 7.16341L7.49899 6.83378L3.80705 4.29591L3.58046 4.62555ZM7.24087 7.13654L9.54833 9.55905L9.83797 9.28317L7.53051 6.86066L7.24087 7.13654ZM9.62067 9.60751L10.0197 9.76269L10.1647 9.38988L9.76563 9.2347L9.62067 9.60751Z" fill="#00FFE8"/>
</svg>
