<svg width="136" height="67" viewBox="0 0 136 67" fill="none" xmlns="http://www.w3.org/2000/svg">
<path d="M65.6963 21.3457V25.0688H63.8652V21.3457H65.6963ZM65.4766 41.2798V44.5391H63.6577V41.2798H65.4766ZM67.918 37.4224C67.918 36.9341 67.8081 36.4946 67.5884 36.104C67.3687 35.7134 67.0065 35.3553 66.502 35.0298C65.9974 34.7043 65.3219 34.4032 64.4756 34.1265C63.4502 33.8091 62.5632 33.4225 61.8145 32.9668C61.0739 32.5111 60.5002 31.9455 60.0933 31.27C59.6945 30.5946 59.4951 29.7767 59.4951 28.8164C59.4951 27.8154 59.7108 26.9528 60.1421 26.2285C60.5734 25.5042 61.1838 24.9468 61.9731 24.5562C62.7625 24.1655 63.6903 23.9702 64.7563 23.9702C65.5864 23.9702 66.327 24.0964 66.978 24.3486C67.6291 24.5928 68.1784 24.959 68.626 25.4473C69.0817 25.9355 69.4276 26.5337 69.6636 27.2417C69.9077 27.9497 70.0298 28.7676 70.0298 29.6953H67.7837C67.7837 29.1501 67.7186 28.6496 67.5884 28.1938C67.4582 27.7381 67.2629 27.3434 67.0024 27.0098C66.742 26.668 66.4246 26.4076 66.0503 26.2285C65.6759 26.0413 65.2446 25.9478 64.7563 25.9478C64.0728 25.9478 63.5072 26.0658 63.0596 26.3018C62.6201 26.5378 62.2946 26.8714 62.083 27.3027C61.8714 27.7259 61.7656 28.2183 61.7656 28.7798C61.7656 29.3006 61.8714 29.7563 62.083 30.147C62.2946 30.5376 62.6527 30.8916 63.1572 31.209C63.6699 31.5182 64.3739 31.8234 65.269 32.1245C66.3188 32.4582 67.21 32.8529 67.9424 33.3086C68.6748 33.7562 69.2323 34.3096 69.6147 34.9688C69.9972 35.6198 70.1885 36.4295 70.1885 37.3979C70.1885 38.4478 69.9525 39.3348 69.4805 40.0591C69.0085 40.7752 68.3452 41.3205 67.4907 41.6948C66.6362 42.0692 65.6353 42.2563 64.4878 42.2563C63.7961 42.2563 63.1125 42.1628 62.437 41.9756C61.7616 41.7884 61.1512 41.4832 60.606 41.0601C60.0607 40.6287 59.6253 40.0632 59.2998 39.3633C58.9743 38.6553 58.8115 37.7886 58.8115 36.7632H61.082C61.082 37.4549 61.1797 38.0286 61.375 38.4844C61.5785 38.932 61.847 39.29 62.1807 39.5586C62.5143 39.819 62.8805 40.0062 63.2793 40.1201C63.6862 40.2259 64.089 40.2788 64.4878 40.2788C65.2202 40.2788 65.8387 40.1649 66.3433 39.937C66.856 39.701 67.2466 39.3674 67.5151 38.936C67.7837 38.5047 67.918 38.0002 67.918 37.4224Z" fill="#00FFE8"/>
<path d="M0 13L20 24.547V1.45299L0 13ZM50 11L14 11V15L50 15V11Z" fill="#00FFE8" fill-opacity="0.6"/>
<path d="M136 47L116 35.453V58.547L136 47ZM86 49H122V45H86V49Z" fill="#00FFE8" fill-opacity="0.6"/>
<circle cx="66" cy="33" r="20.5" stroke="#00FFE8"/>
</svg>
