<svg width="316" height="277" viewBox="0 0 316 277" fill="none" xmlns="http://www.w3.org/2000/svg">
<g filter="url(#filter0_bdi_36_707)">
<rect x="4" width="308" height="269" rx="37" fill="#00163B"/>
</g>
<path d="M94.7734 136.961V157H87.4609V131.641H94.3281L94.7734 136.961ZM93.8359 143.43L91.9844 143.477C91.9844 141.695 92.1953 140.062 92.6172 138.578C93.0547 137.078 93.6875 135.773 94.5156 134.664C95.3438 133.555 96.3672 132.695 97.5859 132.086C98.8203 131.477 100.242 131.172 101.852 131.172C102.977 131.172 104 131.344 104.922 131.688C105.844 132.016 106.633 132.539 107.289 133.258C107.961 133.961 108.477 134.883 108.836 136.023C109.195 137.148 109.375 138.5 109.375 140.078V157H102.062V140.969C102.062 139.844 101.922 138.992 101.641 138.414C101.375 137.82 100.984 137.414 100.469 137.195C99.9531 136.977 99.3359 136.867 98.6172 136.867C97.8359 136.867 97.1406 137.039 96.5312 137.383C95.9375 137.711 95.4375 138.172 95.0312 138.766C94.625 139.359 94.3203 140.055 94.1172 140.852C93.9297 141.648 93.8359 142.508 93.8359 143.43ZM108.625 143.055L106.305 143.242C106.305 141.523 106.508 139.93 106.914 138.461C107.32 136.992 107.93 135.719 108.742 134.641C109.555 133.547 110.562 132.695 111.766 132.086C112.984 131.477 114.398 131.172 116.008 131.172C117.195 131.172 118.273 131.344 119.242 131.688C120.227 132.031 121.07 132.586 121.773 133.352C122.492 134.117 123.047 135.125 123.438 136.375C123.828 137.609 124.023 139.125 124.023 140.922V157H116.664V140.922C116.664 139.812 116.523 138.969 116.242 138.391C115.977 137.812 115.586 137.414 115.07 137.195C114.57 136.977 113.969 136.867 113.266 136.867C112.484 136.867 111.805 137.031 111.227 137.359C110.648 137.672 110.164 138.109 109.773 138.672C109.383 139.219 109.094 139.867 108.906 140.617C108.719 141.367 108.625 142.18 108.625 143.055ZM127.867 144.578V144.086C127.867 142.227 128.133 140.516 128.664 138.953C129.195 137.375 129.977 136.008 131.008 134.852C132.039 133.695 133.305 132.797 134.805 132.156C136.305 131.5 138.023 131.172 139.961 131.172C141.93 131.172 143.664 131.5 145.164 132.156C146.68 132.797 147.953 133.695 148.984 134.852C150.016 136.008 150.797 137.375 151.328 138.953C151.859 140.516 152.125 142.227 152.125 144.086V144.578C152.125 146.422 151.859 148.133 151.328 149.711C150.797 151.273 150.016 152.641 148.984 153.812C147.953 154.969 146.688 155.867 145.188 156.508C143.688 157.148 141.961 157.469 140.008 157.469C138.07 157.469 136.344 157.148 134.828 156.508C133.312 155.867 132.039 154.969 131.008 153.812C129.977 152.641 129.195 151.273 128.664 149.711C128.133 148.133 127.867 146.422 127.867 144.578ZM135.203 144.086V144.578C135.203 145.578 135.281 146.516 135.438 147.391C135.609 148.266 135.883 149.031 136.258 149.688C136.633 150.344 137.125 150.859 137.734 151.234C138.359 151.594 139.117 151.773 140.008 151.773C140.898 151.773 141.648 151.594 142.258 151.234C142.867 150.859 143.359 150.344 143.734 149.688C144.109 149.031 144.375 148.266 144.531 147.391C144.703 146.516 144.789 145.578 144.789 144.578V144.086C144.789 143.102 144.703 142.18 144.531 141.32C144.375 140.445 144.109 139.672 143.734 139C143.359 138.328 142.859 137.805 142.234 137.43C141.625 137.055 140.867 136.867 139.961 136.867C139.086 136.867 138.344 137.055 137.734 137.43C137.125 137.805 136.633 138.328 136.258 139C135.883 139.672 135.609 140.445 135.438 141.32C135.281 142.18 135.203 143.102 135.203 144.086ZM163.305 137.547V157H155.992V131.641H162.859L163.305 137.547ZM170.875 131.453L170.758 138.273C170.445 138.227 170.039 138.188 169.539 138.156C169.039 138.109 168.609 138.086 168.25 138.086C167.312 138.086 166.5 138.203 165.812 138.438C165.141 138.656 164.578 138.984 164.125 139.422C163.688 139.859 163.359 140.406 163.141 141.062C162.922 141.703 162.812 142.445 162.812 143.289L161.43 142.609C161.43 140.938 161.594 139.406 161.922 138.016C162.25 136.625 162.727 135.422 163.352 134.406C163.977 133.375 164.742 132.578 165.648 132.016C166.555 131.453 167.586 131.172 168.742 131.172C169.117 131.172 169.5 131.195 169.891 131.242C170.281 131.289 170.609 131.359 170.875 131.453ZM185.359 157.469C183.344 157.469 181.539 157.148 179.945 156.508C178.352 155.867 177 154.984 175.891 153.859C174.797 152.719 173.961 151.406 173.383 149.922C172.805 148.438 172.516 146.852 172.516 145.164V144.273C172.516 142.383 172.781 140.641 173.312 139.047C173.844 137.453 174.617 136.07 175.633 134.898C176.664 133.711 177.93 132.797 179.43 132.156C180.93 131.5 182.641 131.172 184.562 131.172C186.359 131.172 187.961 131.469 189.367 132.062C190.773 132.641 191.961 133.477 192.93 134.57C193.898 135.648 194.633 136.953 195.133 138.484C195.648 140 195.906 141.703 195.906 143.594V146.594H175.469V141.883H188.734V141.32C188.734 140.43 188.57 139.648 188.242 138.977C187.93 138.305 187.461 137.789 186.836 137.43C186.227 137.055 185.453 136.867 184.516 136.867C183.625 136.867 182.883 137.055 182.289 137.43C181.695 137.805 181.219 138.336 180.859 139.023C180.516 139.695 180.266 140.484 180.109 141.391C179.953 142.281 179.875 143.242 179.875 144.273V145.164C179.875 146.148 180.008 147.047 180.273 147.859C180.539 148.672 180.93 149.367 181.445 149.945C181.961 150.523 182.586 150.977 183.32 151.305C184.055 151.633 184.891 151.797 185.828 151.797C186.984 151.797 188.086 151.578 189.133 151.141C190.18 150.688 191.086 149.984 191.852 149.031L195.273 152.945C194.758 153.695 194.031 154.422 193.094 155.125C192.172 155.812 191.062 156.375 189.766 156.812C188.469 157.25 187 157.469 185.359 157.469ZM199.867 153.531C199.867 152.469 200.242 151.578 200.992 150.859C201.758 150.141 202.75 149.781 203.969 149.781C205.203 149.781 206.188 150.141 206.922 150.859C207.672 151.578 208.047 152.469 208.047 153.531C208.047 154.578 207.672 155.461 206.922 156.18C206.188 156.898 205.203 157.258 203.969 157.258C202.75 157.258 201.758 156.898 200.992 156.18C200.242 155.461 199.867 154.578 199.867 153.531ZM214.117 153.531C214.117 152.469 214.492 151.578 215.242 150.859C216.008 150.141 217 149.781 218.219 149.781C219.453 149.781 220.438 150.141 221.172 150.859C221.922 151.578 222.297 152.469 222.297 153.531C222.297 154.578 221.922 155.461 221.172 156.18C220.438 156.898 219.453 157.258 218.219 157.258C217 157.258 216.008 156.898 215.242 156.18C214.492 155.461 214.117 154.578 214.117 153.531ZM228.367 153.531C228.367 152.469 228.742 151.578 229.492 150.859C230.258 150.141 231.25 149.781 232.469 149.781C233.703 149.781 234.688 150.141 235.422 150.859C236.172 151.578 236.547 152.469 236.547 153.531C236.547 154.578 236.172 155.461 235.422 156.18C234.688 156.898 233.703 157.258 232.469 157.258C231.25 157.258 230.258 156.898 229.492 156.18C228.742 155.461 228.367 154.578 228.367 153.531Z" fill="white"/>
<defs>
<filter id="filter0_bdi_36_707" x="0" y="-4" width="316" height="281" filterUnits="userSpaceOnUse" color-interpolation-filters="sRGB">
<feFlood flood-opacity="0" result="BackgroundImageFix"/>
<feGaussianBlur in="BackgroundImage" stdDeviation="2"/>
<feComposite in2="SourceAlpha" operator="in" result="effect1_backgroundBlur_36_707"/>
<feColorMatrix in="SourceAlpha" type="matrix" values="0 0 0 0 0 0 0 0 0 0 0 0 0 0 0 0 0 0 127 0" result="hardAlpha"/>
<feOffset dy="4"/>
<feGaussianBlur stdDeviation="2"/>
<feComposite in2="hardAlpha" operator="out"/>
<feColorMatrix type="matrix" values="0 0 0 0 0 0 0 0 0 0 0 0 0 0 0 0 0 0 0.25 0"/>
<feBlend mode="normal" in2="effect1_backgroundBlur_36_707" result="effect2_dropShadow_36_707"/>
<feBlend mode="normal" in="SourceGraphic" in2="effect2_dropShadow_36_707" result="shape"/>
<feColorMatrix in="SourceAlpha" type="matrix" values="0 0 0 0 0 0 0 0 0 0 0 0 0 0 0 0 0 0 127 0" result="hardAlpha"/>
<feOffset dy="4"/>
<feGaussianBlur stdDeviation="2"/>
<feComposite in2="hardAlpha" operator="arithmetic" k2="-1" k3="1"/>
<feColorMatrix type="matrix" values="0 0 0 0 0 0 0 0 0 0 0 0 0 0 0 0 0 0 0.25 0"/>
<feBlend mode="normal" in2="shape" result="effect3_innerShadow_36_707"/>
</filter>
</defs>
</svg>
