<svg width="263" height="271" viewBox="0 0 263 271" fill="none" xmlns="http://www.w3.org/2000/svg">
<g filter="url(#filter0_d_36_653)">
<path d="M28.2843 68.0002L130.617 8L234.714 68.0002" stroke="url(#paint0_linear_36_653)" stroke-width="15" stroke-linecap="square" stroke-linejoin="round"/>
<rect x="52.5713" y="108.594" width="11.591" height="100.589" fill="url(#paint1_linear_36_653)"/>
<rect x="101.659" y="108.594" width="11.591" height="100.589" fill="url(#paint2_linear_36_653)"/>
<rect x="150.759" y="108.594" width="11.591" height="100.589" fill="url(#paint3_linear_36_653)"/>
<rect x="199.847" y="108.594" width="11.591" height="100.589" fill="url(#paint4_linear_36_653)"/>
<rect x="4" y="247.998" width="255.001" height="15.0001" rx="1" fill="url(#paint5_linear_36_653)"/>
<rect x="28.2842" y="218" width="206.429" height="15.0001" rx="1" fill="url(#paint6_linear_36_653)"/>
<rect x="28.2842" y="82.999" width="206.429" height="15.0001" rx="1" fill="url(#paint7_linear_36_653)"/>
</g>
<path d="M141.966 56.931H139.552H138.345V46.069H141.966C145.293 46.069 148 43.3619 148 40.0345C148 36.7071 145.293 34 141.966 34C138.638 34 135.931 36.7071 135.931 40.0345V41.8448V43.6552H125.069V43.0517V40.0345C125.069 36.7071 122.362 34 119.034 34C115.707 34 113 36.7071 113 40.0345C113 43.3619 115.707 46.069 119.034 46.069H122.655V56.931H121.448H119.034C115.707 56.931 113 59.6381 113 62.9655C113 66.2929 115.707 69 119.034 69C122.362 69 125.069 66.2929 125.069 62.9655V59.3448H135.931V62.9655C135.931 66.2929 138.638 69 141.966 69C145.293 69 148 66.2929 148 62.9655C148 59.6381 145.293 56.931 141.966 56.931ZM138.345 40.0345C138.345 38.0347 139.966 36.4138 141.966 36.4138C143.965 36.4138 145.586 38.0347 145.586 40.0345C145.586 42.0343 143.965 43.6552 141.966 43.6552H138.345V40.0345ZM122.655 62.9655C122.655 64.9653 121.034 66.5862 119.034 66.5862C117.035 66.5862 115.414 64.9653 115.414 62.9655C115.414 60.9657 117.035 59.3448 119.034 59.3448H122.655V62.9655ZM119.034 43.6552C117.035 43.6552 115.414 42.0343 115.414 40.0345C115.414 38.0347 117.035 36.4138 119.034 36.4138C121.034 36.4138 122.655 38.0347 122.655 40.0345V43.6552H119.034ZM125.069 56.931V46.069H135.931V56.931H125.069ZM141.966 66.5862C139.966 66.5862 138.345 64.9653 138.345 62.9655V59.3448H141.966C143.965 59.3448 145.586 60.9657 145.586 62.9655C145.586 64.9653 143.965 66.5862 141.966 66.5862Z" fill="#00FFE8" fill-opacity="0.8"/>
<path d="M141.966 56.931H139.552H138.345V46.069H141.966C145.293 46.069 148 43.3619 148 40.0345C148 36.7071 145.293 34 141.966 34C138.638 34 135.931 36.7071 135.931 40.0345V41.8448V43.6552H125.069V43.0517V40.0345C125.069 36.7071 122.362 34 119.034 34C115.707 34 113 36.7071 113 40.0345C113 43.3619 115.707 46.069 119.034 46.069H122.655V56.931H121.448H119.034C115.707 56.931 113 59.6381 113 62.9655C113 66.2929 115.707 69 119.034 69C122.362 69 125.069 66.2929 125.069 62.9655V59.3448H135.931V62.9655C135.931 66.2929 138.638 69 141.966 69C145.293 69 148 66.2929 148 62.9655C148 59.6381 145.293 56.931 141.966 56.931ZM138.345 40.0345C138.345 38.0347 139.966 36.4138 141.966 36.4138C143.965 36.4138 145.586 38.0347 145.586 40.0345C145.586 42.0343 143.965 43.6552 141.966 43.6552H138.345V40.0345ZM122.655 62.9655C122.655 64.9653 121.034 66.5862 119.034 66.5862C117.035 66.5862 115.414 64.9653 115.414 62.9655C115.414 60.9657 117.035 59.3448 119.034 59.3448H122.655V62.9655ZM119.034 43.6552C117.035 43.6552 115.414 42.0343 115.414 40.0345C115.414 38.0347 117.035 36.4138 119.034 36.4138C121.034 36.4138 122.655 38.0347 122.655 40.0345V43.6552H119.034ZM125.069 56.931V46.069H135.931V56.931H125.069ZM141.966 66.5862C139.966 66.5862 138.345 64.9653 138.345 62.9655V59.3448H141.966C143.965 59.3448 145.586 60.9657 145.586 62.9655C145.586 64.9653 143.965 66.5862 141.966 66.5862Z" fill="url(#paint8_radial_36_653)" fill-opacity="0.2"/>
<defs>
<filter id="filter0_d_36_653" x="0" y="0.5" width="263.001" height="270.498" filterUnits="userSpaceOnUse" color-interpolation-filters="sRGB">
<feFlood flood-opacity="0" result="BackgroundImageFix"/>
<feColorMatrix in="SourceAlpha" type="matrix" values="0 0 0 0 0 0 0 0 0 0 0 0 0 0 0 0 0 0 127 0" result="hardAlpha"/>
<feOffset dy="4"/>
<feGaussianBlur stdDeviation="2"/>
<feComposite in2="hardAlpha" operator="out"/>
<feColorMatrix type="matrix" values="0 0 0 0 0 0 0 0 0 0 0 0 0 0 0 0 0 0 0.8 0"/>
<feBlend mode="normal" in2="BackgroundImageFix" result="effect1_dropShadow_36_653"/>
<feBlend mode="normal" in="SourceGraphic" in2="effect1_dropShadow_36_653" result="shape"/>
</filter>
<linearGradient id="paint0_linear_36_653" x1="131.499" y1="8" x2="131.499" y2="68.0002" gradientUnits="userSpaceOnUse">
<stop stop-color="#00FFE8"/>
<stop offset="1" stop-color="#00FFE8" stop-opacity="0"/>
</linearGradient>
<linearGradient id="paint1_linear_36_653" x1="58.3668" y1="108.594" x2="58.3668" y2="209.182" gradientUnits="userSpaceOnUse">
<stop stop-color="#00FFE8"/>
<stop offset="1" stop-color="#00FFE8" stop-opacity="0"/>
</linearGradient>
<linearGradient id="paint2_linear_36_653" x1="107.455" y1="108.594" x2="107.455" y2="209.182" gradientUnits="userSpaceOnUse">
<stop stop-color="#00FFE8"/>
<stop offset="1" stop-color="#00FFE8" stop-opacity="0"/>
</linearGradient>
<linearGradient id="paint3_linear_36_653" x1="156.554" y1="108.594" x2="156.554" y2="209.182" gradientUnits="userSpaceOnUse">
<stop stop-color="#00FFE8"/>
<stop offset="1" stop-color="#00FFE8" stop-opacity="0"/>
</linearGradient>
<linearGradient id="paint4_linear_36_653" x1="205.642" y1="108.594" x2="205.642" y2="209.182" gradientUnits="userSpaceOnUse">
<stop stop-color="#00FFE8"/>
<stop offset="1" stop-color="#00FFE8" stop-opacity="0"/>
</linearGradient>
<linearGradient id="paint5_linear_36_653" x1="11.5" y1="255.998" x2="259" y2="252.998" gradientUnits="userSpaceOnUse">
<stop stop-color="#00FFE8"/>
<stop offset="1" stop-color="#00FFE8" stop-opacity="0"/>
</linearGradient>
<linearGradient id="paint6_linear_36_653" x1="293" y1="226" x2="8.00293" y2="222" gradientUnits="userSpaceOnUse">
<stop stop-color="#00FFE8"/>
<stop offset="1" stop-color="#00FFE8" stop-opacity="0"/>
</linearGradient>
<linearGradient id="paint7_linear_36_653" x1="9.50293" y1="90.999" x2="248.003" y2="82.999" gradientUnits="userSpaceOnUse">
<stop stop-color="#00FFE8"/>
<stop offset="1" stop-color="#00FFE8" stop-opacity="0"/>
</linearGradient>
<radialGradient id="paint8_radial_36_653" cx="0" cy="0" r="1" gradientUnits="userSpaceOnUse" gradientTransform="translate(148 66.413) rotate(-137.192) scale(45.0111)">
<stop stop-color="white"/>
<stop offset="1" stop-color="white" stop-opacity="0"/>
</radialGradient>
</defs>
</svg>
