<svg width="136" height="73" viewBox="0 0 136 73" fill="none" xmlns="http://www.w3.org/2000/svg">
<path d="M67.5 16.9117H97.9167" stroke="#00FFE8" stroke-opacity="0.85" stroke-width="1.5" stroke-miterlimit="10" stroke-linecap="round" stroke-linejoin="round"/>
<path d="M74.2525 6.08334H91.1642C96.5783 6.08334 97.9167 7.42168 97.9167 12.775V25.2763C97.9167 30.6296 96.5783 31.9679 91.1642 31.9679H74.2525C68.8383 31.9679 67.5 30.6296 67.5 25.2763V12.775C67.5 7.42168 68.8383 6.08334 74.2525 6.08334Z" stroke="#00FFE8" stroke-opacity="0.85" stroke-width="1.5" stroke-linecap="round" stroke-linejoin="round"/>
<path d="M37.0833 51.8908H67.5" stroke="#00FFE8" stroke-opacity="0.85" stroke-width="1.5" stroke-miterlimit="10" stroke-linecap="round" stroke-linejoin="round"/>
<path d="M43.8358 41.0625H60.7475C66.1616 41.0625 67.5 42.4008 67.5 47.7542V60.2554C67.5 65.6088 66.1616 66.9471 60.7475 66.9471H43.8358C38.4217 66.9471 37.0833 65.6088 37.0833 60.2554V47.7542C37.0833 42.4008 38.4217 41.0625 43.8358 41.0625Z" stroke="#00FFE8" stroke-opacity="0.85" stroke-width="1.5" stroke-linecap="round" stroke-linejoin="round"/>
<path d="M97.9167 45.625C97.9167 57.3962 88.3962 66.9167 76.625 66.9167L79.8187 61.5937" stroke="#00FFE8" stroke-opacity="0.85" stroke-width="1.5" stroke-linecap="round" stroke-linejoin="round"/>
<path d="M37.0833 27.375C37.0833 15.6038 46.6037 6.08334 58.375 6.08334L55.1813 11.4063" stroke="#00FFE8" stroke-opacity="0.85" stroke-width="1.5" stroke-linecap="round" stroke-linejoin="round"/>
</svg>
