<svg width="14" height="16" viewBox="0 0 14 16" fill="none" xmlns="http://www.w3.org/2000/svg">
<path d="M7.29102 5.04297V5.93652H6.85156V5.04297H7.29102ZM7.23828 9.82715V10.6094H6.80176V9.82715H7.23828ZM7.82422 8.90137C7.82422 8.78418 7.79785 8.67871 7.74512 8.58496C7.69238 8.49121 7.60547 8.40527 7.48438 8.32715C7.36328 8.24902 7.20117 8.17676 6.99805 8.11035C6.75195 8.03418 6.53906 7.94141 6.35938 7.83203C6.18164 7.72266 6.04395 7.58691 5.94629 7.4248C5.85059 7.2627 5.80273 7.06641 5.80273 6.83594C5.80273 6.5957 5.85449 6.38867 5.95801 6.21484C6.06152 6.04102 6.20801 5.90723 6.39746 5.81348C6.58691 5.71973 6.80957 5.67285 7.06543 5.67285C7.26465 5.67285 7.44238 5.70312 7.59863 5.76367C7.75488 5.82227 7.88672 5.91016 7.99414 6.02734C8.10352 6.14453 8.18652 6.28809 8.24316 6.45801C8.30176 6.62793 8.33105 6.82422 8.33105 7.04688H7.79199C7.79199 6.91602 7.77637 6.7959 7.74512 6.68652C7.71387 6.57715 7.66699 6.48242 7.60449 6.40234C7.54199 6.32031 7.46582 6.25781 7.37598 6.21484C7.28613 6.16992 7.18262 6.14746 7.06543 6.14746C6.90137 6.14746 6.76562 6.17578 6.6582 6.23242C6.55273 6.28906 6.47461 6.36914 6.42383 6.47266C6.37305 6.57422 6.34766 6.69238 6.34766 6.82715C6.34766 6.95215 6.37305 7.06152 6.42383 7.15527C6.47461 7.24902 6.56055 7.33398 6.68164 7.41016C6.80469 7.48438 6.97363 7.55762 7.18848 7.62988C7.44043 7.70996 7.6543 7.80469 7.83008 7.91406C8.00586 8.02148 8.13965 8.1543 8.23145 8.3125C8.32324 8.46875 8.36914 8.66309 8.36914 8.89551C8.36914 9.14746 8.3125 9.36035 8.19922 9.53418C8.08594 9.70605 7.92676 9.83691 7.72168 9.92676C7.5166 10.0166 7.27637 10.0615 7.00098 10.0615C6.83496 10.0615 6.6709 10.0391 6.50879 9.99414C6.34668 9.94922 6.2002 9.87598 6.06934 9.77441C5.93848 9.6709 5.83398 9.53516 5.75586 9.36719C5.67773 9.19727 5.63867 8.98926 5.63867 8.74316H6.18359C6.18359 8.90918 6.20703 9.04688 6.25391 9.15625C6.30273 9.26367 6.36719 9.34961 6.44727 9.41406C6.52734 9.47656 6.61523 9.52148 6.71094 9.54883C6.80859 9.57422 6.90527 9.58691 7.00098 9.58691C7.17676 9.58691 7.3252 9.55957 7.44629 9.50488C7.56934 9.44824 7.66309 9.36816 7.72754 9.26465C7.79199 9.16113 7.82422 9.04004 7.82422 8.90137Z" fill="#00FFE8"/>
<circle cx="7.00757" cy="8" r="4.75" stroke="#00FFE8" stroke-width="0.5"/>
<path d="M6.29425e-05 2L2.50006 3.44338V0.556624L6.29425e-05 2ZM6.25098 1.75L1.75032 1.75V2.25L6.25098 2.25V1.75Z" fill="#00FFE8" fill-opacity="0.8"/>
<path d="M13.2509 14L10.7509 12.5566V15.4434L13.2509 14ZM7 14.25H11.5007V13.75H7V14.25Z" fill="#00FFE8" fill-opacity="0.8"/>
</svg>
