<svg width="10" height="14" viewBox="0 0 10 14" fill="none" xmlns="http://www.w3.org/2000/svg">
<path d="M7.93399 4.6673C9.17706 3.91261 9.28065 1.76736 9.17706 0.789062H0.786377C0.889966 1.73242 1.09714 3.30467 2.34021 4.56248C3.58328 5.82028 5.03353 5.2962 5.03353 6.44919C5.03353 7.49736 5.03353 7.70699 4.5155 7.81181C1.03491 8.90191 0.924412 11.8298 1.30424 13.1575H9.07342C9.79854 9.27925 6.48375 7.91663 5.9658 7.81181C5.44786 7.70699 5.65504 7.07809 5.65504 6.13474C5.65504 5.19138 6.38016 5.61065 7.93399 4.6673Z" stroke="#00FFE7" stroke-width="0.3"/>
<rect y="13.1588" width="10" height="0.789474" fill="#00FFE8"/>
<rect width="10" height="0.789474" fill="#00FFE8"/>
<ellipse cx="5.4372" cy="3.36307" rx="3.60954" ry="0.845295" transform="rotate(-6.50669 5.4372 3.36307)" fill="#00FFE7" fill-opacity="0.41"/>
<path d="M5.18721 10.526C5.18721 11.4523 3.27287 12.6664 2.36987 13.1576H7.89619C6.76925 13.1576 5.65677 11.4032 5.18721 10.526Z" fill="#00FFE7" fill-opacity="0.85"/>
<path d="M3.22238 5.20107C2.66539 4.97525 2.1619 4.44866 1.84375 3.91122C4.98279 4.77112 7.85318 3.76791 8.94901 3.15881C8.84296 4.87861 6.19175 5.30855 5.8736 5.52353C5.61908 5.69551 5.23731 9.10643 5.13126 10.7904C5.13126 9.39306 5.02521 6.53391 5.02521 6.27594C5.02521 5.95348 3.75263 5.41604 3.22238 5.20107Z" fill="#00FFE8" fill-opacity="0.85"/>
</svg>
