<svg width="37" height="55" viewBox="0 0 37 55" fill="none" xmlns="http://www.w3.org/2000/svg">
<path d="M18.3324 55C8.20488 55 -0.000976562 46.4849 -0.000976562 36.0419V18.9046C-0.000976562 8.46154 8.20488 0 18.3324 0C28.4598 0 36.6657 8.46154 36.6657 18.9046V36.0419C36.6657 46.4849 28.4598 55 18.3324 55ZM18.3324 4.55209C10.6459 4.55209 4.41357 10.9786 4.41357 18.9046V36.0419C4.41357 43.9679 10.6459 50.3944 18.3324 50.3944C26.0189 50.3944 32.2511 43.9679 32.2511 36.0419V18.9046C32.2511 10.9786 26.0189 4.55209 18.3324 4.55209Z" fill="#75CCCC"/>
<path d="M18.3324 22.9167C16.698 22.9167 15.2768 21.7258 15.2768 20.2215V13.3896C15.2768 11.948 16.6269 10.6944 18.3324 10.6944C20.0378 10.6944 21.3879 11.8853 21.3879 13.3896V20.2215C21.3879 21.7258 20.0378 22.9167 18.3324 22.9167Z" fill="#75CCCC"/>
</svg>
