<svg width="45" height="57" viewBox="0 0 45 57" fill="none" xmlns="http://www.w3.org/2000/svg">
<path d="M0.705872 0V56.6714L7.50564 48.3528L12.5451 54.6563L17.5779 48.3695L22.6039 54.6563L27.6333 48.3695L32.6628 54.6563L37.6888 48.3695L44.2941 56.6178V0H0.705872V0ZM40.9412 47.0619L37.6888 43.0015L32.6628 49.2882L27.6333 43.0015L22.6039 49.2882L17.5779 43.0015L12.5451 49.2882L7.53246 43.0182L4.05881 47.2698V3.35294H40.9412V47.0619V47.0619ZM30.8723 13.4118H10.7546V10.0588H30.8723V13.4118ZM24.1664 26.8235H10.7546V23.4706H24.1664V26.8235ZM34.1615 20.1176H10.6909V16.7647H34.1615V20.1176ZM10.7647 33.5294H34.2353V36.8824H10.7647V33.5294Z" fill="#00FFE8" fill-opacity="0.85"/>
</svg>
