<svg width="316" height="277" viewBox="0 0 316 277" fill="none" xmlns="http://www.w3.org/2000/svg">
<g filter="url(#filter0_bdi_13_2522)">
<rect x="4" width="308" height="269" rx="37" fill="#00163B"/>
</g>
<path d="M158.002 222C206.049 222 245 183.046 245 135C245 86.946 206.053 48 158.002 48C109.951 48 71 86.946 71 135C71 183.046 109.951 222 158.002 222Z" fill="#1FC0E7"/>
<path d="M113.391 134.978L128.208 120.091C128.699 119.596 128.973 118.931 128.973 118.228C128.973 116.758 127.782 115.567 126.317 115.567C125.602 115.567 124.933 115.846 124.43 116.36L109.621 131.181L94.7534 116.333C94.2507 115.838 93.5857 115.567 92.8781 115.567C91.4087 115.567 90.2217 116.758 90.2217 118.224C90.2217 118.939 90.5078 119.616 91.0182 120.118L105.835 134.955L91.0259 149.803C90.5078 150.321 90.2217 150.994 90.2217 151.709C90.2217 153.178 91.4126 154.369 92.8781 154.369C93.5857 154.369 94.2507 154.099 94.7534 153.596L109.601 138.74L124.391 153.538C124.917 154.079 125.59 154.369 126.317 154.369C127.779 154.369 128.97 153.178 128.97 151.709C128.97 151.002 128.699 150.336 128.196 149.834L113.387 134.963L113.391 134.978ZM201.477 134.974C201.477 137.642 203.643 139.808 206.311 139.808C208.963 139.808 211.128 137.642 211.128 134.974C211.128 132.306 208.963 130.141 206.307 130.141C203.65 130.141 201.489 132.306 201.489 134.974H201.477ZM192.333 134.974C192.333 127.26 198.597 120.977 206.307 120.977C214.001 120.977 220.277 127.26 220.277 134.974C220.277 142.688 214.005 148.972 206.307 148.972C198.6 148.972 192.333 142.696 192.333 134.974ZM186.834 134.974C186.834 145.724 195.573 154.478 206.307 154.478C217.041 154.478 225.779 145.731 225.779 134.978C225.779 124.229 217.041 115.475 206.307 115.475C195.569 115.475 186.834 124.225 186.834 134.978V134.974ZM185.454 115.807H184.642C182.186 115.807 179.82 116.58 177.844 118.108C177.574 116.925 176.506 116.02 175.238 116.02C173.78 116.02 172.609 117.199 172.609 118.665L172.616 151.512C172.616 152.97 173.815 154.157 175.265 154.157C176.727 154.157 177.918 152.97 177.922 151.504V131.305C177.922 124.577 178.54 121.855 184.294 121.135C184.835 121.07 185.407 121.081 185.415 121.081C186.985 121.023 188.106 119.937 188.106 118.471C188.106 117.002 186.908 115.811 185.438 115.811L185.454 115.807ZM134.468 131.769C134.468 131.691 134.476 131.614 134.48 131.544C136.018 125.435 141.54 120.923 148.11 120.923C154.76 120.923 160.328 125.54 161.798 131.757H134.464L134.468 131.769ZM167.23 131.266C166.086 125.841 163.12 121.383 158.608 118.522C152.003 114.322 143.288 114.554 136.916 119.102C131.711 122.802 128.707 128.865 128.707 135.11C128.707 136.676 128.9 138.257 129.287 139.815C131.251 147.549 137.894 153.41 145.813 154.381C148.164 154.667 150.453 154.536 152.811 153.917C154.853 153.414 156.821 152.595 158.635 151.427C160.518 150.217 162.091 148.616 163.623 146.702C163.646 146.663 163.677 146.636 163.708 146.597C164.767 145.283 164.57 143.404 163.41 142.514C162.428 141.76 160.781 141.455 159.489 143.117C159.211 143.52 158.898 143.929 158.561 144.335C157.529 145.476 156.249 146.578 154.718 147.436C152.761 148.48 150.542 149.072 148.183 149.088C140.457 148.999 136.328 143.597 134.855 139.746C134.599 139.023 134.402 138.276 134.263 137.503L134.224 137.097H161.948C165.745 137.012 167.787 134.325 167.222 131.258L167.23 131.266Z" fill="white"/>
<defs>
<filter id="filter0_bdi_13_2522" x="0" y="-4" width="316" height="281" filterUnits="userSpaceOnUse" color-interpolation-filters="sRGB">
<feFlood flood-opacity="0" result="BackgroundImageFix"/>
<feGaussianBlur in="BackgroundImage" stdDeviation="2"/>
<feComposite in2="SourceAlpha" operator="in" result="effect1_backgroundBlur_13_2522"/>
<feColorMatrix in="SourceAlpha" type="matrix" values="0 0 0 0 0 0 0 0 0 0 0 0 0 0 0 0 0 0 127 0" result="hardAlpha"/>
<feOffset dy="4"/>
<feGaussianBlur stdDeviation="2"/>
<feComposite in2="hardAlpha" operator="out"/>
<feColorMatrix type="matrix" values="0 0 0 0 0 0 0 0 0 0 0 0 0 0 0 0 0 0 0.25 0"/>
<feBlend mode="normal" in2="effect1_backgroundBlur_13_2522" result="effect2_dropShadow_13_2522"/>
<feBlend mode="normal" in="SourceGraphic" in2="effect2_dropShadow_13_2522" result="shape"/>
<feColorMatrix in="SourceAlpha" type="matrix" values="0 0 0 0 0 0 0 0 0 0 0 0 0 0 0 0 0 0 127 0" result="hardAlpha"/>
<feOffset dy="4"/>
<feGaussianBlur stdDeviation="2"/>
<feComposite in2="hardAlpha" operator="arithmetic" k2="-1" k3="1"/>
<feColorMatrix type="matrix" values="0 0 0 0 0 0 0 0 0 0 0 0 0 0 0 0 0 0 0.25 0"/>
<feBlend mode="normal" in2="shape" result="effect3_innerShadow_13_2522"/>
</filter>
</defs>
</svg>
