<svg width="182" height="23" viewBox="0 0 182 23" fill="none" xmlns="http://www.w3.org/2000/svg">
<path d="M5.49805 18H2.5293L2.54883 16.4668H5.49805C6.51367 16.4668 7.36003 16.2552 8.03711 15.832C8.71419 15.4023 9.22201 14.8034 9.56055 14.0352C9.9056 13.2604 10.0781 12.3555 10.0781 11.3203V10.4512C10.0781 9.63737 9.98047 8.91471 9.78516 8.2832C9.58984 7.64518 9.30339 7.10807 8.92578 6.67188C8.54818 6.22917 8.08594 5.89388 7.53906 5.66602C6.9987 5.43815 6.37695 5.32422 5.67383 5.32422H2.4707V3.78125H5.67383C6.60482 3.78125 7.45443 3.9375 8.22266 4.25C8.99089 4.55599 9.65169 5.00195 10.2051 5.58789C10.765 6.16732 11.1947 6.87044 11.4941 7.69727C11.7936 8.51758 11.9434 9.44206 11.9434 10.4707V11.3203C11.9434 12.349 11.7936 13.2767 11.4941 14.1035C11.1947 14.9238 10.7617 15.6237 10.1953 16.2031C9.63542 16.7826 8.95833 17.2285 8.16406 17.541C7.3763 17.847 6.48763 18 5.49805 18ZM3.53516 3.78125V18H1.65039V3.78125H3.53516ZM16.4648 7.43359V18H14.6484V7.43359H16.4648ZM14.5117 4.63086C14.5117 4.33789 14.5996 4.09049 14.7754 3.88867C14.9577 3.68685 15.2246 3.58594 15.5762 3.58594C15.9212 3.58594 16.1849 3.68685 16.3672 3.88867C16.556 4.09049 16.6504 4.33789 16.6504 4.63086C16.6504 4.91081 16.556 5.15169 16.3672 5.35352C16.1849 5.54883 15.9212 5.64648 15.5762 5.64648C15.2246 5.64648 14.9577 5.54883 14.7754 5.35352C14.5996 5.15169 14.5117 4.91081 14.5117 4.63086ZM25.5176 15.1973C25.5176 14.9368 25.459 14.696 25.3418 14.4746C25.2311 14.2467 25 14.0417 24.6484 13.8594C24.3034 13.6706 23.7826 13.5078 23.0859 13.3711C22.5 13.2474 21.9694 13.1009 21.4941 12.9316C21.0254 12.7624 20.625 12.5573 20.293 12.3164C19.9674 12.0755 19.7168 11.7923 19.541 11.4668C19.3652 11.1413 19.2773 10.7604 19.2773 10.3242C19.2773 9.90755 19.3685 9.51367 19.5508 9.14258C19.7396 8.77148 20.0033 8.44271 20.3418 8.15625C20.6868 7.86979 21.1003 7.64518 21.582 7.48242C22.0638 7.31966 22.6009 7.23828 23.1934 7.23828C24.0397 7.23828 24.7624 7.38802 25.3613 7.6875C25.9603 7.98698 26.4193 8.38737 26.7383 8.88867C27.0573 9.38346 27.2168 9.93359 27.2168 10.5391H25.4102C25.4102 10.2461 25.3223 9.96289 25.1465 9.68945C24.9772 9.40951 24.7266 9.17839 24.3945 8.99609C24.069 8.8138 23.6686 8.72266 23.1934 8.72266C22.6921 8.72266 22.2852 8.80078 21.9727 8.95703C21.6667 9.10677 21.4421 9.29883 21.2988 9.5332C21.1621 9.76758 21.0938 10.015 21.0938 10.2754C21.0938 10.4707 21.1263 10.6465 21.1914 10.8027C21.263 10.9525 21.3867 11.0924 21.5625 11.2227C21.7383 11.3464 21.9857 11.4635 22.3047 11.5742C22.6237 11.6849 23.0306 11.7956 23.5254 11.9062C24.3913 12.1016 25.1042 12.3359 25.6641 12.6094C26.224 12.8828 26.6406 13.2181 26.9141 13.6152C27.1875 14.0124 27.3242 14.4941 27.3242 15.0605C27.3242 15.5228 27.2266 15.946 27.0312 16.3301C26.8424 16.7142 26.5658 17.0462 26.2012 17.3262C25.8431 17.5996 25.4134 17.8145 24.9121 17.9707C24.4173 18.1204 23.8607 18.1953 23.2422 18.1953C22.3112 18.1953 21.5234 18.0293 20.8789 17.6973C20.2344 17.3652 19.7461 16.9355 19.4141 16.4082C19.082 15.8809 18.916 15.3242 18.916 14.7383H20.7324C20.7585 15.2331 20.9017 15.627 21.1621 15.9199C21.4225 16.2064 21.7415 16.4115 22.1191 16.5352C22.4967 16.6523 22.8711 16.7109 23.2422 16.7109C23.737 16.7109 24.1504 16.6458 24.4824 16.5156C24.821 16.3854 25.0781 16.2064 25.2539 15.9785C25.4297 15.7507 25.5176 15.4902 25.5176 15.1973ZM33.9258 16.7109C34.3555 16.7109 34.7526 16.623 35.1172 16.4473C35.4818 16.2715 35.7812 16.0306 36.0156 15.7246C36.25 15.4121 36.3835 15.0573 36.416 14.6602H38.1348C38.1022 15.2852 37.8906 15.8678 37.5 16.4082C37.1159 16.9421 36.6113 17.375 35.9863 17.707C35.3613 18.0326 34.6745 18.1953 33.9258 18.1953C33.1315 18.1953 32.4382 18.0553 31.8457 17.7754C31.2598 17.4954 30.7715 17.1113 30.3809 16.623C29.9967 16.1348 29.707 15.5749 29.5117 14.9434C29.3229 14.3053 29.2285 13.6315 29.2285 12.9219V12.5117C29.2285 11.8021 29.3229 11.1315 29.5117 10.5C29.707 9.86198 29.9967 9.29883 30.3809 8.81055C30.7715 8.32227 31.2598 7.93815 31.8457 7.6582C32.4382 7.37826 33.1315 7.23828 33.9258 7.23828C34.7526 7.23828 35.4753 7.40755 36.0938 7.74609C36.7122 8.07812 37.1973 8.53385 37.5488 9.11328C37.9069 9.6862 38.1022 10.3372 38.1348 11.0664H36.416C36.3835 10.6302 36.2598 10.2363 36.0449 9.88477C35.8366 9.5332 35.5501 9.25326 35.1855 9.04492C34.8275 8.83008 34.4076 8.72266 33.9258 8.72266C33.3724 8.72266 32.9069 8.83333 32.5293 9.05469C32.1582 9.26953 31.862 9.5625 31.6406 9.93359C31.4258 10.2982 31.2695 10.7051 31.1719 11.1543C31.0807 11.597 31.0352 12.0495 31.0352 12.5117V12.9219C31.0352 13.3841 31.0807 13.8398 31.1719 14.2891C31.263 14.7383 31.416 15.1452 31.6309 15.5098C31.8522 15.8743 32.1484 16.1673 32.5195 16.3887C32.8971 16.6035 33.3659 16.7109 33.9258 16.7109ZM39.6875 12.834V12.6094C39.6875 11.8477 39.7982 11.1413 40.0195 10.4902C40.2409 9.83268 40.5599 9.26302 40.9766 8.78125C41.3932 8.29297 41.8978 7.91536 42.4902 7.64844C43.0827 7.375 43.7467 7.23828 44.4824 7.23828C45.2246 7.23828 45.8919 7.375 46.4844 7.64844C47.0833 7.91536 47.5911 8.29297 48.0078 8.78125C48.431 9.26302 48.7533 9.83268 48.9746 10.4902C49.196 11.1413 49.3066 11.8477 49.3066 12.6094V12.834C49.3066 13.5957 49.196 14.3021 48.9746 14.9531C48.7533 15.6042 48.431 16.1738 48.0078 16.6621C47.5911 17.1439 47.0866 17.5215 46.4941 17.7949C45.9082 18.0618 45.2441 18.1953 44.502 18.1953C43.7598 18.1953 43.0924 18.0618 42.5 17.7949C41.9076 17.5215 41.3997 17.1439 40.9766 16.6621C40.5599 16.1738 40.2409 15.6042 40.0195 14.9531C39.7982 14.3021 39.6875 13.5957 39.6875 12.834ZM41.4941 12.6094V12.834C41.4941 13.3613 41.556 13.8594 41.6797 14.3281C41.8034 14.7904 41.9889 15.2005 42.2363 15.5586C42.4902 15.9167 42.806 16.1999 43.1836 16.4082C43.5612 16.61 44.0007 16.7109 44.502 16.7109C44.9967 16.7109 45.4297 16.61 45.8008 16.4082C46.1784 16.1999 46.4909 15.9167 46.7383 15.5586C46.9857 15.2005 47.1712 14.7904 47.2949 14.3281C47.4251 13.8594 47.4902 13.3613 47.4902 12.834V12.6094C47.4902 12.0885 47.4251 11.597 47.2949 11.1348C47.1712 10.666 46.9824 10.2526 46.7285 9.89453C46.4811 9.52995 46.1686 9.24349 45.791 9.03516C45.4199 8.82682 44.9837 8.72266 44.4824 8.72266C43.9876 8.72266 43.5514 8.82682 43.1738 9.03516C42.8027 9.24349 42.4902 9.52995 42.2363 9.89453C41.9889 10.2526 41.8034 10.666 41.6797 11.1348C41.556 11.597 41.4941 12.0885 41.4941 12.6094ZM54.6289 16.3691L57.5195 7.43359H59.3652L55.5664 18H54.3555L54.6289 16.3691ZM52.2168 7.43359L55.1953 16.418L55.4004 18H54.1895L50.3613 7.43359H52.2168ZM65.3516 18.1953C64.6159 18.1953 63.9486 18.0716 63.3496 17.8242C62.7572 17.5703 62.2461 17.2155 61.8164 16.7598C61.3932 16.304 61.0677 15.7637 60.8398 15.1387C60.612 14.5137 60.498 13.8301 60.498 13.0879V12.6777C60.498 11.8184 60.625 11.0534 60.8789 10.3828C61.1328 9.70573 61.4779 9.13281 61.9141 8.66406C62.3503 8.19531 62.8451 7.84049 63.3984 7.59961C63.9518 7.35872 64.5247 7.23828 65.1172 7.23828C65.8724 7.23828 66.5234 7.36849 67.0703 7.62891C67.6237 7.88932 68.0762 8.25391 68.4277 8.72266C68.7793 9.1849 69.0397 9.73177 69.209 10.3633C69.3783 10.9883 69.4629 11.6719 69.4629 12.4141V13.2246H61.5723V11.75H67.6562V11.6133C67.6302 11.1445 67.5326 10.6888 67.3633 10.2461C67.2005 9.80339 66.9401 9.4388 66.582 9.15234C66.224 8.86589 65.7357 8.72266 65.1172 8.72266C64.707 8.72266 64.3294 8.81055 63.9844 8.98633C63.6393 9.1556 63.3431 9.40951 63.0957 9.74805C62.8483 10.0866 62.6562 10.5 62.5195 10.9883C62.3828 11.4766 62.3145 12.0397 62.3145 12.6777V13.0879C62.3145 13.5892 62.3828 14.0612 62.5195 14.5039C62.6628 14.9401 62.8678 15.3242 63.1348 15.6562C63.4082 15.9883 63.737 16.2487 64.1211 16.4375C64.5117 16.6263 64.9544 16.7207 65.4492 16.7207C66.0872 16.7207 66.6276 16.5905 67.0703 16.3301C67.513 16.0697 67.9004 15.7214 68.2324 15.2852L69.3262 16.1543C69.0983 16.4993 68.8086 16.8281 68.457 17.1406C68.1055 17.4531 67.6725 17.707 67.1582 17.9023C66.6504 18.0977 66.0482 18.1953 65.3516 18.1953ZM73.3789 9.09375V18H71.5723V7.43359H73.3301L73.3789 9.09375ZM76.6797 7.375L76.6699 9.05469C76.5202 9.02214 76.377 9.0026 76.2402 8.99609C76.11 8.98307 75.9603 8.97656 75.791 8.97656C75.3743 8.97656 75.0065 9.04167 74.6875 9.17188C74.3685 9.30208 74.0983 9.48438 73.877 9.71875C73.6556 9.95312 73.4798 10.2331 73.3496 10.5586C73.2259 10.8776 73.1445 11.2292 73.1055 11.6133L72.5977 11.9062C72.5977 11.2682 72.6595 10.6693 72.7832 10.1094C72.9134 9.54948 73.112 9.05469 73.3789 8.625C73.6458 8.1888 73.9844 7.85026 74.3945 7.60938C74.8112 7.36198 75.306 7.23828 75.8789 7.23828C76.0091 7.23828 76.1589 7.25456 76.3281 7.28711C76.4974 7.31315 76.6146 7.34245 76.6797 7.375ZM87.8418 18.1953C87.041 18.1953 86.3216 18.0651 85.6836 17.8047C85.0456 17.5443 84.502 17.1829 84.0527 16.7207C83.61 16.252 83.2682 15.7083 83.0273 15.0898C82.793 14.4648 82.6758 13.7943 82.6758 13.0781V12.6875C82.6758 11.8737 82.793 11.1348 83.0273 10.4707C83.2617 9.80013 83.5938 9.22396 84.0234 8.74219C84.4531 8.26042 84.9674 7.88932 85.5664 7.62891C86.1654 7.36849 86.8262 7.23828 87.5488 7.23828C88.2975 7.23828 88.9583 7.36523 89.5312 7.61914C90.1042 7.86654 90.5827 8.2181 90.9668 8.67383C91.3509 9.12956 91.6406 9.67643 91.8359 10.3145C92.0312 10.946 92.1289 11.6458 92.1289 12.4141V13.498H83.8477V11.7207H89.5898V11.5254C89.5768 11.1152 89.4987 10.7409 89.3555 10.4023C89.2122 10.0573 88.9909 9.78385 88.6914 9.58203C88.3919 9.3737 88.0046 9.26953 87.5293 9.26953C87.1452 9.26953 86.8099 9.35417 86.5234 9.52344C86.2435 9.6862 86.0091 9.92057 85.8203 10.2266C85.638 10.526 85.5013 10.8841 85.4102 11.3008C85.319 11.7174 85.2734 12.1797 85.2734 12.6875V13.0781C85.2734 13.5208 85.332 13.931 85.4492 14.3086C85.5729 14.6862 85.752 15.015 85.9863 15.2949C86.2272 15.5684 86.5137 15.7832 86.8457 15.9395C87.1842 16.0892 87.5684 16.1641 87.998 16.1641C88.5384 16.1641 89.0267 16.0599 89.4629 15.8516C89.9056 15.6367 90.2897 15.321 90.6152 14.9043L91.9141 16.252C91.6927 16.5775 91.3932 16.89 91.0156 17.1895C90.6445 17.4889 90.1953 17.7331 89.668 17.9219C89.1406 18.1042 88.5319 18.1953 87.8418 18.1953ZM96.3867 9.68945V18H93.8086V7.43359H96.2305L96.3867 9.68945ZM95.9766 12.3359H95.2148C95.2214 11.5677 95.3255 10.8711 95.5273 10.2461C95.7292 9.62109 96.0124 9.08398 96.377 8.63477C96.748 8.18555 97.1875 7.84049 97.6953 7.59961C98.2031 7.35872 98.7695 7.23828 99.3945 7.23828C99.9023 7.23828 100.361 7.3099 100.771 7.45312C101.182 7.59635 101.533 7.82422 101.826 8.13672C102.126 8.44922 102.354 8.85938 102.51 9.36719C102.673 9.86849 102.754 10.487 102.754 11.2227V18H100.156V11.2031C100.156 10.7214 100.085 10.3405 99.9414 10.0605C99.8047 9.7806 99.6029 9.58203 99.3359 9.46484C99.0755 9.34766 98.7533 9.28906 98.3691 9.28906C97.972 9.28906 97.6237 9.37044 97.3242 9.5332C97.0312 9.68945 96.7839 9.90755 96.582 10.1875C96.3867 10.4674 96.237 10.7897 96.1328 11.1543C96.0286 11.5189 95.9766 11.9128 95.9766 12.3359ZM110.84 15.1094C110.84 14.888 110.781 14.6895 110.664 14.5137C110.547 14.3379 110.326 14.1784 110 14.0352C109.681 13.8854 109.212 13.7454 108.594 13.6152C108.047 13.498 107.542 13.3516 107.08 13.1758C106.618 13 106.221 12.7884 105.889 12.541C105.557 12.2871 105.296 11.9909 105.107 11.6523C104.925 11.3073 104.834 10.9102 104.834 10.4609C104.834 10.0247 104.928 9.61458 105.117 9.23047C105.306 8.83984 105.579 8.49805 105.938 8.20508C106.296 7.9056 106.732 7.67122 107.246 7.50195C107.76 7.32617 108.34 7.23828 108.984 7.23828C109.883 7.23828 110.654 7.38477 111.299 7.67773C111.95 7.9707 112.448 8.37435 112.793 8.88867C113.138 9.39648 113.311 9.9694 113.311 10.6074H110.732C110.732 10.3275 110.667 10.0736 110.537 9.8457C110.413 9.61784 110.221 9.43555 109.961 9.29883C109.701 9.1556 109.372 9.08398 108.975 9.08398C108.617 9.08398 108.314 9.14258 108.066 9.25977C107.826 9.37695 107.643 9.52995 107.52 9.71875C107.396 9.90755 107.334 10.1159 107.334 10.3438C107.334 10.513 107.367 10.666 107.432 10.8027C107.503 10.9329 107.617 11.0534 107.773 11.1641C107.93 11.2747 108.141 11.3757 108.408 11.4668C108.682 11.5579 109.017 11.6458 109.414 11.7305C110.202 11.8867 110.889 12.0951 111.475 12.3555C112.067 12.6094 112.529 12.9479 112.861 13.3711C113.193 13.7943 113.359 14.3346 113.359 14.9922C113.359 15.4609 113.258 15.8906 113.057 16.2812C112.855 16.6654 112.562 17.0007 112.178 17.2871C111.794 17.5736 111.335 17.7982 110.801 17.9609C110.267 18.1172 109.665 18.1953 108.994 18.1953C108.024 18.1953 107.204 18.0228 106.533 17.6777C105.863 17.3262 105.355 16.8835 105.01 16.3496C104.665 15.8092 104.492 15.2493 104.492 14.6699H106.963C106.982 15.0801 107.093 15.4089 107.295 15.6562C107.497 15.9036 107.751 16.0827 108.057 16.1934C108.369 16.2975 108.698 16.3496 109.043 16.3496C109.434 16.3496 109.762 16.2975 110.029 16.1934C110.296 16.0827 110.498 15.9362 110.635 15.7539C110.771 15.5651 110.84 15.3503 110.84 15.1094ZM121.143 15.7539V10.8809C121.143 10.5228 121.081 10.2135 120.957 9.95312C120.833 9.69271 120.645 9.49089 120.391 9.34766C120.137 9.20443 119.814 9.13281 119.424 9.13281C119.079 9.13281 118.776 9.19141 118.516 9.30859C118.262 9.42578 118.066 9.5918 117.93 9.80664C117.793 10.015 117.725 10.2559 117.725 10.5293H115.137C115.137 10.0931 115.241 9.67969 115.449 9.28906C115.658 8.89193 115.954 8.54036 116.338 8.23438C116.729 7.92188 117.194 7.67773 117.734 7.50195C118.281 7.32617 118.893 7.23828 119.57 7.23828C120.371 7.23828 121.084 7.375 121.709 7.64844C122.34 7.91536 122.835 8.31901 123.193 8.85938C123.558 9.39974 123.74 10.0801 123.74 10.9004V15.5098C123.74 16.0371 123.773 16.4896 123.838 16.8672C123.91 17.2383 124.014 17.5605 124.15 17.834V18H121.523C121.4 17.7331 121.305 17.3945 121.24 16.9844C121.175 16.5677 121.143 16.1576 121.143 15.7539ZM121.504 11.5645L121.523 13.0977H119.893C119.489 13.0977 119.134 13.14 118.828 13.2246C118.522 13.3027 118.271 13.4199 118.076 13.5762C117.881 13.7259 117.734 13.9082 117.637 14.123C117.539 14.3314 117.49 14.569 117.49 14.8359C117.49 15.0964 117.549 15.3307 117.666 15.5391C117.79 15.7474 117.965 15.9134 118.193 16.0371C118.428 16.1543 118.701 16.2129 119.014 16.2129C119.469 16.2129 119.867 16.1217 120.205 15.9395C120.544 15.7507 120.807 15.5228 120.996 15.2559C121.185 14.9889 121.286 14.735 121.299 14.4941L122.041 15.6074C121.95 15.8743 121.813 16.1576 121.631 16.457C121.449 16.7565 121.214 17.0365 120.928 17.2969C120.641 17.5573 120.296 17.7721 119.893 17.9414C119.489 18.1107 119.02 18.1953 118.486 18.1953C117.803 18.1953 117.191 18.0586 116.65 17.7852C116.11 17.5117 115.684 17.1374 115.371 16.6621C115.059 16.1868 114.902 15.6465 114.902 15.041C114.902 14.4811 115.007 13.9863 115.215 13.5566C115.423 13.127 115.732 12.7656 116.143 12.4727C116.553 12.1732 117.061 11.9486 117.666 11.7988C118.278 11.6426 118.978 11.5645 119.766 11.5645H121.504ZM126.27 3H128.086V15.9492L127.93 18H126.27V3ZM135.225 12.6289V12.834C135.225 13.6022 135.133 14.3151 134.951 14.9727C134.769 15.6237 134.502 16.1901 134.15 16.6719C133.799 17.1536 133.369 17.528 132.861 17.7949C132.354 18.0618 131.771 18.1953 131.113 18.1953C130.443 18.1953 129.854 18.0814 129.346 17.8535C128.844 17.6191 128.421 17.2839 128.076 16.8477C127.731 16.4115 127.454 15.8841 127.246 15.2656C127.044 14.6471 126.904 13.9505 126.826 13.1758V12.2773C126.904 11.4961 127.044 10.7962 127.246 10.1777C127.454 9.55924 127.731 9.0319 128.076 8.5957C128.421 8.15299 128.844 7.81771 129.346 7.58984C129.847 7.35547 130.43 7.23828 131.094 7.23828C131.758 7.23828 132.347 7.36849 132.861 7.62891C133.376 7.88281 133.805 8.2474 134.15 8.72266C134.502 9.19792 134.769 9.76758 134.951 10.4316C135.133 11.0892 135.225 11.8216 135.225 12.6289ZM133.408 12.834V12.6289C133.408 12.1016 133.359 11.6068 133.262 11.1445C133.164 10.6758 133.008 10.2656 132.793 9.91406C132.578 9.55599 132.295 9.27604 131.943 9.07422C131.592 8.86589 131.159 8.76172 130.645 8.76172C130.189 8.76172 129.792 8.83984 129.453 8.99609C129.121 9.15234 128.838 9.36393 128.604 9.63086C128.369 9.89128 128.177 10.1908 128.027 10.5293C127.884 10.8613 127.777 11.2064 127.705 11.5645V13.918C127.809 14.3737 127.979 14.8132 128.213 15.2363C128.454 15.653 128.773 15.9948 129.17 16.2617C129.574 16.5286 130.072 16.6621 130.664 16.6621C131.152 16.6621 131.569 16.5645 131.914 16.3691C132.266 16.1673 132.549 15.8906 132.764 15.5391C132.985 15.1875 133.148 14.7806 133.252 14.3184C133.356 13.8561 133.408 13.3613 133.408 12.834ZM139.473 7.43359V18H137.656V7.43359H139.473ZM137.52 4.63086C137.52 4.33789 137.607 4.09049 137.783 3.88867C137.965 3.68685 138.232 3.58594 138.584 3.58594C138.929 3.58594 139.193 3.68685 139.375 3.88867C139.564 4.09049 139.658 4.33789 139.658 4.63086C139.658 4.91081 139.564 5.15169 139.375 5.35352C139.193 5.54883 138.929 5.64648 138.584 5.64648C138.232 5.64648 137.965 5.54883 137.783 5.35352C137.607 5.15169 137.52 4.91081 137.52 4.63086ZM144.336 3V18H142.52V3H144.336ZM149.199 3V18H147.383V3H149.199Z" fill="white"/>
<path d="M181.207 10.7071C181.598 10.3166 181.598 9.68339 181.207 9.29286L174.843 2.92891C174.453 2.53839 173.819 2.53839 173.429 2.92891C173.038 3.31944 173.038 3.9526 173.429 4.34313L179.086 9.99997L173.429 15.6568C173.038 16.0474 173.038 16.6805 173.429 17.071C173.819 17.4616 174.453 17.4616 174.843 17.071L181.207 10.7071ZM160 9C159.448 9 159 9.44772 159 10C159 10.5523 159.448 11 160 11L160 9ZM180.5 8.99997L160 9L160 11L180.5 11L180.5 8.99997Z" fill="white"/>
</svg>
